<?xml version="1.0" standalone="no"?>
<!DOCTYPE svg PUBLIC "-//W3C//DTD SVG 1.1//EN" "http://www.w3.org/Graphics/SVG/1.1/DTD/svg11.dtd" >
<svg xmlns="http://www.w3.org/2000/svg" xmlns:xlink="http://www.w3.org/1999/xlink" version="1.1">
<metadata>
Created by FontForge 20200427 at Mon Nov  2 19:01:18 2015
 By www
Copyright 2015 Indian Type Foundry. All rights reserved.
</metadata>
<defs>
<font id="TarsusW03-Light" horiz-adv-x="527" >
  <font-face 
    font-family="TarsusW03-Light"
    font-weight="300"
    font-stretch="normal"
    units-per-em="1000"
    panose-1="2 0 0 0 0 0 0 0 0 0"
    ascent="800"
    descent="-200"
    x-height="515"
    cap-height="715"
    bbox="-147 -247 1652 992"
    underline-thickness="50"
    underline-position="-125"
    unicode-range="U+0020-FB02"
  />
<missing-glyph horiz-adv-x="690" 
d="M590 0h-490v715h490v-715zM180 665v-615h330v615h-330z" />
    <glyph glyph-name="uniFB01" unicode="fi" horiz-adv-x="629" 
d="M299 755q35 0 83 -14l-15 -63q-45 15 -92 15q-28 0 -48.5 -14t-29 -39t-8.5 -54v-71h114v-50h-114v-410l84 -25v-30h-232v27l74 28v410h-80v50h80v8q0 112 48.5 172t135.5 60zM525 517v-462l74 -25v-30h-222v30l74 25v388l-84 17v30zM480 723q23 0 39.5 -16.5t16.5 -39.5
t-16.5 -39.5t-39.5 -16.5t-39.5 16.5t-16.5 39.5t16.5 39.5t39.5 16.5z" />
    <glyph glyph-name="uniFB02" unicode="fl" horiz-adv-x="629" 
d="M303 515v-50h-114v-410l84 -25v-30h-232v27l74 28v410h-80v50h80v8q0 112 48.5 172t135.5 60q22 0 53 -6.5t58 -16.5l105 18v-695l74 -25v-30h-222v30l74 25v597q-93 41 -166 41q-28 0 -48.5 -14t-29 -39t-8.5 -54v-71h114z" />
    <glyph glyph-name=".notdef" horiz-adv-x="690" 
d="M590 0h-490v715h490v-715zM180 665v-615h330v615h-330z" />
    <glyph glyph-name=".null" horiz-adv-x="0" 
 />
    <glyph glyph-name="nonmarkingreturn" horiz-adv-x="333" 
 />
    <glyph glyph-name="space" unicode=" " horiz-adv-x="268" 
 />
    <glyph glyph-name="exclam" unicode="!" horiz-adv-x="261" 
d="M176 715l-19 -483h-52l-21 483h92zM131 111q24 0 42 -18t18 -42t-18 -42.5t-42 -18.5t-42.5 18.5t-18.5 42.5t18.5 42t42.5 18z" />
    <glyph glyph-name="quotedbl" unicode="&#x22;" horiz-adv-x="338" 
d="M138 715l-18 -231h-52l-18 231h88zM288 715l-18 -231h-52l-18 231h88z" />
    <glyph glyph-name="numbersign" unicode="#" horiz-adv-x="612" 
d="M494 590l-38 -122h106l-16 -52h-106l-39 -128h121l-16 -52h-121l-44 -143h-54l44 143h-130l-43 -143h-54l43 143h-97l16 52h97l40 128h-113l16 52h113l38 122h54l-38 -122h129l38 122h54zM386 416h-129l-40 -128h130z" />
    <glyph glyph-name="dollar" unicode="$" horiz-adv-x="579" 
d="M174 550q0 -40 22 -69t78 -59l13 232q-52 -7 -82.5 -34.5t-30.5 -69.5zM433 168q0 45 -21.5 76t-82.5 65l-14 -253q24 4 52 16t47 38t19 58zM501 676v-140h-48l-35 110q-35 8 -71 10l-14 -263q99 -48 137.5 -94.5t38.5 -112.5q0 -75 -53.5 -124.5t-142.5 -59.5l-9 -164
l-60 3l8 160q-42 2 -93 15t-89 30v142h48l31 -105q20 -10 50 -18t56 -11l15 284l-12 6q-84 39 -121.5 84t-37.5 107q0 43 20.5 79t63 62t106.5 32l5 88l60 -3l-4 -85q37 -3 80 -12t71 -20z" />
    <glyph glyph-name="percent" unicode="%" horiz-adv-x="923" 
d="M221 722q80 0 125.5 -53t45.5 -149q0 -97 -45.5 -149t-125.5 -52t-125.5 52t-45.5 149q0 96 45.5 149t125.5 53zM221 678q-28 0 -49.5 -17t-34.5 -53t-13 -88q0 -34 8.5 -72t32 -61.5t56.5 -23.5q28 0 49.5 17t34.5 52.5t13 87.5q0 73 -26.5 115.5t-70.5 42.5zM702 395
q80 0 125.5 -53t45.5 -149q0 -97 -45.5 -149t-125.5 -52t-125.5 52t-45.5 149q0 96 45.5 149t125.5 53zM702 351q-28 0 -49.5 -17t-34.5 -53t-13 -88q0 -34 8.5 -72t32 -61.5t56.5 -23.5q28 0 49.5 17t34.5 52.5t13 87.5q0 73 -26.5 115.5t-70.5 42.5zM669 715l-350 -715
h-64l350 715h64z" />
    <glyph glyph-name="ampersand" unicode="&#x26;" horiz-adv-x="780" 
d="M301 723q66 0 108.5 -38t42.5 -98q0 -50 -28.5 -94.5t-111.5 -103.5q16 -17 65 -62l134 -118q64 86 105 206l-55 24v30h179v-30l-63 -33q-55 -138 -123 -232q131 -107 177 -111v-52q-24 -21 -53 -21q-34 0 -64 26l-112 95q-57 -59 -121 -90t-130 -31q-30 0 -63.5 9.5
t-66.5 35.5t-49.5 64t-16.5 75q0 53 32.5 103t124.5 113q-41 51 -59.5 92t-18.5 77q0 70 48 117t119 47zM214 566q0 -24 10.5 -55.5t48.5 -78.5q71 51 94 88.5t23 72.5q0 34 -23.5 56t-59.5 22q-43 0 -68 -28.5t-25 -76.5zM274 58q45 0 93 23.5t92 67.5q-138 121 -208 197
q-37 -27 -62 -54.5t-35.5 -57.5t-10.5 -55q0 -52 36.5 -86.5t94.5 -34.5z" />
    <glyph glyph-name="quotesingle" unicode="'" horiz-adv-x="188" 
d="M138 715l-18 -231h-52l-18 231h88z" />
    <glyph glyph-name="parenleft" unicode="(" horiz-adv-x="352" 
d="M156 298q0 -125 42.5 -227.5t138.5 -221.5l-25 -22q-89 85 -139.5 161t-74 151.5t-23.5 158.5t23.5 158.5t74 151.5t139.5 161l25 -22q-96 -119 -138.5 -221.5t-42.5 -227.5z" />
    <glyph glyph-name="parenright" unicode=")" horiz-adv-x="352" 
d="M196 298q0 125 -42.5 227.5t-138.5 221.5l25 22q89 -85 139.5 -161t74 -151.5t23.5 -158.5t-23.5 -158.5t-74 -151.5t-139.5 -161l-25 22q96 119 138.5 221.5t42.5 227.5z" />
    <glyph glyph-name="asterisk" unicode="*" horiz-adv-x="399" 
d="M228 710l-7 -141l117 55l21 -51l-124 -41l93 -111l-47 -33l-82 120l-81 -120l-47 33l93 111l-124 41l21 51l117 -55l-7 141h57z" />
    <glyph glyph-name="plus" unicode="+" horiz-adv-x="550" 
d="M300 537v-181h180v-48h-180v-181h-50v181h-180v48h180v181h50z" />
    <glyph glyph-name="comma" unicode="," horiz-adv-x="257" 
d="M129 110q27 0 45 -17.5t18 -47.5q0 -27 -13 -58.5t-38.5 -64t-66.5 -63.5l-24 24q56 56 75 108q-12 1 -25.5 7t-22.5 20.5t-9 34.5q0 24 18.5 40.5t42.5 16.5z" />
    <glyph glyph-name="hyphen" unicode="-" horiz-adv-x="370" 
d="M335 300v-52h-300v52h300z" />
    <glyph glyph-name="period" unicode="." horiz-adv-x="270" 
d="M137 120q24 0 43.5 -19.5t19.5 -43.5q0 -26 -19 -46.5t-44 -20.5q-27 0 -47 20t-20 47q0 25 20.5 44t46.5 19z" />
    <glyph glyph-name="slash" unicode="/" horiz-adv-x="418" 
d="M398 764l-298 -895h-80l298 895h80z" />
    <glyph glyph-name="zero" unicode="0" horiz-adv-x="578" 
d="M289 557q52 0 98.5 -21t80 -59t52 -90t18.5 -111q0 -58 -18.5 -110t-52 -90t-80 -59t-98.5 -21t-98.5 21t-80 59t-52 90t-18.5 110t18.5 110t52 90.5t80 59.5t98.5 21zM289 497q-74 0 -120.5 -61.5t-46.5 -159.5q0 -99 46.5 -159.5t120.5 -60.5t120.5 60.5t46.5 159.5
q0 98 -46.5 159.5t-120.5 61.5z" />
    <glyph glyph-name="one" unicode="1" horiz-adv-x="346" 
d="M221 558v-503l90 -25v-30h-261v30l94 25v411h-104l-10 30l147 62h44z" />
    <glyph glyph-name="two" unicode="2" horiz-adv-x="489" 
d="M236 557q60 0 101.5 -20t62.5 -53.5t21 -80.5q0 -71 -69 -155.5t-199 -175.5h311v-72h-400l-24 63l30 22q153 112 210 182t57 133q0 48 -32 72.5t-79 24.5q-22 0 -47 -6.5t-44 -17.5l-27 -76h-48v117q35 20 81.5 31.5t94.5 11.5z" />
    <glyph glyph-name="three" unicode="3" horiz-adv-x="462" 
d="M216 557q84 0 132 -41t48 -118q0 -38 -19 -73.5t-49.5 -56t-59.5 -28.5q49 -9 82.5 -31t50 -54t16.5 -67q0 -89 -93.5 -159t-282.5 -112l-11 52q152 34 229.5 89.5t77.5 129.5q0 40 -23 67t-63.5 41t-100.5 14h-13v56h28q48 0 81.5 16t51.5 45t18 64q0 21 -9 46.5
t-38 42.5t-80 17q-36 0 -69 -10l-31 -90h-48v122q85 38 175 38z" />
    <glyph glyph-name="four" unicode="4" horiz-adv-x="565" 
d="M432 558v-450h108v-72h-108v-210h-75v210h-317l-20 48l346 474h66zM357 108v338l-247 -338h247z" />
    <glyph glyph-name="five" unicode="5" horiz-adv-x="478" 
d="M433 558l-10 -72h-250l-27 -184l39 1q107 0 171.5 -53t64.5 -141q0 -108 -98.5 -180.5t-296.5 -111.5l-11 52q153 28 237 88.5t84 143.5q0 67 -50.5 104.5t-150.5 37.5h-56l44 315h310z" />
    <glyph glyph-name="six" unicode="6" horiz-adv-x="534" 
d="M274 51q40 0 70.5 23t47.5 61t17 89q0 164 -159 164q-22 0 -51 -9.5t-52 -24.5q-13 -49 -13 -102t16 -101t49.5 -74t74.5 -26zM271 -10q-38 0 -77 13.5t-74.5 49.5t-52.5 89t-17 106q0 159 94.5 281.5t280.5 188.5l18 -55q-104 -37 -171.5 -100t-100.5 -138q51 23 101 23
q98 0 157.5 -59t59.5 -156q0 -43 -11 -86.5t-37.5 -78t-69 -56.5t-100.5 -22z" />
    <glyph glyph-name="seven" unicode="7" horiz-adv-x="488" 
d="M468 558v-61l-303 -630h-88l315 619h-275l-29 -93h-48v165h428z" />
    <glyph glyph-name="eight" unicode="8" horiz-adv-x="547" 
d="M273 690q87 0 141 -45t54 -118q0 -52 -31 -99.5t-82 -74.5q48 -25 78.5 -50t47 -56.5t16.5 -71.5q0 -81 -64 -134.5t-162 -53.5q-47 0 -88 13t-71 36.5t-46 56.5t-16 71q0 26 12 60.5t44.5 67t75.5 51.5l7 3q-38 21 -65 47.5t-38.5 57.5t-11.5 63q0 28 10 58t34 56t63 44
t92 18zM156 531q0 -40 28 -74t112 -75q41 24 65.5 62t24.5 81q0 49 -32.5 78t-85.5 29q-23 0 -49 -9.5t-44.5 -34.5t-18.5 -57zM275 45q61 0 99.5 29t38.5 86q0 14 -4.5 31.5t-17 34t-37 34.5t-108.5 57q-51 -27 -81 -68.5t-30 -90.5q0 -40 22.5 -66.5t55 -36.5t62.5 -10z
" />
    <glyph glyph-name="nine" unicode="9" horiz-adv-x="534" 
d="M263 557q38 0 77 -13.5t74.5 -49.5t52.5 -89t17 -106q0 -159 -94.5 -281.5t-280.5 -188.5l-18 55q104 37 171.5 100t100.5 138q-51 -23 -101 -23q-98 0 -157.5 59t-59.5 156q0 43 11 86.5t37.5 78t69 56.5t100.5 22zM260 496q-40 0 -70.5 -23t-47.5 -61t-17 -89
q0 -164 159 -164q22 0 51 9.5t52 24.5q13 49 13 102t-16 101t-49.5 74t-74.5 26z" />
    <glyph glyph-name="colon" unicode=":" horiz-adv-x="270" 
d="M137 120q24 0 43.5 -19.5t19.5 -43.5q0 -26 -19 -46.5t-44 -20.5q-27 0 -47 20t-20 47q0 25 20.5 44t46.5 19zM137 500q24 0 43.5 -19.5t19.5 -43.5q0 -26 -19 -46.5t-44 -20.5q-27 0 -47 20t-20 47q0 25 20.5 44t46.5 19z" />
    <glyph glyph-name="semicolon" unicode=";" horiz-adv-x="270" 
d="M137 500q24 0 43.5 -19.5t19.5 -43.5q0 -26 -19 -46.5t-44 -20.5q-27 0 -47 20t-20 47q0 25 20.5 44t46.5 19zM134 110q27 0 45 -17.5t18 -47.5q0 -27 -13 -58.5t-38.5 -64t-66.5 -63.5l-24 24q56 56 75 108q-12 1 -25.5 7t-22.5 20.5t-9 34.5q0 24 18.5 40.5t42.5 16.5z
" />
    <glyph glyph-name="less" unicode="&#x3c;" horiz-adv-x="550" 
d="M447 545l22 -42l-340 -171l340 -171l-22 -42l-367 185v56z" />
    <glyph glyph-name="equal" unicode="=" horiz-adv-x="550" 
d="M480 455v-48h-410v48h410zM480 257v-48h-410v48h410z" />
    <glyph glyph-name="greater" unicode="&#x3e;" horiz-adv-x="550" 
d="M103 119l-22 42l340 171l-340 171l22 42l367 -185v-56z" />
    <glyph glyph-name="question" unicode="?" horiz-adv-x="475" 
d="M212 728q46 0 88 -12t73 -35t49 -58t18 -78q0 -35 -9.5 -67t-32.5 -61.5t-70.5 -57t-64 -38.5t-24 -24.5t-8.5 -25.5l-2 -39h-52l-2 19l-3 47q0 23 14.5 39t50 37t49 31t24 21t19 24.5t15 34t6.5 49.5q0 42 -21 74.5t-59.5 47t-79.5 14.5q-30 0 -63 -9l-34 -109h-48v145
q33 12 81 21.5t86 9.5zM206 111q24 0 42 -18t18 -42t-18 -42.5t-42 -18.5t-42.5 18.5t-18.5 42.5t18.5 42t42.5 18z" />
    <glyph glyph-name="at" unicode="@" horiz-adv-x="790" 
d="M420 456q47 0 81 -13l49 12l-28 -277l-1 -15q0 -16 11 -27t29 -11q27 0 59.5 26t53 75t20.5 102q0 62 -21.5 110t-59 79t-85 46t-98.5 15q-69 0 -128.5 -23.5t-102 -69.5t-65.5 -112.5t-23 -148.5q0 -68 21.5 -121.5t60.5 -88t92 -52t115 -17.5q76 0 142 20v-44
q-29 -11 -72.5 -17.5t-78.5 -6.5q-69 0 -130 21.5t-106 63t-70 103t-25 138.5q0 93 27 167.5t76 125.5t117.5 77t149.5 26q63 0 120.5 -19t101 -56t68.5 -91t25 -121q0 -48 -13.5 -94t-39.5 -82t-64 -57.5t-85 -21.5q-23 0 -45 13t-33 33q-45 -46 -109 -46q-35 0 -62 19.5
t-41 51t-14 71.5q0 107 49.5 172t131.5 65zM423 414q-57 0 -88.5 -49.5t-31.5 -139.5q0 -50 19 -76t51 -26q22 0 44.5 14t41.5 38l24 229q-27 10 -60 10z" />
    <glyph glyph-name="A" unicode="A" horiz-adv-x="722" 
d="M414 715l214 -658l79 -22v-35h-252v35l89 22l-54 165h-269l-62 -165l71 -22v-35h-215v35l70 22l265 658h64zM474 272l-109 336l-126 -336h235z" />
    <glyph glyph-name="B" unicode="B" horiz-adv-x="652" 
d="M322 715q74 0 125 -22t78 -60.5t27 -94.5q0 -27 -11.5 -60.5t-42.5 -63t-72 -43.5q33 -7 72.5 -25.5t66.5 -56t27 -87.5q0 -65 -28 -109t-84 -68.5t-145 -24.5h-265v35l79 22v601l-79 22v35h252zM304 665h-75v-276h73q85 0 126.5 39.5t41.5 108.5q0 62 -42 95t-124 33z
M320 339h-91v-289h92q90 0 137.5 38t47.5 107q0 70 -50 107t-136 37z" />
    <glyph glyph-name="C" unicode="C" horiz-adv-x="660" 
d="M395 723q45 0 99 -9t93 -24v-144h-48l-36 103q-54 14 -101 14q-59 0 -106 -18.5t-80 -56.5t-50 -96t-17 -133q0 -153 65 -231t193 -78q32 0 63 5t71 28l21 95h48v-130q-89 -58 -221 -58q-159 0 -244 94.5t-85 269.5q0 84 23.5 153.5t67 117.5t106 73t138.5 25z" />
    <glyph glyph-name="D" unicode="D" horiz-adv-x="767" 
d="M345 715q77 0 143.5 -19.5t115 -59.5t76 -104t27.5 -148q0 -95 -26 -168.5t-74 -121t-115 -71t-147 -23.5h-275v35l79 22v601l-79 22v35h275zM316 661h-87v-607h87q66 0 121.5 18.5t96 56.5t63 98.5t22.5 139.5q0 76 -20 132.5t-58.5 92t-95 52.5t-129.5 17z" />
    <glyph glyph-name="E" unicode="E" horiz-adv-x="646" 
d="M567 715v-162h-48l-32 112h-258v-281h172l20 72h38v-194h-38l-20 72h-172v-284h282l32 112h48v-162h-521v35l79 22v601l-79 22v35h497z" />
    <glyph glyph-name="F" unicode="F" horiz-adv-x="562" 
d="M527 715v-162h-48l-32 112h-218v-301h172l20 72h38v-194h-38l-20 72h-172v-257l89 -22v-35h-248v35l79 22v601l-79 22v35h457z" />
    <glyph glyph-name="G" unicode="G" horiz-adv-x="704" 
d="M395 723q45 0 99 -9t93 -24v-144h-48l-36 103q-54 14 -101 14q-59 0 -106 -18.5t-80 -56.5t-50 -96t-17 -133q0 -153 65 -231t191 -78q69 0 116 22v214l-88 22v35h226v-35l-58 -22v-244q-90 -52 -206 -52q-71 0 -123.5 17.5t-90 45t-64.5 70t-42 101t-15 130.5
q0 84 23.5 153.5t67 117.5t106 73t138.5 25z" />
    <glyph glyph-name="H" unicode="H" horiz-adv-x="806" 
d="M308 715v-35l-79 -22v-268h348v268l-79 22v35h238v-35l-79 -22v-601l79 -22v-35h-238v35l79 22v283h-348v-283l79 -22v-35h-238v35l79 22v601l-79 22v35h238z" />
    <glyph glyph-name="I" unicode="I" horiz-adv-x="378" 
d="M308 715v-35l-79 -22v-601l79 -22v-35h-238v35l79 22v601l-79 22v35h238z" />
    <glyph glyph-name="J" unicode="J" horiz-adv-x="361" 
d="M306 715v-35l-79 -22v-498q0 -79 -7.5 -140t-34.5 -113q-34 -63 -140 -136l-25 31q78 72 102.5 138t24.5 163v555l-79 22v35h238z" />
    <glyph glyph-name="K" unicode="K" horiz-adv-x="662" 
d="M308 715v-35l-79 -22v-601l79 -22v-35h-238v35l79 22v601l-79 22v35h238zM625 715v-35l-59 -22l-204 -273l216 -328l69 -22v-35h-131l-237 367l216 291l-59 22v35h189z" />
    <glyph glyph-name="L" unicode="L" horiz-adv-x="623" 
d="M318 715v-35l-89 -22v-608h243l48 152h48v-202h-498v35l79 22v601l-79 22v35h248z" />
    <glyph glyph-name="M" unicode="M" horiz-adv-x="1014" 
d="M944 715v-35l-79 -22v-601l79 -22v-35h-232v35l79 22v542l-260 -519l-64 -11l-260 537v-549l79 -22v-35h-216v35l79 22v601l-79 22v35h179l259 -554l278 554h158z" />
    <glyph glyph-name="N" unicode="N" horiz-adv-x="808" 
d="M758 715v-35l-79 -22v-658l-54 -10l-421 608v-541l79 -22v-35h-213v35l79 22v601l-79 22v35h146l409 -587v530l-79 22v35h212z" />
    <glyph glyph-name="O" unicode="O" horiz-adv-x="742" 
d="M385 723q67 0 122.5 -25t94.5 -73t59.5 -116t20.5 -151q0 -85 -22 -154t-64 -116.5t-103 -72.5t-136 -25q-67 0 -122.5 25t-94.5 73t-59.5 116t-20.5 151q0 85 22 154t64 116.5t103 72.5t136 25zM359 663q-102 0 -157.5 -79.5t-55.5 -226.5q0 -307 237 -307
q102 0 157.5 79.5t55.5 226.5q0 307 -237 307z" />
    <glyph glyph-name="P" unicode="P" horiz-adv-x="611" 
d="M274 665h-45v-338h65q96 0 145 40t49 132q0 35 -7.5 62.5t-24.5 49.5t-57.5 38t-124.5 16zM309 715q60 0 108.5 -12.5t82.5 -38t52.5 -65t18.5 -92.5q0 -107 -66 -168.5t-191 -61.5h-85v-220l89 -22v-35h-248v35l79 22v601l-79 22v35h239z" />
    <glyph glyph-name="Q" unicode="Q" horiz-adv-x="742" 
d="M371 723q76 0 135 -25.5t98 -73.5t58.5 -116t19.5 -150q0 -72 -14.5 -133.5t-44 -108t-74 -77t-101.5 -42.5q37 -31 85.5 -53.5t86.5 -22.5q34 0 66 13l16 -61q-43 -30 -93 -30q-20 0 -51.5 11.5t-71 39.5t-73.5 63l-32 33h-10q-75 0 -134 25.5t-98.5 73.5t-59 116
t-19.5 150q0 83 19.5 151.5t58 116.5t98 74t135.5 26zM371 663q-117 0 -171 -77t-54 -229q0 -153 53.5 -230t171.5 -77q58 0 101 20t70.5 58.5t40.5 96t13 131.5q0 153 -54 230t-171 77z" />
    <glyph glyph-name="R" unicode="R" horiz-adv-x="662" 
d="M320 715q82 0 136 -23.5t81.5 -64.5t27.5 -101q0 -30 -12 -66.5t-45.5 -69t-80.5 -49.5l146 -286l64 -22v-33h-137l-155 324l-32 -1h-87v-266l79 -22v-35h-235v35l79 22v601l-79 22v35h250zM285 665h-59v-292h96q159 0 159 145q0 147 -196 147z" />
    <glyph glyph-name="S" unicode="S" horiz-adv-x="582" 
d="M303 723q42 0 98 -10t90 -25v-153h-48l-37 113q-49 15 -105 15q-66 0 -104 -28t-38 -77q0 -43 30.5 -76t117.5 -78q116 -59 163 -108t47 -110q0 -87 -65 -141.5t-170 -54.5q-47 0 -103.5 12.5t-108.5 36.5v159h48l37 -123q30 -11 65.5 -18t58.5 -7q33 0 70.5 10.5
t62.5 37.5t25 64q0 34 -13 58.5t-50 51t-126 71.5t-128 91t-39 106q0 84 60 133.5t162 49.5z" />
    <glyph glyph-name="T" unicode="T" horiz-adv-x="654" 
d="M629 715v-165h-48l-29 115h-185v-608l89 -22v-35h-258v35l89 22v608h-185l-29 -115h-48v165h604z" />
    <glyph glyph-name="U" unicode="U" horiz-adv-x="729" 
d="M689 715v-35l-79 -22v-406q0 -64 -18 -114t-51 -83t-78 -49t-98 -16q-51 0 -96 16t-78.5 48t-52.5 80.5t-19 110.5v413l-79 22v35h238v-35l-79 -22v-404q0 -102 44.5 -154t140.5 -52q50 0 87.5 23t59 66.5t21.5 109.5v411l-79 22v35h216z" />
    <glyph glyph-name="V" unicode="V" horiz-adv-x="716" 
d="M701 715v-35l-59 -22l-242 -658h-69l-257 658l-59 22v35h228v-35l-79 -22l208 -562l203 562l-69 22v35h195z" />
    <glyph glyph-name="W" unicode="W" horiz-adv-x="1035" 
d="M1020 715v-35l-80 -22l-199 -658h-70l-162 531l-153 -531h-70l-192 658l-79 22v35h253v-35l-89 -22l152 -533l148 519h80l158 -526l154 540l-89 22v35h238z" />
    <glyph glyph-name="X" unicode="X" horiz-adv-x="691" 
d="M290 715v-35l-89 -22l154 -233l173 233l-89 22v35h231v-35l-71 -22l-208 -280l211 -321l69 -22v-35h-253v35l89 22l-169 267l-183 -267l89 -22v-35h-224v35l59 22l221 312l-194 289l-85 22v35h269z" />
    <glyph glyph-name="Y" unicode="Y" horiz-adv-x="633" 
d="M618 715v-35l-69 -22l-176 -356v-245l79 -22v-35h-238v35l79 22v250l-199 351l-79 22v35h249v-35l-79 -22l163 -295l138 298l-59 19v35h191z" />
    <glyph glyph-name="Z" unicode="Z" horiz-adv-x="653" 
d="M584 715l9 -50l-435 -604h351l31 108h48v-169h-526l-7 48l438 606h-325l-31 -106h-48v167h495z" />
    <glyph glyph-name="bracketleft" unicode="[" horiz-adv-x="297" 
d="M287 784v-40h-111v-894h111v-40h-187v974h187z" />
    <glyph glyph-name="backslash" unicode="\" horiz-adv-x="418" 
d="M318 -131l-298 895h80l298 -895h-80z" />
    <glyph glyph-name="bracketright" unicode="]" horiz-adv-x="297" 
d="M10 -190v40h111v894h-111v40h187v-974h-187z" />
    <glyph glyph-name="asciicircum" unicode="^" horiz-adv-x="550" 
d="M308 615l152 -391h-58l-126 342l-129 -342h-58l155 391h64z" />
    <glyph glyph-name="underscore" unicode="_" horiz-adv-x="420" 
d="M420 -60v-50h-420v50h420z" />
    <glyph glyph-name="grave" unicode="`" horiz-adv-x="500" 
d="M235 772l95 -170l-33 -24l-126 146z" />
    <glyph glyph-name="a" unicode="a" 
d="M249 523q56 0 95 -17t60.5 -50.5t21.5 -85.5v-265q0 -30 8.5 -43t27.5 -13q18 0 40 6v-38q-14 -10 -33 -16t-36 -6q-36 0 -58.5 21.5t-22.5 53.5q-77 -75 -168 -75q-43 0 -76 20.5t-45.5 50t-12.5 55.5q0 55 28 90.5t94 57.5t180 28v70q0 55 -32.5 79.5t-82.5 24.5
q-37 0 -77 -10l-25 -80h-48v115q35 11 80 19t82 8zM207 49q34 0 72 19t73 54v127q-68 -2 -118 -14t-79 -37t-29 -71q0 -35 23 -56.5t58 -21.5z" />
    <glyph glyph-name="b" unicode="b" horiz-adv-x="571" 
d="M173 750v-284q62 57 145 57q61 0 105.5 -29.5t71 -83.5t26.5 -126q0 -61 -17.5 -114t-50.5 -92t-81.5 -61t-106.5 -22q-87 0 -166 35v646l-84 17v30zM255 43q89 0 140.5 61.5t51.5 161.5q0 48 -17.5 95t-55 73.5t-84.5 26.5q-65 0 -117 -43v-360q42 -15 82 -15z" />
    <glyph glyph-name="c" unicode="c" horiz-adv-x="497" 
d="M310 523q60 0 121 -19v-127h-48l-26 90q-24 4 -70 4q-25 0 -52.5 -10t-51.5 -34.5t-40.5 -64t-16.5 -93.5q0 -101 50 -158t139 -57q85 0 137 29v-48q-27 -21 -71 -33t-95 -12q-53 0 -97 18t-75 51.5t-47.5 80.5t-16.5 104q0 134 68 206.5t192 72.5z" />
    <glyph glyph-name="d" unicode="d" horiz-adv-x="587" 
d="M473 750v-686l84 -17v-30l-158 -27v60q-64 -55 -143 -55q-45 0 -83 17t-65.5 50t-42.5 82t-15 109q0 59 17.5 109.5t50 86t78.5 55t101 19.5q51 0 102 -16v169l-84 17v30zM284 57q67 0 115 44v351q-52 23 -102 23q-79 0 -126 -55t-47 -149q0 -101 42.5 -157.5
t117.5 -56.5z" />
    <glyph glyph-name="e" unicode="e" 
d="M283 523q87 0 138 -56.5t51 -157.5q0 -32 -4 -52h-342q2 -94 52 -148.5t140 -54.5q88 0 140 29v-48q-27 -21 -72 -33t-94 -12q-57 0 -102.5 18t-76.5 52t-47 81.5t-16 104.5q0 129 63.5 203t169.5 74zM279 471q-137 0 -152 -166h273v19q0 69 -33 108t-88 39z" />
    <glyph glyph-name="f" unicode="f" horiz-adv-x="327" 
d="M303 515v-50h-114v-410l84 -25v-30h-232v27l74 28v410h-80v50h80v8q0 112 48.5 172t135.5 60q35 0 83 -14l-15 -63q-45 15 -92 15q-28 0 -48.5 -14t-29 -39t-8.5 -54v-71h114z" />
    <glyph glyph-name="g" unicode="g" horiz-adv-x="530" 
d="M256 523q57 0 99 -21l170 24v-66l-120 5q42 -48 42 -120q0 -81 -51.5 -129t-139.5 -48q-53 0 -94 18q-12 -11 -19.5 -24.5t-7.5 -23.5q0 -21 22.5 -31.5t82.5 -10.5h91q91 0 129 -32t38 -93q0 -34 -14.5 -69t-47.5 -64t-82.5 -48t-110.5 -19q-33 0 -68 8t-62 25
t-42.5 43.5t-15.5 60.5q0 40 25.5 72t70.5 51q-36 6 -59 25t-23 48q0 64 59 103q-30 22 -46.5 58.5t-16.5 80.5q0 81 51.5 129t139.5 48zM256 475q-23 0 -49.5 -12t-45 -43t-18.5 -72q0 -26 11 -57.5t39 -53t63 -21.5q23 0 49.5 12t45 43t18.5 72q0 26 -11 57.5t-39 53
t-63 21.5zM249 -179q48 0 88.5 16t63 45.5t22.5 69.5q0 21 -9 39.5t-33 27.5t-59 9h-98q-46 -14 -73 -42.5t-27 -66.5q0 -50 35 -74t90 -24z" />
    <glyph glyph-name="h" unicode="h" horiz-adv-x="616" 
d="M188 750v-293q40 31 87 48.5t92 17.5q150 0 150 -166v-302l74 -25v-30h-212v30l64 25v290q0 114 -109 114q-31 0 -70 -15t-76 -41v-348l64 -25v-30h-212v30l74 25v621l-84 17v30z" />
    <glyph glyph-name="i" unicode="i" horiz-adv-x="302" 
d="M198 517v-462l74 -25v-30h-222v30l74 25v388l-84 17v30zM153 723q23 0 39.5 -16.5t16.5 -39.5t-16.5 -39.5t-39.5 -16.5t-39.5 16.5t-16.5 39.5t16.5 39.5t39.5 16.5z" />
    <glyph glyph-name="j" unicode="j" horiz-adv-x="293" 
d="M197 517v-379q0 -75 -6.5 -132t-31.5 -104q-35 -65 -128 -129l-26 31q72 66 95 128t23 153v358l-84 17v30zM152 723q23 0 39.5 -16.5t16.5 -39.5t-16.5 -39.5t-39.5 -16.5t-39.5 16.5t-16.5 39.5t16.5 39.5t39.5 16.5z" />
    <glyph glyph-name="k" unicode="k" horiz-adv-x="545" 
d="M188 750v-695l64 -25v-30h-212v30l74 25v621l-84 17v30zM522 515v-30l-59 -22l-147 -163l167 -246l57 -24v-30h-122l-180 276l164 187l-57 22v30h177z" />
    <glyph glyph-name="l" unicode="l" horiz-adv-x="302" 
d="M188 750v-695l74 -25v-30h-222v30l74 25v621l-84 17v30z" />
    <glyph glyph-name="m" unicode="m" horiz-adv-x="925" 
d="M198 522v-63q38 30 82.5 47t87.5 17q99 0 129 -76q41 36 89.5 56t95.5 20q144 0 144 -166v-302l74 -25v-30h-212v30l64 25v290q0 114 -103 114q-30 0 -67 -15t-73 -42q3 -21 3 -45v-302l64 -25v-30h-202v30l64 25v290q0 114 -103 114q-22 0 -57 -11.5t-80 -43.5v-349
l64 -25v-30h-212v30l74 25v388l-84 17v30z" />
    <glyph glyph-name="n" unicode="n" horiz-adv-x="626" 
d="M198 522v-65q40 31 87 48.5t92 17.5q150 0 150 -166v-302l74 -25v-30h-212v30l64 25v290q0 114 -109 114q-31 0 -70 -15t-76 -41v-348l64 -25v-30h-212v30l74 25v388l-84 17v30z" />
    <glyph glyph-name="o" unicode="o" horiz-adv-x="552" 
d="M283 523q43 0 83 -17t70.5 -50.5t48 -84.5t17.5 -114q0 -64 -18 -114.5t-50 -84t-74.5 -50.5t-90.5 -17q-43 0 -83 17t-70.5 50.5t-48 84.5t-17.5 114q0 64 18 114.5t50 84t74.5 50.5t90.5 17zM268 475q-36 0 -69.5 -23.5t-52 -72t-18.5 -106.5q0 -116 42 -175t114 -59
q36 0 69.5 23.5t52 72t18.5 106.5q0 116 -42 175t-114 59z" />
    <glyph glyph-name="p" unicode="p" horiz-adv-x="586" 
d="M188 522v-56q62 57 145 57q61 0 105.5 -29.5t71 -83.5t26.5 -126q0 -61 -17.5 -114t-50.5 -92t-81.5 -61t-106.5 -22q-45 0 -92 10v-173l74 -22v-30h-212v30l64 22v611l-84 17v30zM270 43q89 0 140.5 61.5t51.5 161.5q0 48 -17.5 95t-55 73.5t-84.5 26.5q-65 0 -117 -43
v-360q42 -15 82 -15z" />
    <glyph glyph-name="q" unicode="q" horiz-adv-x="556" 
d="M472 521v-689l64 -22v-30h-212v30l74 22v217q-63 -54 -142 -54q-45 0 -83 17t-65.5 50t-42.5 82t-15 109q0 59 17.5 109.5t50 86t78.5 55t101 19.5q56 0 109 -18zM284 57q65 0 114 43v352q-52 23 -101 23q-79 0 -126 -55t-47 -149q0 -101 42.5 -157.5t117.5 -56.5z" />
    <glyph glyph-name="r" unicode="r" horiz-adv-x="425" 
d="M371 523q25 0 49 -7l-14 -83q-24 6 -56 6q-38 0 -78.5 -23t-73.5 -62v-299l94 -25v-30h-242v30l74 25v388l-84 17v30l158 32v-121q39 63 83 92.5t90 29.5z" />
    <glyph glyph-name="s" unicode="s" horiz-adv-x="449" 
d="M231 523q63 0 147 -30v-114h-48l-27 88q-12 5 -36 8.5t-42 3.5q-43 0 -71 -20.5t-28 -51.5q0 -19 8 -38t35.5 -36.5t87.5 -40.5q72 -27 104.5 -63t32.5 -92q0 -38 -21 -70.5t-62 -54.5t-98 -22q-38 0 -79 9.5t-76 26.5v116h48l26 -83q14 -8 38.5 -14.5t43.5 -6.5
q49 0 77.5 22.5t28.5 61.5q0 36 -29 62.5t-100 53.5q-81 32 -108.5 64t-27.5 86q0 22 8.5 45t29.5 43t55.5 33.5t82.5 13.5z" />
    <glyph glyph-name="t" unicode="t" horiz-adv-x="327" 
d="M174 643v-128h130v-50h-130v-344q0 -35 16.5 -51t49.5 -16q45 0 82 11v-42q-27 -14 -60 -23.5t-58 -9.5q-50 0 -77 30t-27 84v361h-80v50h80v112z" />
    <glyph glyph-name="u" unicode="u" horiz-adv-x="601" 
d="M173 521v-348q0 -114 109 -114q32 0 73 20t73 51v320l-74 15v30l148 26v-457l84 -17v-30l-158 -27v91q-35 -40 -84 -63t-101 -23q-69 0 -106.5 43t-37.5 123v289l-74 15v30z" />
    <glyph glyph-name="v" unicode="v" horiz-adv-x="545" 
d="M555 515v-30l-64 -25l-177 -460h-68l-187 460l-64 25v30h207v-30l-64 -26l154 -379l139 380l-64 25v30h188z" />
    <glyph glyph-name="w" unicode="w" horiz-adv-x="760" 
d="M770 515v-30l-64 -25l-141 -460h-58l-118 348l-121 -348h-58l-159 460l-56 25v30h201v-31l-64 -25l120 -357l127 372h44l117 -368l106 354l-66 25v30h190z" />
    <glyph glyph-name="x" unicode="x" horiz-adv-x="563" 
d="M251 515v-31l-71 -24l119 -160l128 160l-58 25v30h174v-30l-54 -25l-152 -188l166 -223l50 -19v-30h-214v31l73 25l-132 177l-144 -178l58 -25v-30h-184v30l64 25l169 206l-149 199l-74 25v30h231z" />
    <glyph glyph-name="y" unicode="y" horiz-adv-x="502" 
d="M512 515v-30l-54 -25l-172 -422q-51 -126 -115 -194.5t-138 -68.5q-38 0 -65 12l17 66q24 -10 51 -10q55 0 101.5 44.5t91.5 141.5h-19l-161 431l-54 25v30h206v-30l-74 -26l133 -371l138 372l-64 25v30h178z" />
    <glyph glyph-name="z" unicode="z" horiz-adv-x="488" 
d="M435 515l8 -40l-304 -425h235l26 70h48v-120h-395l-8 40l306 425h-212l-30 -82h-48v132h374z" />
    <glyph glyph-name="braceleft" unicode="{" horiz-adv-x="355" 
d="M315 781v-39q-40 -8 -61 -33.5t-21 -61.5q0 -27 9 -92t9 -95q0 -59 -27.5 -102t-99.5 -61q72 -18 99.5 -61t27.5 -102q0 -30 -9 -95t-9 -92q0 -36 21 -61.5t61 -33.5v-39h-8q-76 0 -113 32.5t-37 108.5q0 30 9 94.5t9 88.5q0 110 -115 144v32q115 34 115 144
q0 24 -9 88.5t-9 94.5q0 76 37 108.5t113 32.5h8z" />
    <glyph glyph-name="bar" unicode="|" horiz-adv-x="300" 
d="M190 886v-1060h-80v1060h80z" />
    <glyph glyph-name="braceright" unicode="}" horiz-adv-x="355" 
d="M40 -187v39q40 8 61 33.5t21 61.5q0 27 -9 92t-9 95q0 59 27.5 102t99.5 61q-72 18 -99.5 61t-27.5 102q0 30 9 95t9 92q0 36 -21 61.5t-61 33.5v39h8q76 0 113 -32.5t37 -108.5q0 -30 -9 -94.5t-9 -88.5q0 -110 115 -144v-32q-115 -34 -115 -144q0 -24 9 -88.5t9 -94.5
q0 -76 -37 -108.5t-113 -32.5h-8z" />
    <glyph glyph-name="asciitilde" unicode="~" horiz-adv-x="550" 
d="M470 402l46 -16q-7 -27 -22.5 -59t-38.5 -50.5t-40.5 -22.5t-29.5 -4q-19 0 -37.5 6.5t-36 16.5t-67 46.5t-85.5 36.5q-23 0 -42 -18.5t-37 -75.5l-46 16q7 27 22.5 59t38.5 50.5t40.5 22.5t29.5 4q19 0 37.5 -6.5t36 -16.5t67 -46.5t85.5 -36.5q23 0 42 18.5t37 75.5z
" />
    <glyph glyph-name="uni00A0" unicode="&#xa0;" horiz-adv-x="268" 
 />
    <glyph glyph-name="exclamdown" unicode="&#xa1;" horiz-adv-x="261" 
d="M85 -196l19 483h52l21 -483h-92zM130 408q-24 0 -42 18t-18 42t18 42.5t42 18.5t42.5 -18.5t18.5 -42.5t-18.5 -42t-42.5 -18z" />
    <glyph glyph-name="cent" unicode="&#xa2;" 
d="M126 269q0 -52 12.5 -92.5t38.5 -69.5t65 -42l22 400q-67 -8 -102.5 -57.5t-35.5 -138.5zM334 651l-7 -133q69 -5 124 -27v-114h-48l-22 78q-36 9 -57 11l-22 -412h10q37 0 81 8t79 28v-38q-33 -28 -79.5 -44t-94.5 -18l-8 -152l-60 3l8 152q-87 13 -137.5 78.5
t-50.5 172.5q0 78 24 135.5t72 94.5t121 44l7 136z" />
    <glyph glyph-name="sterling" unicode="&#xa3;" horiz-adv-x="585" 
d="M453 383v-50h-199v-39q0 -87 -25 -146.5t-64 -87.5h375v-60h-485v42q42 20 66 42.5t38.5 65.5t14.5 129v54h-119v50h119v75q0 139 47.5 202t148.5 63q31 0 73 -7.5t72 -20.5v-120h-58l-17 81q-13 3 -33 6t-30 3q-68 0 -95.5 -40t-27.5 -118v-124h199z" />
    <glyph glyph-name="currency" unicode="&#xa4;" horiz-adv-x="600" 
d="M299 546q31 0 61.5 -7.5t52.5 -19.5l86 94l41 -38l-84 -89q51 -56 51 -149q0 -45 -13.5 -83t-37.5 -64l84 -89l-41 -38l-86 93q-22 -12 -52.5 -19t-61.5 -7q-65 0 -113 25l-85 -92l-41 38l82 88q-51 54 -51 148t50 149l-81 89l41 38l84 -94q22 12 52.5 19.5t61.5 7.5z
M299 485q-68 0 -105.5 -39.5t-37.5 -107.5t37.5 -107.5t105.5 -39.5t105.5 39.5t37.5 107.5t-37.5 107.5t-105.5 39.5z" />
    <glyph glyph-name="yen" unicode="&#xa5;" horiz-adv-x="603" 
d="M588 715v-35l-69 -22l-113 -230h118v-50h-142l-31 -63v-38h173v-50h-173v-170l89 -22v-35h-258v35l89 22v170h-180v50h180v27l-37 74h-143v50h118l-115 230l-79 22v35h249v-35l-79 -22l133 -279l133 284l-54 17v35h191z" />
    <glyph glyph-name="brokenbar" unicode="&#xa6;" horiz-adv-x="300" 
d="M190 257v-431h-80v431h80zM190 886v-429h-80v429h80z" />
    <glyph glyph-name="section" unicode="&#xa7;" horiz-adv-x="574" 
d="M110 -182v123h38l37 -97q39 -12 78 -12q26 0 55.5 8.5t49 32.5t19.5 56t-25.5 63t-98 75.5t-90 57t-32 24.5t-31 29t-28.5 41.5t-12 54.5q0 41 26 80t73 69q-66 58 -66 128q0 27 10 56.5t35 55t66 43t97 17.5q40 0 79.5 -10t73.5 -28v-123h-38l-38 96q-41 13 -77 13
q-26 0 -55.5 -8.5t-49 -32.5t-19.5 -56t25.5 -63t98 -75.5t90 -57t32 -24.5t31 -29t28.5 -41.5t12 -54.5q0 -41 -26 -80t-73 -69q66 -58 66 -128q0 -27 -10 -56.5t-35 -55t-66 -43t-97 -17.5q-40 0 -79.5 10t-73.5 28zM154 306q0 -38 29 -70t96 -72.5t89 -55.5q52 43 52 89
q0 38 -29 70t-96 72.5t-89 55.5q-52 -43 -52 -89z" />
    <glyph glyph-name="dieresis" unicode="&#xa8;" horiz-adv-x="500" 
d="M160 715q21 0 36.5 -15.5t15.5 -36.5t-15.5 -36t-36.5 -15t-36 15t-15 36t15 36.5t36 15.5zM339 715q21 0 36.5 -15.5t15.5 -36.5t-15.5 -36t-36.5 -15t-36 15t-15 36t15 36.5t36 15.5z" />
    <glyph glyph-name="copyright" unicode="&#xa9;" horiz-adv-x="852" 
d="M425 720q74 0 141.5 -28t118 -77.5t79 -116.5t28.5 -141q0 -73 -28.5 -139.5t-79 -116.5t-118 -77.5t-141.5 -27.5q-73 0 -140.5 27.5t-117.5 77.5t-78.5 116.5t-28.5 139.5q0 74 28.5 141t78.5 116.5t117.5 77.5t140.5 28zM425 669q-63 0 -121 -24t-101.5 -67
t-68 -100.5t-24.5 -120.5t24.5 -120t68 -100t101.5 -67t121 -24q64 0 122 24t101.5 67t68 100t24.5 120t-24.5 120.5t-68 100.5t-101.5 67t-122 24zM441 547q24 0 55 -5t53 -13v-79h-32l-15 44q-27 10 -67 10q-128 0 -128 -153q0 -28 10 -61t41 -55.5t83 -22.5q41 0 72 13
l17 50h33v-72q-26 -18 -63.5 -27.5t-68.5 -9.5q-36 0 -69.5 11.5t-59.5 35t-41.5 59.5t-15.5 83q0 34 10 68t33.5 61.5t61.5 45t91 17.5z" />
    <glyph glyph-name="ordfeminine" unicode="&#xaa;" horiz-adv-x="430" 
d="M158 420q21 0 46.5 12t45.5 30v74q-70 -3 -102 -20t-32 -50q0 -23 11.5 -34.5t30.5 -11.5zM187 723q57 0 87 -26t30 -75v-167q0 -15 4 -26t20 -11q11 0 26 4v-33q-8 -6 -23.5 -10t-28.5 -4q-22 0 -36 12.5t-16 33.5q-19 -22 -45.5 -34t-53.5 -12q-26 0 -48 12.5t-30.5 33
t-8.5 39.5q0 54 46 81t140 30v40q0 70 -71 70q-25 0 -53 -7l-14 -45h-32v76q59 18 107 18zM370 309v-50h-310v50h310z" />
    <glyph glyph-name="guillemotleft" unicode="&#xab;" horiz-adv-x="504" 
d="M232 446l32 -29l-144 -165l144 -165l-32 -29l-182 170v48zM432 446l32 -29l-144 -165l144 -165l-32 -29l-182 170v48z" />
    <glyph glyph-name="logicalnot" unicode="&#xac;" horiz-adv-x="550" 
d="M485 446v-226h-54v176h-366v50h420z" />
    <glyph glyph-name="uni00AD" unicode="&#xad;" horiz-adv-x="370" 
d="M335 300v-52h-300v52h300z" />
    <glyph glyph-name="registered" unicode="&#xae;" horiz-adv-x="852" 
d="M425 720q74 0 141.5 -28t118 -77.5t79 -116.5t28.5 -141q0 -73 -28.5 -139.5t-79 -116.5t-118 -77.5t-141.5 -27.5q-73 0 -140.5 27.5t-117.5 77.5t-78.5 116.5t-28.5 139.5q0 74 28.5 141t78.5 116.5t117.5 77.5t140.5 28zM425 669q-63 0 -121 -24t-101.5 -67
t-68 -100.5t-24.5 -120.5t24.5 -120t68 -100t101.5 -67t121 -24q64 0 122 24t101.5 67t68 100t24.5 120t-24.5 120.5t-68 100.5t-101.5 67t-122 24zM427 508h-44v-149h30q50 0 70 21t20 58q0 70 -76 70zM427 544q29 0 61 -9.5t53.5 -35t21.5 -60.5q0 -74 -69 -99l61 -124
l44 -19v-25h-83l-71 157l-40 -2h-22v-114l44 -14v-27h-151v27l49 16v288l-43 13v28h145z" />
    <glyph glyph-name="macron" unicode="&#xaf;" horiz-adv-x="500" 
d="M404 672v-48h-310v48h310z" />
    <glyph glyph-name="degree" unicode="&#xb0;" horiz-adv-x="392" 
d="M196 761q56 0 96 -39.5t40 -94.5t-40 -95t-96 -40q-55 0 -95.5 40t-40.5 95t40.5 94.5t95.5 39.5zM196 723q-19 0 -41 -9.5t-37.5 -33.5t-15.5 -53q0 -18 9 -40.5t32.5 -39.5t52.5 -17q18 0 40 10t38 34.5t16 52.5q0 29 -15.5 53t-38 33.5t-40.5 9.5z" />
    <glyph glyph-name="plusminus" unicode="&#xb1;" horiz-adv-x="550" 
d="M300 560v-181h180v-48h-180v-181h-50v181h-180v48h180v181h50zM480 48v-48h-410v48h410z" />
    <glyph glyph-name="uni00B2" unicode="&#xb2;" horiz-adv-x="468" 
d="M238 723q29 0 65.5 -10t62.5 -40t26 -76q0 -56 -55 -124t-156 -139l240 9v-66h-336v53l21 14q100 67 156 132t56 118q0 31 -15.5 49.5t-35.5 24t-36 5.5q-27 0 -54 -10l-30 -83h-49v108q29 17 67.5 26t72.5 9z" />
    <glyph glyph-name="uni00B3" unicode="&#xb3;" horiz-adv-x="468" 
d="M239 723q46 0 79.5 -16t49.5 -38.5t16 -51.5q0 -37 -28 -67t-70 -40q52 -8 82 -38.5t30 -75.5q0 -54 -46 -88.5t-119 -34.5q-31 0 -70 7.5t-65 19.5v89h41l18 -60q30 -12 67 -12q47 0 73.5 21t26.5 58q0 45 -34.5 69.5t-97.5 24.5h-14v42h24q49 0 78.5 22t29.5 58
q0 67 -91 67q-25 0 -57 -12l-20 -60h-39v91q31 11 69 18t67 7z" />
    <glyph glyph-name="acute" unicode="&#xb4;" horiz-adv-x="500" 
d="M265 772l64 -48l-126 -146l-33 24z" />
    <glyph glyph-name="uni00B5" unicode="&#xb5;" horiz-adv-x="601" 
d="M173 521v-348q0 -114 109 -114q32 0 73 20t73 51v320l-74 15v30l148 26v-457l84 -17v-30l-158 -27v91q-35 -40 -84 -63t-101 -23q-51 0 -85 23q2 -20 8.5 -98.5t6.5 -108.5v-31h-74v670l-74 15v30z" />
    <glyph glyph-name="paragraph" unicode="&#xb6;" horiz-adv-x="662" 
d="M592 715v-35l-89 -23v-757h-53v757h-80v-757h-53v383h-59q-51 0 -93.5 15t-72.5 43.5t-46 70t-16 92.5q0 50 18 90t51 66.5t79.5 40.5t102.5 14h311z" />
    <glyph glyph-name="periodcentered" unicode="&#xb7;" horiz-adv-x="270" 
d="M137 450q24 0 43.5 -19.5t19.5 -43.5q0 -26 -19 -46.5t-44 -20.5q-27 0 -47 20t-20 47q0 25 20.5 44t46.5 19z" />
    <glyph glyph-name="cedilla" unicode="&#xb8;" horiz-adv-x="500" 
d="M239 -220q-21 0 -48 8.5t-45 20.5l16 31q14 -6 35 -11.5t36 -5.5q26 0 45 10.5t19 31.5q0 20 -15 29t-35.5 14t-42.5 9l29 100h41l-19 -66q51 -11 74.5 -31t23.5 -53q0 -18 -10.5 -38.5t-38.5 -34.5t-65 -14z" />
    <glyph glyph-name="uni00B9" unicode="&#xb9;" horiz-adv-x="468" 
d="M285 720v-391l80 -26v-26h-240v26l90 26v313h-98v34l126 44h42z" />
    <glyph glyph-name="ordmasculine" unicode="&#xba;" horiz-adv-x="430" 
d="M219 723q21 0 45.5 -7t47 -25.5t39 -53.5t16.5 -89q0 -42 -15.5 -83t-54 -66.5t-87.5 -25.5q-29 0 -52.5 9t-43 26t-36 51.5t-16.5 88.5q0 52 18.5 90.5t54 61.5t84.5 23zM217 681q-44 0 -72 -31t-28 -99q0 -71 26.5 -103.5t71.5 -32.5q42 0 69 31t27 99
q0 73 -26.5 104.5t-67.5 31.5zM370 309v-50h-310v50h310z" />
    <glyph glyph-name="guillemotright" unicode="&#xbb;" horiz-adv-x="504" 
d="M272 58l-32 29l144 165l-144 165l32 29l182 -170v-48zM72 58l-32 29l144 165l-144 165l32 29l182 -170v-48z" />
    <glyph glyph-name="onequarter" unicode="&#xbc;" horiz-adv-x="1056" 
d="M285 720v-391l80 -26v-26h-240v26l90 26v313h-98v34l126 44h42zM754 715l-350 -715h-64l350 715h64zM917 443v-274h80v-56h-80v-113h-66v113h-210v49l211 281h65zM851 169v195l-146 -195h146z" />
    <glyph glyph-name="onehalf" unicode="&#xbd;" horiz-adv-x="1056" 
d="M285 720v-391l80 -26v-26h-240v26l90 26v313h-98v34l126 44h42zM745 715l-350 -715h-64l350 715h64zM826 446q29 0 65.5 -10t62.5 -40t26 -76q0 -56 -55 -124t-156 -139l240 9v-66h-336v53l21 14q100 67 156 132t56 118q0 31 -15.5 49.5t-35.5 24t-36 5.5q-27 0 -54 -10
l-30 -83h-49v108q29 17 67.5 26t72.5 9z" />
    <glyph glyph-name="threequarters" unicode="&#xbe;" horiz-adv-x="1056" 
d="M239 723q46 0 79.5 -16t49.5 -38.5t16 -51.5q0 -37 -28 -67t-70 -40q52 -8 82 -38.5t30 -75.5q0 -54 -46 -88.5t-119 -34.5q-31 0 -70 7.5t-65 19.5v89h41l18 -60q30 -12 67 -12q47 0 73.5 21t26.5 58q0 45 -34.5 69.5t-97.5 24.5h-14v42h24q49 0 78.5 22t29.5 58
q0 67 -91 67q-25 0 -57 -12l-20 -60h-39v91q31 11 69 18t67 7zM755 715l-350 -715h-64l350 715h64zM917 443v-274h80v-56h-80v-113h-66v113h-210v49l211 281h65zM851 169v195l-146 -195h146z" />
    <glyph glyph-name="questiondown" unicode="&#xbf;" horiz-adv-x="475" 
d="M263 -209q-46 0 -88 12t-73 35t-49 58t-18 78q0 35 9.5 67t32.5 61.5t70.5 57t64 38.5t24 24.5t8.5 25.5l2 39h52l2 -19l3 -47q0 -23 -14.5 -39t-50 -37t-49 -31t-24 -21t-19 -24.5t-15 -34t-6.5 -49.5q0 -42 21 -74.5t59.5 -47t79.5 -14.5q30 0 63 9l34 109h48v-145
q-33 -12 -81 -21.5t-86 -9.5zM269 408q-24 0 -42 18t-18 42t18 42.5t42 18.5t42.5 -18.5t18.5 -42.5t-18.5 -42t-42.5 -18z" />
    <glyph glyph-name="Agrave" unicode="&#xc0;" horiz-adv-x="722" 
d="M414 715l214 -658l79 -22v-35h-252v35l89 22l-54 165h-269l-62 -165l71 -22v-35h-215v35l70 22l265 658h64zM341 972l95 -170l-33 -24l-126 146zM474 272l-109 336l-126 -336h235z" />
    <glyph glyph-name="Aacute" unicode="&#xc1;" horiz-adv-x="722" 
d="M414 715l214 -658l79 -22v-35h-252v35l89 22l-54 165h-269l-62 -165l71 -22v-35h-215v35l70 22l265 658h64zM426 972l64 -48l-126 -146l-33 24zM474 272l-109 336l-126 -336h235z" />
    <glyph glyph-name="Acircumflex" unicode="&#xc2;" horiz-adv-x="722" 
d="M414 715l214 -658l79 -22v-35h-252v35l89 22l-54 165h-269l-62 -165l71 -22v-35h-215v35l70 22l265 658h64zM376 908l-135 -130l-31 26l137 162h58l137 -162l-31 -26zM474 272l-109 336l-126 -336h235z" />
    <glyph glyph-name="Atilde" unicode="&#xc3;" horiz-adv-x="722" 
d="M414 715l214 -658l79 -22v-35h-252v35l89 22l-54 165h-269l-62 -165l71 -22v-35h-215v35l70 22l265 658h64zM470 845q16 0 32.5 11t31.5 51l32 -10q-10 -51 -27.5 -74t-35.5 -29.5t-36 -6.5q-15 0 -36 7t-66.5 35t-63.5 28q-16 0 -32.5 -11t-31.5 -51l-32 10
q10 51 27.5 74t35.5 29.5t36 6.5q15 0 36 -7t66.5 -35t63.5 -28zM474 272l-109 336l-126 -336h235z" />
    <glyph glyph-name="Adieresis" unicode="&#xc4;" horiz-adv-x="722" 
d="M414 715l214 -658l79 -22v-35h-252v35l89 22l-54 165h-269l-62 -165l71 -22v-35h-215v35l70 22l265 658h64zM286 915q21 0 36.5 -15.5t15.5 -36.5t-15.5 -36t-36.5 -15t-36 15t-15 36t15 36.5t36 15.5zM465 915q21 0 36.5 -15.5t15.5 -36.5t-15.5 -36t-36.5 -15t-36 15
t-15 36t15 36.5t36 15.5zM474 272l-109 336l-126 -336h235z" />
    <glyph glyph-name="Aring" unicode="&#xc5;" horiz-adv-x="722" 
d="M414 715l214 -658l79 -22v-35h-252v35l89 22l-54 165h-269l-62 -165l71 -22v-35h-215v35l70 22l265 658h64zM380 983q43 0 72.5 -29.5t29.5 -72.5q0 -20 -10 -44t-35.5 -41.5t-56.5 -17.5q-20 0 -44 10t-41.5 36t-17.5 57t17.5 56.5t41.5 35.5t44 10zM380 939
q-25 0 -41 -17.5t-16 -40.5q0 -24 16 -41.5t41 -17.5q24 0 40 17.5t16 41.5q0 23 -16 40.5t-40 17.5zM474 272l-109 336l-126 -336h235z" />
    <glyph glyph-name="AE" unicode="&#xc6;" horiz-adv-x="949" 
d="M870 715v-162h-48l-32 112h-258v-281h172l20 72h38v-194h-38l-20 72h-172v-284h282l32 112h48v-162h-521v35l79 22v165h-227l-89 -165l79 -22v-35h-215v35l70 22l339 605l-66 18v35h527zM452 272v369l-200 -369h200z" />
    <glyph glyph-name="Ccedilla" unicode="&#xc7;" horiz-adv-x="660" 
d="M362 -220q-21 0 -48 8.5t-45 20.5l16 31q14 -6 35 -11.5t36 -5.5q26 0 45 10.5t19 31.5q0 20 -15 29t-35.5 14t-42.5 9l22 75q-140 11 -214.5 104.5t-74.5 257.5q0 84 23.5 153.5t67 117.5t106 73t138.5 25q45 0 99 -9t93 -24v-144h-48l-36 103q-54 14 -101 14
q-59 0 -106 -18.5t-80 -56.5t-50 -96t-17 -133q0 -153 65 -231t193 -78q32 0 63 5t71 28l21 95h48v-130q-89 -58 -221 -58l-11 -39q51 -11 74.5 -31t23.5 -53q0 -18 -10.5 -38.5t-38.5 -34.5t-65 -14z" />
    <glyph glyph-name="Egrave" unicode="&#xc8;" horiz-adv-x="646" 
d="M567 715v-162h-48l-32 112h-258v-281h172l20 72h38v-194h-38l-20 72h-172v-284h282l32 112h48v-162h-521v35l79 22v601l-79 22v35h497zM278 972l95 -170l-33 -24l-126 146z" />
    <glyph glyph-name="Eacute" unicode="&#xc9;" horiz-adv-x="646" 
d="M567 715v-162h-48l-32 112h-258v-281h172l20 72h38v-194h-38l-20 72h-172v-284h282l32 112h48v-162h-521v35l79 22v601l-79 22v35h497zM388 972l64 -48l-126 -146l-33 24z" />
    <glyph glyph-name="Ecircumflex" unicode="&#xca;" horiz-adv-x="646" 
d="M567 715v-162h-48l-32 112h-258v-281h172l20 72h38v-194h-38l-20 72h-172v-284h282l32 112h48v-162h-521v35l79 22v601l-79 22v35h497zM338 908l-135 -130l-31 26l137 162h58l137 -162l-31 -26z" />
    <glyph glyph-name="Edieresis" unicode="&#xcb;" horiz-adv-x="646" 
d="M567 715v-162h-48l-32 112h-258v-281h172l20 72h38v-194h-38l-20 72h-172v-284h282l32 112h48v-162h-521v35l79 22v601l-79 22v35h497zM248 915q21 0 36.5 -15.5t15.5 -36.5t-15.5 -36t-36.5 -15t-36 15t-15 36t15 36.5t36 15.5zM427 915q21 0 36.5 -15.5t15.5 -36.5
t-15.5 -36t-36.5 -15t-36 15t-15 36t15 36.5t36 15.5z" />
    <glyph glyph-name="Igrave" unicode="&#xcc;" horiz-adv-x="378" 
d="M308 715v-35l-79 -22v-601l79 -22v-35h-238v35l79 22v601l-79 22v35h238zM144 972l95 -170l-33 -24l-126 146z" />
    <glyph glyph-name="Iacute" unicode="&#xcd;" horiz-adv-x="378" 
d="M308 715v-35l-79 -22v-601l79 -22v-35h-238v35l79 22v601l-79 22v35h238zM234 972l64 -48l-126 -146l-33 24z" />
    <glyph glyph-name="Icircumflex" unicode="&#xce;" horiz-adv-x="378" 
d="M308 715v-35l-79 -22v-601l79 -22v-35h-238v35l79 22v601l-79 22v35h238zM189 908l-135 -130l-31 26l137 162h58l137 -162l-31 -26z" />
    <glyph glyph-name="Idieresis" unicode="&#xcf;" horiz-adv-x="378" 
d="M308 715v-35l-79 -22v-601l79 -22v-35h-238v35l79 22v601l-79 22v35h238zM99 915q21 0 36.5 -15.5t15.5 -36.5t-15.5 -36t-36.5 -15t-36 15t-15 36t15 36.5t36 15.5zM278 915q21 0 36.5 -15.5t15.5 -36.5t-15.5 -36t-36.5 -15t-36 15t-15 36t15 36.5t36 15.5z" />
    <glyph glyph-name="Eth" unicode="&#xd0;" horiz-adv-x="767" 
d="M410 380v-50h-181v-276h87q66 0 121.5 18.5t96 56.5t63 98.5t22.5 139.5q0 76 -20 132.5t-58.5 92t-95 52.5t-129.5 17h-87v-281h181zM345 715q77 0 143.5 -19.5t115 -59.5t76 -104t27.5 -148q0 -95 -26 -168.5t-74 -121t-115 -71t-147 -23.5h-275v35l79 22v273h-79v50
h79v278l-79 22v35h275z" />
    <glyph glyph-name="Ntilde" unicode="&#xd1;" horiz-adv-x="808" 
d="M758 715v-35l-79 -22v-658l-54 -10l-421 608v-541l79 -22v-35h-213v35l79 22v601l-79 22v35h146l409 -587v530l-79 22v35h212zM498 845q16 0 32.5 11t31.5 51l32 -10q-10 -51 -27.5 -74t-35.5 -29.5t-36 -6.5q-15 0 -36 7t-66.5 35t-63.5 28q-16 0 -32.5 -11t-31.5 -51
l-32 10q10 51 27.5 74t35.5 29.5t36 6.5q15 0 36 -7t66.5 -35t63.5 -28z" />
    <glyph glyph-name="Ograve" unicode="&#xd2;" horiz-adv-x="742" 
d="M385 723q67 0 122.5 -25t94.5 -73t59.5 -116t20.5 -151q0 -85 -22 -154t-64 -116.5t-103 -72.5t-136 -25q-67 0 -122.5 25t-94.5 73t-59.5 116t-20.5 151q0 85 22 154t64 116.5t103 72.5t136 25zM359 663q-102 0 -157.5 -79.5t-55.5 -226.5q0 -307 237 -307
q102 0 157.5 79.5t55.5 226.5q0 307 -237 307zM341 972l95 -170l-33 -24l-126 146z" />
    <glyph glyph-name="Oacute" unicode="&#xd3;" horiz-adv-x="742" 
d="M385 723q67 0 122.5 -25t94.5 -73t59.5 -116t20.5 -151q0 -85 -22 -154t-64 -116.5t-103 -72.5t-136 -25q-67 0 -122.5 25t-94.5 73t-59.5 116t-20.5 151q0 85 22 154t64 116.5t103 72.5t136 25zM359 663q-102 0 -157.5 -79.5t-55.5 -226.5q0 -307 237 -307
q102 0 157.5 79.5t55.5 226.5q0 307 -237 307zM401 972l64 -48l-126 -146l-33 24z" />
    <glyph glyph-name="Ocircumflex" unicode="&#xd4;" horiz-adv-x="742" 
d="M385 723q67 0 122.5 -25t94.5 -73t59.5 -116t20.5 -151q0 -85 -22 -154t-64 -116.5t-103 -72.5t-136 -25q-67 0 -122.5 25t-94.5 73t-59.5 116t-20.5 151q0 85 22 154t64 116.5t103 72.5t136 25zM359 663q-102 0 -157.5 -79.5t-55.5 -226.5q0 -307 237 -307
q102 0 157.5 79.5t55.5 226.5q0 307 -237 307zM371 908l-135 -130l-31 26l137 162h58l137 -162l-31 -26z" />
    <glyph glyph-name="Otilde" unicode="&#xd5;" horiz-adv-x="742" 
d="M385 723q67 0 122.5 -25t94.5 -73t59.5 -116t20.5 -151q0 -85 -22 -154t-64 -116.5t-103 -72.5t-136 -25q-67 0 -122.5 25t-94.5 73t-59.5 116t-20.5 151q0 85 22 154t64 116.5t103 72.5t136 25zM359 663q-102 0 -157.5 -79.5t-55.5 -226.5q0 -307 237 -307
q102 0 157.5 79.5t55.5 226.5q0 307 -237 307zM455 845q16 0 32.5 11t31.5 51l32 -10q-10 -51 -27.5 -74t-35.5 -29.5t-36 -6.5q-15 0 -36 7t-66.5 35t-63.5 28q-16 0 -32.5 -11t-31.5 -51l-32 10q10 51 27.5 74t35.5 29.5t36 6.5q15 0 36 -7t66.5 -35t63.5 -28z" />
    <glyph glyph-name="Odieresis" unicode="&#xd6;" horiz-adv-x="742" 
d="M385 723q67 0 122.5 -25t94.5 -73t59.5 -116t20.5 -151q0 -85 -22 -154t-64 -116.5t-103 -72.5t-136 -25q-67 0 -122.5 25t-94.5 73t-59.5 116t-20.5 151q0 85 22 154t64 116.5t103 72.5t136 25zM359 663q-102 0 -157.5 -79.5t-55.5 -226.5q0 -307 237 -307
q102 0 157.5 79.5t55.5 226.5q0 307 -237 307zM281 915q21 0 36.5 -15.5t15.5 -36.5t-15.5 -36t-36.5 -15t-36 15t-15 36t15 36.5t36 15.5zM460 915q21 0 36.5 -15.5t15.5 -36.5t-15.5 -36t-36.5 -15t-36 15t-15 36t15 36.5t36 15.5z" />
    <glyph glyph-name="multiply" unicode="&#xd7;" horiz-adv-x="550" 
d="M432 523l34 -34l-157 -157l157 -157l-34 -34l-157 157l-157 -157l-34 34l157 157l-157 157l34 34l157 -157z" />
    <glyph glyph-name="Oslash" unicode="&#xd8;" horiz-adv-x="742" 
d="M682 690l-67 -81q67 -97 67 -251q0 -85 -22 -154t-64 -116.5t-103 -72.5t-136 -25q-119 0 -196 74l-62 -75l-39 33l68 81q-33 46 -50.5 111t-17.5 141q0 85 22 154t64 116.5t103 72.5t136 25q119 0 196 -74l62 74zM359 663q-102 0 -157.5 -79.5t-55.5 -226.5
q0 -115 35 -190l352 424q-58 72 -174 72zM383 50q102 0 157.5 79.5t55.5 226.5q0 118 -34 189l-353 -423q60 -72 174 -72z" />
    <glyph glyph-name="Ugrave" unicode="&#xd9;" horiz-adv-x="729" 
d="M689 715v-35l-79 -22v-406q0 -64 -18 -114t-51 -83t-78 -49t-98 -16q-51 0 -96 16t-78.5 48t-52.5 80.5t-19 110.5v413l-79 22v35h238v-35l-79 -22v-404q0 -102 44.5 -154t140.5 -52q50 0 87.5 23t59 66.5t21.5 109.5v411l-79 22v35h216zM330 972l95 -170l-33 -24
l-126 146z" />
    <glyph glyph-name="Uacute" unicode="&#xda;" horiz-adv-x="729" 
d="M689 715v-35l-79 -22v-406q0 -64 -18 -114t-51 -83t-78 -49t-98 -16q-51 0 -96 16t-78.5 48t-52.5 80.5t-19 110.5v413l-79 22v35h238v-35l-79 -22v-404q0 -102 44.5 -154t140.5 -52q50 0 87.5 23t59 66.5t21.5 109.5v411l-79 22v35h216zM435 972l64 -48l-126 -146
l-33 24z" />
    <glyph glyph-name="Ucircumflex" unicode="&#xdb;" horiz-adv-x="729" 
d="M689 715v-35l-79 -22v-406q0 -64 -18 -114t-51 -83t-78 -49t-98 -16q-51 0 -96 16t-78.5 48t-52.5 80.5t-19 110.5v413l-79 22v35h238v-35l-79 -22v-404q0 -102 44.5 -154t140.5 -52q50 0 87.5 23t59 66.5t21.5 109.5v411l-79 22v35h216zM370 908l-135 -130l-31 26
l137 162h58l137 -162l-31 -26z" />
    <glyph glyph-name="Udieresis" unicode="&#xdc;" horiz-adv-x="729" 
d="M689 715v-35l-79 -22v-406q0 -64 -18 -114t-51 -83t-78 -49t-98 -16q-51 0 -96 16t-78.5 48t-52.5 80.5t-19 110.5v413l-79 22v35h238v-35l-79 -22v-404q0 -102 44.5 -154t140.5 -52q50 0 87.5 23t59 66.5t21.5 109.5v411l-79 22v35h216zM280 915q21 0 36.5 -15.5
t15.5 -36.5t-15.5 -36t-36.5 -15t-36 15t-15 36t15 36.5t36 15.5zM459 915q21 0 36.5 -15.5t15.5 -36.5t-15.5 -36t-36.5 -15t-36 15t-15 36t15 36.5t36 15.5z" />
    <glyph glyph-name="Yacute" unicode="&#xdd;" horiz-adv-x="633" 
d="M618 715v-35l-69 -22l-176 -356v-245l79 -22v-35h-238v35l79 22v250l-199 351l-79 22v35h249v-35l-79 -22l163 -295l138 298l-59 19v35h191zM392 972l64 -48l-126 -146l-33 24z" />
    <glyph glyph-name="Thorn" unicode="&#xde;" horiz-adv-x="606" 
d="M229 715v-109h80q60 0 108.5 -12.5t82.5 -38t52.5 -65t18.5 -92.5q0 -107 -66 -168.5t-191 -61.5h-85v-168h-159v35l79 22v601l-79 22v35h159zM274 556h-45v-338h65q96 0 145 40t49 132q0 35 -7.5 62.5t-24.5 49.5t-57.5 38t-124.5 16z" />
    <glyph glyph-name="germandbls" unicode="&#xdf;" horiz-adv-x="607" 
d="M333 755q40 0 78 -18t53.5 -47t15.5 -60q0 -49 -55 -107t-65 -73t-10 -28q0 -21 11 -36t34 -30.5t69 -41.5q68 -38 95.5 -73t27.5 -85q0 -23 -8.5 -50.5t-33 -56t-62 -44t-76.5 -15.5q-35 0 -65.5 7t-68.5 28l31 60q23 -15 52.5 -24t55.5 -9q43 0 71 26t28 69
q0 33 -24.5 60.5t-81.5 57.5q-78 41 -102.5 70t-24.5 72q0 11 4 26t17 33t40.5 45.5t41.5 44.5t20.5 34t6.5 32q0 85 -90 85q-58 0 -94 -59t-36 -160v-488h-148v27l74 28v400h-89v50h91q8 88 39.5 143t76.5 81t101 26z" />
    <glyph glyph-name="agrave" unicode="&#xe0;" 
d="M249 523q56 0 95 -17t60.5 -50.5t21.5 -85.5v-265q0 -30 8.5 -43t27.5 -13q18 0 40 6v-38q-14 -10 -33 -16t-36 -6q-36 0 -58.5 21.5t-22.5 53.5q-77 -75 -168 -75q-43 0 -76 20.5t-45.5 50t-12.5 55.5q0 55 28 90.5t94 57.5t180 28v70q0 55 -32.5 79.5t-82.5 24.5
q-37 0 -77 -10l-25 -80h-48v115q35 11 80 19t82 8zM207 49q34 0 72 19t73 54v127q-68 -2 -118 -14t-79 -37t-29 -71q0 -35 23 -56.5t58 -21.5zM224 772l95 -170l-33 -24l-126 146z" />
    <glyph glyph-name="aacute" unicode="&#xe1;" 
d="M249 523q56 0 95 -17t60.5 -50.5t21.5 -85.5v-265q0 -30 8.5 -43t27.5 -13q18 0 40 6v-38q-14 -10 -33 -16t-36 -6q-36 0 -58.5 21.5t-22.5 53.5q-77 -75 -168 -75q-43 0 -76 20.5t-45.5 50t-12.5 55.5q0 55 28 90.5t94 57.5t180 28v70q0 55 -32.5 79.5t-82.5 24.5
q-37 0 -77 -10l-25 -80h-48v115q35 11 80 19t82 8zM207 49q34 0 72 19t73 54v127q-68 -2 -118 -14t-79 -37t-29 -71q0 -35 23 -56.5t58 -21.5zM299 772l64 -48l-126 -146l-33 24z" />
    <glyph glyph-name="acircumflex" unicode="&#xe2;" 
d="M249 523q56 0 95 -17t60.5 -50.5t21.5 -85.5v-265q0 -30 8.5 -43t27.5 -13q18 0 40 6v-38q-14 -10 -33 -16t-36 -6q-36 0 -58.5 21.5t-22.5 53.5q-77 -75 -168 -75q-43 0 -76 20.5t-45.5 50t-12.5 55.5q0 55 28 90.5t94 57.5t180 28v70q0 55 -32.5 79.5t-82.5 24.5
q-37 0 -77 -10l-25 -80h-48v115q35 11 80 19t82 8zM207 49q34 0 72 19t73 54v127q-68 -2 -118 -14t-79 -37t-29 -71q0 -35 23 -56.5t58 -21.5zM259 708l-135 -130l-31 26l137 162h58l137 -162l-31 -26z" />
    <glyph glyph-name="atilde" unicode="&#xe3;" 
d="M249 523q56 0 95 -17t60.5 -50.5t21.5 -85.5v-265q0 -30 8.5 -43t27.5 -13q18 0 40 6v-38q-14 -10 -33 -16t-36 -6q-36 0 -58.5 21.5t-22.5 53.5q-77 -75 -168 -75q-43 0 -76 20.5t-45.5 50t-12.5 55.5q0 55 28 90.5t94 57.5t180 28v70q0 55 -32.5 79.5t-82.5 24.5
q-37 0 -77 -10l-25 -80h-48v115q35 11 80 19t82 8zM207 49q34 0 72 19t73 54v127q-68 -2 -118 -14t-79 -37t-29 -71q0 -35 23 -56.5t58 -21.5zM348 645q16 0 32.5 11t31.5 51l32 -10q-10 -51 -27.5 -74t-35.5 -29.5t-36 -6.5q-15 0 -36 7t-66.5 35t-63.5 28q-16 0 -32.5 -11
t-31.5 -51l-32 10q10 51 27.5 74t35.5 29.5t36 6.5q15 0 36 -7t66.5 -35t63.5 -28z" />
    <glyph glyph-name="adieresis" unicode="&#xe4;" 
d="M249 523q56 0 95 -17t60.5 -50.5t21.5 -85.5v-265q0 -30 8.5 -43t27.5 -13q18 0 40 6v-38q-14 -10 -33 -16t-36 -6q-36 0 -58.5 21.5t-22.5 53.5q-77 -75 -168 -75q-43 0 -76 20.5t-45.5 50t-12.5 55.5q0 55 28 90.5t94 57.5t180 28v70q0 55 -32.5 79.5t-82.5 24.5
q-37 0 -77 -10l-25 -80h-48v115q35 11 80 19t82 8zM207 49q34 0 72 19t73 54v127q-68 -2 -118 -14t-79 -37t-29 -71q0 -35 23 -56.5t58 -21.5zM169 715q21 0 36.5 -15.5t15.5 -36.5t-15.5 -36t-36.5 -15t-36 15t-15 36t15 36.5t36 15.5zM348 715q21 0 36.5 -15.5t15.5 -36.5
t-15.5 -36t-36.5 -15t-36 15t-15 36t15 36.5t36 15.5z" />
    <glyph glyph-name="aring" unicode="&#xe5;" 
d="M249 523q56 0 95 -17t60.5 -50.5t21.5 -85.5v-265q0 -30 8.5 -43t27.5 -13q18 0 40 6v-38q-14 -10 -33 -16t-36 -6q-36 0 -58.5 21.5t-22.5 53.5q-77 -75 -168 -75q-43 0 -76 20.5t-45.5 50t-12.5 55.5q0 55 28 90.5t94 57.5t180 28v70q0 55 -32.5 79.5t-82.5 24.5
q-37 0 -77 -10l-25 -80h-48v115q35 11 80 19t82 8zM207 49q34 0 72 19t73 54v127q-68 -2 -118 -14t-79 -37t-29 -71q0 -35 23 -56.5t58 -21.5zM265 783q43 0 72.5 -29.5t29.5 -72.5q0 -20 -10 -44t-35.5 -41.5t-56.5 -17.5q-20 0 -44 10t-41.5 36t-17.5 57t17.5 56.5
t41.5 35.5t44 10zM265 739q-25 0 -41 -17.5t-16 -40.5q0 -24 16 -41.5t41 -17.5q24 0 40 17.5t16 41.5q0 23 -16 40.5t-40 17.5z" />
    <glyph glyph-name="ae" unicode="&#xe6;" horiz-adv-x="790" 
d="M556 523q83 0 130.5 -57t47.5 -157q0 -27 -4 -47l-317 -13q2 -45 14 -77t31 -56.5t54.5 -43t86.5 -18.5q87 0 136 29v-38q-30 -27 -71.5 -41t-90.5 -14q-64 0 -114 24.5t-80 69.5q-32 -42 -81.5 -65.5t-102.5 -23.5q-67 0 -106 35t-39 91q0 54 27 89.5t90.5 58
t172.5 28.5q1 9 6 39.5t5 43.5q0 35 -19.5 57.5t-46 30t-48.5 7.5q-34 0 -76 -10l-26 -84h-48v115q35 11 80 19t82 8q51 0 92 -15.5t63 -49.5q28 31 67 48t85 17zM207 49q82 0 150 80q-20 51 -20 117v3q-109 -6 -162 -35t-53 -87q0 -35 24 -56.5t61 -21.5zM552 475
q-63 0 -98 -46t-40 -132l248 11v16q0 66 -29.5 108.5t-80.5 42.5z" />
    <glyph glyph-name="ccedilla" unicode="&#xe7;" horiz-adv-x="497" 
d="M259 -220q-21 0 -48 8.5t-45 20.5l16 31q14 -6 35 -11.5t36 -5.5q26 0 45 10.5t19 31.5q0 20 -15 29t-35.5 14t-42.5 9l22 76q-91 13 -143.5 80t-52.5 171q0 134 68 206.5t192 72.5q60 0 121 -19v-127h-48l-26 90q-24 4 -70 4q-25 0 -52.5 -10t-51.5 -34.5t-40.5 -64
t-16.5 -93.5q0 -101 50 -158t139 -57q85 0 137 29v-48q-27 -21 -71 -33t-95 -12l-11 -39q51 -11 74.5 -31t23.5 -53q0 -18 -10.5 -38.5t-38.5 -34.5t-65 -14z" />
    <glyph glyph-name="egrave" unicode="&#xe8;" 
d="M283 523q87 0 138 -56.5t51 -157.5q0 -32 -4 -52h-342q2 -94 52 -148.5t140 -54.5q88 0 140 29v-48q-27 -21 -72 -33t-94 -12q-57 0 -102.5 18t-76.5 52t-47 81.5t-16 104.5q0 129 63.5 203t169.5 74zM279 471q-137 0 -152 -166h273v19q0 69 -33 108t-88 39zM234 772
l95 -170l-33 -24l-126 146z" />
    <glyph glyph-name="eacute" unicode="&#xe9;" 
d="M283 523q87 0 138 -56.5t51 -157.5q0 -32 -4 -52h-342q2 -94 52 -148.5t140 -54.5q88 0 140 29v-48q-27 -21 -72 -33t-94 -12q-57 0 -102.5 18t-76.5 52t-47 81.5t-16 104.5q0 129 63.5 203t169.5 74zM279 471q-137 0 -152 -166h273v19q0 69 -33 108t-88 39zM319 772
l64 -48l-126 -146l-33 24z" />
    <glyph glyph-name="ecircumflex" unicode="&#xea;" 
d="M283 523q87 0 138 -56.5t51 -157.5q0 -32 -4 -52h-342q2 -94 52 -148.5t140 -54.5q88 0 140 29v-48q-27 -21 -72 -33t-94 -12q-57 0 -102.5 18t-76.5 52t-47 81.5t-16 104.5q0 129 63.5 203t169.5 74zM279 471q-137 0 -152 -166h273v19q0 69 -33 108t-88 39zM279 708
l-135 -130l-31 26l137 162h58l137 -162l-31 -26z" />
    <glyph glyph-name="edieresis" unicode="&#xeb;" 
d="M283 523q87 0 138 -56.5t51 -157.5q0 -32 -4 -52h-342q2 -94 52 -148.5t140 -54.5q88 0 140 29v-48q-27 -21 -72 -33t-94 -12q-57 0 -102.5 18t-76.5 52t-47 81.5t-16 104.5q0 129 63.5 203t169.5 74zM279 471q-137 0 -152 -166h273v19q0 69 -33 108t-88 39zM189 715
q21 0 36.5 -15.5t15.5 -36.5t-15.5 -36t-36.5 -15t-36 15t-15 36t15 36.5t36 15.5zM368 715q21 0 36.5 -15.5t15.5 -36.5t-15.5 -36t-36.5 -15t-36 15t-15 36t15 36.5t36 15.5z" />
    <glyph glyph-name="igrave" unicode="&#xec;" horiz-adv-x="302" 
d="M198 517v-462l74 -25v-30h-222v30l74 25v388l-84 17v30zM111 772l95 -170l-33 -24l-126 146z" />
    <glyph glyph-name="iacute" unicode="&#xed;" horiz-adv-x="302" 
d="M198 517v-462l74 -25v-30h-222v30l74 25v388l-84 17v30zM211 772l64 -48l-126 -146l-33 24z" />
    <glyph glyph-name="icircumflex" unicode="&#xee;" horiz-adv-x="302" 
d="M198 517v-462l74 -25v-30h-222v30l74 25v388l-84 17v30zM151 708l-135 -130l-31 26l137 162h58l137 -162l-31 -26z" />
    <glyph glyph-name="idieresis" unicode="&#xef;" horiz-adv-x="302" 
d="M198 517v-462l74 -25v-30h-222v30l74 25v388l-84 17v30zM61 715q21 0 36.5 -15.5t15.5 -36.5t-15.5 -36t-36.5 -15t-36 15t-15 36t15 36.5t36 15.5zM240 715q21 0 36.5 -15.5t15.5 -36.5t-15.5 -36t-36.5 -15t-36 15t-15 36t15 36.5t36 15.5z" />
    <glyph glyph-name="eth" unicode="&#xf0;" horiz-adv-x="544" 
d="M272 469q47 0 88.5 -20.5t70.5 -59.5q-47 134 -167 212l-103 -88l-31 35l91 77q-47 25 -112 46l16 48q76 -24 139 -58l93 79l30 -35l-82 -69q91 -61 140 -152.5t49 -221.5v-8q0 -49 -11.5 -97.5t-38.5 -85t-70 -59t-102 -22.5q-46 0 -86.5 14.5t-71 44.5t-47.5 75
t-17 103q0 43 11.5 86.5t38.5 78t70.5 56t101.5 21.5zM272 421q-65 0 -104.5 -50t-39.5 -144q0 -93 39.5 -141t104.5 -48t104.5 48t39.5 141q0 94 -39.5 144t-104.5 50z" />
    <glyph glyph-name="ntilde" unicode="&#xf1;" horiz-adv-x="626" 
d="M198 522v-65q40 31 87 48.5t92 17.5q150 0 150 -166v-302l74 -25v-30h-212v30l64 25v290q0 114 -109 114q-31 0 -70 -15t-76 -41v-348l64 -25v-30h-212v30l74 25v388l-84 17v30zM412 645q16 0 32.5 11t31.5 51l32 -10q-10 -51 -27.5 -74t-35.5 -29.5t-36 -6.5
q-15 0 -36 7t-66.5 35t-63.5 28q-16 0 -32.5 -11t-31.5 -51l-32 10q10 51 27.5 74t35.5 29.5t36 6.5q15 0 36 -7t66.5 -35t63.5 -28z" />
    <glyph glyph-name="ograve" unicode="&#xf2;" horiz-adv-x="552" 
d="M283 523q43 0 83 -17t70.5 -50.5t48 -84.5t17.5 -114q0 -64 -18 -114.5t-50 -84t-74.5 -50.5t-90.5 -17q-43 0 -83 17t-70.5 50.5t-48 84.5t-17.5 114q0 64 18 114.5t50 84t74.5 50.5t90.5 17zM268 475q-36 0 -69.5 -23.5t-52 -72t-18.5 -106.5q0 -116 42 -175t114 -59
q36 0 69.5 23.5t52 72t18.5 106.5q0 116 -42 175t-114 59zM236 772l95 -170l-33 -24l-126 146z" />
    <glyph glyph-name="oacute" unicode="&#xf3;" horiz-adv-x="552" 
d="M283 523q43 0 83 -17t70.5 -50.5t48 -84.5t17.5 -114q0 -64 -18 -114.5t-50 -84t-74.5 -50.5t-90.5 -17q-43 0 -83 17t-70.5 50.5t-48 84.5t-17.5 114q0 64 18 114.5t50 84t74.5 50.5t90.5 17zM268 475q-36 0 -69.5 -23.5t-52 -72t-18.5 -106.5q0 -116 42 -175t114 -59
q36 0 69.5 23.5t52 72t18.5 106.5q0 116 -42 175t-114 59zM316 772l64 -48l-126 -146l-33 24z" />
    <glyph glyph-name="ocircumflex" unicode="&#xf4;" horiz-adv-x="552" 
d="M283 523q43 0 83 -17t70.5 -50.5t48 -84.5t17.5 -114q0 -64 -18 -114.5t-50 -84t-74.5 -50.5t-90.5 -17q-43 0 -83 17t-70.5 50.5t-48 84.5t-17.5 114q0 64 18 114.5t50 84t74.5 50.5t90.5 17zM268 475q-36 0 -69.5 -23.5t-52 -72t-18.5 -106.5q0 -116 42 -175t114 -59
q36 0 69.5 23.5t52 72t18.5 106.5q0 116 -42 175t-114 59zM276 708l-135 -130l-31 26l137 162h58l137 -162l-31 -26z" />
    <glyph glyph-name="otilde" unicode="&#xf5;" horiz-adv-x="552" 
d="M283 523q43 0 83 -17t70.5 -50.5t48 -84.5t17.5 -114q0 -64 -18 -114.5t-50 -84t-74.5 -50.5t-90.5 -17q-43 0 -83 17t-70.5 50.5t-48 84.5t-17.5 114q0 64 18 114.5t50 84t74.5 50.5t90.5 17zM268 475q-36 0 -69.5 -23.5t-52 -72t-18.5 -106.5q0 -116 42 -175t114 -59
q36 0 69.5 23.5t52 72t18.5 106.5q0 116 -42 175t-114 59zM360 645q16 0 32.5 11t31.5 51l32 -10q-10 -51 -27.5 -74t-35.5 -29.5t-36 -6.5q-15 0 -36 7t-66.5 35t-63.5 28q-16 0 -32.5 -11t-31.5 -51l-32 10q10 51 27.5 74t35.5 29.5t36 6.5q15 0 36 -7t66.5 -35t63.5 -28z
" />
    <glyph glyph-name="odieresis" unicode="&#xf6;" horiz-adv-x="552" 
d="M283 523q43 0 83 -17t70.5 -50.5t48 -84.5t17.5 -114q0 -64 -18 -114.5t-50 -84t-74.5 -50.5t-90.5 -17q-43 0 -83 17t-70.5 50.5t-48 84.5t-17.5 114q0 64 18 114.5t50 84t74.5 50.5t90.5 17zM268 475q-36 0 -69.5 -23.5t-52 -72t-18.5 -106.5q0 -116 42 -175t114 -59
q36 0 69.5 23.5t52 72t18.5 106.5q0 116 -42 175t-114 59zM186 715q21 0 36.5 -15.5t15.5 -36.5t-15.5 -36t-36.5 -15t-36 15t-15 36t15 36.5t36 15.5zM365 715q21 0 36.5 -15.5t15.5 -36.5t-15.5 -36t-36.5 -15t-36 15t-15 36t15 36.5t36 15.5z" />
    <glyph glyph-name="divide" unicode="&#xf7;" horiz-adv-x="550" 
d="M276 544q20 0 35 -15t15 -35t-15 -36t-35 -16t-36 16t-16 36t16 35t36 15zM276 222q20 0 35 -15t15 -35t-15 -36t-35 -16t-36 16t-16 36t16 35t36 15zM480 356v-48h-410v48h410z" />
    <glyph glyph-name="oslash" unicode="&#xf8;" horiz-adv-x="552" 
d="M464 523l38 -32l-48 -58q48 -69 48 -176q0 -64 -18 -114.5t-50 -84t-74.5 -50.5t-90.5 -17q-38 0 -74 13.5t-64 38.5l-43 -52l-38 32l48 58q-48 69 -48 176q0 64 18 114.5t50 84t74.5 50.5t90.5 17q38 0 74 -13.5t64 -38.5zM268 475q-36 0 -69.5 -23.5t-52 -72
t-18.5 -106.5q0 -78 20 -132l231 279q-20 27 -48.5 41t-62.5 14zM284 39q36 0 69.5 23.5t52 72t18.5 106.5q0 78 -20 132l-231 -279q20 -27 48.5 -41t62.5 -14z" />
    <glyph glyph-name="ugrave" unicode="&#xf9;" horiz-adv-x="601" 
d="M173 521v-348q0 -114 109 -114q32 0 73 20t73 51v320l-74 15v30l148 26v-457l84 -17v-30l-158 -27v91q-35 -40 -84 -63t-101 -23q-69 0 -106.5 43t-37.5 123v289l-74 15v30zM241 772l95 -170l-33 -24l-126 146z" />
    <glyph glyph-name="uacute" unicode="&#xfa;" horiz-adv-x="601" 
d="M173 521v-348q0 -114 109 -114q32 0 73 20t73 51v320l-74 15v30l148 26v-457l84 -17v-30l-158 -27v91q-35 -40 -84 -63t-101 -23q-69 0 -106.5 43t-37.5 123v289l-74 15v30zM331 772l64 -48l-126 -146l-33 24z" />
    <glyph glyph-name="ucircumflex" unicode="&#xfb;" horiz-adv-x="601" 
d="M173 521v-348q0 -114 109 -114q32 0 73 20t73 51v320l-74 15v30l148 26v-457l84 -17v-30l-158 -27v91q-35 -40 -84 -63t-101 -23q-69 0 -106.5 43t-37.5 123v289l-74 15v30zM296 708l-135 -130l-31 26l137 162h58l137 -162l-31 -26z" />
    <glyph glyph-name="udieresis" unicode="&#xfc;" horiz-adv-x="601" 
d="M173 521v-348q0 -114 109 -114q32 0 73 20t73 51v320l-74 15v30l148 26v-457l84 -17v-30l-158 -27v91q-35 -40 -84 -63t-101 -23q-69 0 -106.5 43t-37.5 123v289l-74 15v30zM201 715q21 0 36.5 -15.5t15.5 -36.5t-15.5 -36t-36.5 -15t-36 15t-15 36t15 36.5t36 15.5z
M380 715q21 0 36.5 -15.5t15.5 -36.5t-15.5 -36t-36.5 -15t-36 15t-15 36t15 36.5t36 15.5z" />
    <glyph glyph-name="yacute" unicode="&#xfd;" horiz-adv-x="502" 
d="M512 515v-30l-54 -25l-172 -422q-51 -126 -115 -194.5t-138 -68.5q-38 0 -65 12l17 66q24 -10 51 -10q55 0 101.5 44.5t91.5 141.5h-19l-161 431l-54 25v30h206v-30l-74 -26l133 -371l138 372l-64 25v30h178zM301 772l64 -48l-126 -146l-33 24z" />
    <glyph glyph-name="thorn" unicode="&#xfe;" horiz-adv-x="586" 
d="M188 750v-284q62 57 145 57q61 0 105.5 -29.5t71 -83.5t26.5 -126q0 -61 -17.5 -114t-50.5 -92t-81.5 -61t-106.5 -22q-45 0 -92 10v-173l84 -22v-30h-232v30l74 22v844l-84 17v30zM270 43q89 0 140.5 61.5t51.5 161.5q0 48 -17.5 95t-55 73.5t-84.5 26.5q-65 0 -117 -43
v-360q42 -15 82 -15z" />
    <glyph glyph-name="ydieresis" unicode="&#xff;" horiz-adv-x="502" 
d="M512 515v-30l-54 -25l-172 -422q-51 -126 -115 -194.5t-138 -68.5q-38 0 -65 12l17 66q24 -10 51 -10q55 0 101.5 44.5t91.5 141.5h-19l-161 431l-54 25v30h206v-30l-74 -26l133 -371l138 372l-64 25v30h178zM171 715q21 0 36.5 -15.5t15.5 -36.5t-15.5 -36t-36.5 -15
t-36 15t-15 36t15 36.5t36 15.5zM350 715q21 0 36.5 -15.5t15.5 -36.5t-15.5 -36t-36.5 -15t-36 15t-15 36t15 36.5t36 15.5z" />
    <glyph glyph-name="Amacron" unicode="&#x100;" horiz-adv-x="722" 
d="M414 715l214 -658l79 -22v-35h-252v35l89 22l-54 165h-269l-62 -165l71 -22v-35h-215v35l70 22l265 658h64zM535 872v-48h-310v48h310zM474 272l-109 336l-126 -336h235z" />
    <glyph glyph-name="amacron" unicode="&#x101;" 
d="M249 523q56 0 95 -17t60.5 -50.5t21.5 -85.5v-265q0 -30 8.5 -43t27.5 -13q18 0 40 6v-38q-14 -10 -33 -16t-36 -6q-36 0 -58.5 21.5t-22.5 53.5q-77 -75 -168 -75q-43 0 -76 20.5t-45.5 50t-12.5 55.5q0 55 28 90.5t94 57.5t180 28v70q0 55 -32.5 79.5t-82.5 24.5
q-37 0 -77 -10l-25 -80h-48v115q35 11 80 19t82 8zM207 49q34 0 72 19t73 54v127q-68 -2 -118 -14t-79 -37t-29 -71q0 -35 23 -56.5t58 -21.5zM397 672v-48h-310v48h310z" />
    <glyph glyph-name="Abreve" unicode="&#x102;" horiz-adv-x="722" 
d="M414 715l214 -658l79 -22v-35h-252v35l89 22l-54 165h-269l-62 -165l71 -22v-35h-215v35l70 22l265 658h64zM381 778q-42 0 -77 17t-59.5 51t-37.5 86l45 12q35 -108 129 -108t129 108l45 -12q-13 -52 -37.5 -86t-59.5 -51t-77 -17zM474 272l-109 336l-126 -336h235z" />
    <glyph glyph-name="abreve" unicode="&#x103;" 
d="M249 523q56 0 95 -17t60.5 -50.5t21.5 -85.5v-265q0 -30 8.5 -43t27.5 -13q18 0 40 6v-38q-14 -10 -33 -16t-36 -6q-36 0 -58.5 21.5t-22.5 53.5q-77 -75 -168 -75q-43 0 -76 20.5t-45.5 50t-12.5 55.5q0 55 28 90.5t94 57.5t180 28v70q0 55 -32.5 79.5t-82.5 24.5
q-37 0 -77 -10l-25 -80h-48v115q35 11 80 19t82 8zM207 49q34 0 72 19t73 54v127q-68 -2 -118 -14t-79 -37t-29 -71q0 -35 23 -56.5t58 -21.5zM254 578q-42 0 -77 17t-59.5 51t-37.5 86l45 12q35 -108 129 -108t129 108l45 -12q-13 -52 -37.5 -86t-59.5 -51t-77 -17z" />
    <glyph glyph-name="Aogonek" unicode="&#x104;" horiz-adv-x="722" 
d="M414 715l214 -658l79 -22v-35h-122q-23 0 -46 -5t-50 -23q-25 -17 -41 -42t-16 -53q0 -26 15 -40t42 -14q33 0 72 17l16 -31q-18 -12 -44.5 -20.5t-51.5 -8.5q-19 0 -43.5 6.5t-39.5 23t-18.5 31t-3.5 25.5q0 28 14 56t44 54t74 51l38 22l-56 173h-269l-62 -165l71 -22
v-35h-215v35l70 22l265 658h64zM474 272l-109 336l-126 -336h235z" />
    <glyph glyph-name="aogonek" unicode="&#x105;" 
d="M249 523q56 0 95 -17t60.5 -50.5t21.5 -85.5v-265q0 -30 8.5 -43t27.5 -13q18 0 40 6v-38l-31 -14q-42 -19 -70.5 -37.5t-42.5 -41.5t-14 -47q0 -26 15 -40t42 -14q33 0 72 17l16 -31q-18 -12 -44.5 -20.5t-51.5 -8.5q-19 0 -43.5 6.5t-39.5 23t-18.5 31t-3.5 25.5
q0 32 23.5 68t83.5 69q-20 9 -31.5 27t-11.5 40q-77 -75 -168 -75q-43 0 -76 20.5t-45.5 50t-12.5 55.5q0 55 28 90.5t94 57.5t180 28v70q0 55 -32.5 79.5t-82.5 24.5q-37 0 -77 -10l-25 -80h-48v115q35 11 80 19t82 8zM207 49q34 0 72 19t73 54v127q-68 -2 -118 -14
t-79 -37t-29 -71q0 -35 23 -56.5t58 -21.5z" />
    <glyph glyph-name="Cacute" unicode="&#x106;" horiz-adv-x="660" 
d="M395 723q45 0 99 -9t93 -24v-144h-48l-36 103q-54 14 -101 14q-59 0 -106 -18.5t-80 -56.5t-50 -96t-17 -133q0 -153 65 -231t193 -78q32 0 63 5t71 28l21 95h48v-130q-89 -58 -221 -58q-159 0 -244 94.5t-85 269.5q0 84 23.5 153.5t67 117.5t106 73t138.5 25zM429 972
l64 -48l-126 -146l-33 24z" />
    <glyph glyph-name="cacute" unicode="&#x107;" horiz-adv-x="497" 
d="M310 523q60 0 121 -19v-127h-48l-26 90q-24 4 -70 4q-25 0 -52.5 -10t-51.5 -34.5t-40.5 -64t-16.5 -93.5q0 -101 50 -158t139 -57q85 0 137 29v-48q-27 -21 -71 -33t-95 -12q-53 0 -97 18t-75 51.5t-47.5 80.5t-16.5 104q0 134 68 206.5t192 72.5zM304 772l64 -48
l-126 -146l-33 24z" />
    <glyph glyph-name="Ccircumflex" unicode="&#x108;" horiz-adv-x="660" 
d="M395 723q45 0 99 -9t93 -24v-144h-48l-36 103q-54 14 -101 14q-59 0 -106 -18.5t-80 -56.5t-50 -96t-17 -133q0 -153 65 -231t193 -78q32 0 63 5t71 28l21 95h48v-130q-89 -58 -221 -58q-159 0 -244 94.5t-85 269.5q0 84 23.5 153.5t67 117.5t106 73t138.5 25zM368 908
l-135 -130l-31 26l137 162h58l137 -162l-31 -26z" />
    <glyph glyph-name="ccircumflex" unicode="&#x109;" horiz-adv-x="497" 
d="M310 523q60 0 121 -19v-127h-48l-26 90q-24 4 -70 4q-25 0 -52.5 -10t-51.5 -34.5t-40.5 -64t-16.5 -93.5q0 -101 50 -158t139 -57q85 0 137 29v-48q-27 -21 -71 -33t-95 -12q-53 0 -97 18t-75 51.5t-47.5 80.5t-16.5 104q0 134 68 206.5t192 72.5zM269 708l-135 -130
l-31 26l137 162h58l137 -162l-31 -26z" />
    <glyph glyph-name="Cdotaccent" unicode="&#x10a;" horiz-adv-x="660" 
d="M395 723q45 0 99 -9t93 -24v-144h-48l-36 103q-54 14 -101 14q-59 0 -106 -18.5t-80 -56.5t-50 -96t-17 -133q0 -153 65 -231t193 -78q32 0 63 5t71 28l21 95h48v-130q-89 -58 -221 -58q-159 0 -244 94.5t-85 269.5q0 84 23.5 153.5t67 117.5t106 73t138.5 25zM358 905
q22 0 37.5 -16t15.5 -40t-15.5 -40t-37.5 -16t-37.5 16t-15.5 40t15.5 40t37.5 16z" />
    <glyph glyph-name="cdotaccent" unicode="&#x10b;" horiz-adv-x="497" 
d="M310 523q60 0 121 -19v-127h-48l-26 90q-24 4 -70 4q-25 0 -52.5 -10t-51.5 -34.5t-40.5 -64t-16.5 -93.5q0 -101 50 -158t139 -57q85 0 137 29v-48q-27 -21 -71 -33t-95 -12q-53 0 -97 18t-75 51.5t-47.5 80.5t-16.5 104q0 134 68 206.5t192 72.5zM259 705
q22 0 37.5 -16t15.5 -40t-15.5 -40t-37.5 -16t-37.5 16t-15.5 40t15.5 40t37.5 16z" />
    <glyph glyph-name="Ccaron" unicode="&#x10c;" horiz-adv-x="660" 
d="M395 723q45 0 99 -9t93 -24v-144h-48l-36 103q-54 14 -101 14q-59 0 -106 -18.5t-80 -56.5t-50 -96t-17 -133q0 -153 65 -231t193 -78q32 0 63 5t71 28l21 95h48v-130q-89 -58 -221 -58q-159 0 -244 94.5t-85 269.5q0 84 23.5 153.5t67 117.5t106 73t138.5 25zM373 836
l135 130l31 -26l-137 -162h-58l-137 162l31 26z" />
    <glyph glyph-name="ccaron" unicode="&#x10d;" horiz-adv-x="497" 
d="M310 523q60 0 121 -19v-127h-48l-26 90q-24 4 -70 4q-25 0 -52.5 -10t-51.5 -34.5t-40.5 -64t-16.5 -93.5q0 -101 50 -158t139 -57q85 0 137 29v-48q-27 -21 -71 -33t-95 -12q-53 0 -97 18t-75 51.5t-47.5 80.5t-16.5 104q0 134 68 206.5t192 72.5zM269 636l135 130
l31 -26l-137 -162h-58l-137 162l31 26z" />
    <glyph glyph-name="Dcaron" unicode="&#x10e;" horiz-adv-x="767" 
d="M345 715q77 0 143.5 -19.5t115 -59.5t76 -104t27.5 -148q0 -95 -26 -168.5t-74 -121t-115 -71t-147 -23.5h-275v35l79 22v601l-79 22v35h275zM316 661h-87v-607h87q66 0 121.5 18.5t96 56.5t63 98.5t22.5 139.5q0 76 -20 132.5t-58.5 92t-95 52.5t-129.5 17zM364 836
l135 130l31 -26l-137 -162h-58l-137 162l31 26z" />
    <glyph glyph-name="dcaron" unicode="&#x10f;" horiz-adv-x="587" 
d="M473 750v-686l84 -17v-30l-158 -27v60q-64 -55 -143 -55q-45 0 -83 17t-65.5 50t-42.5 82t-15 109q0 59 17.5 109.5t50 86t78.5 55t101 19.5q51 0 102 -16v169l-84 17v30zM284 57q67 0 115 44v351q-52 23 -102 23q-79 0 -126 -55t-47 -149q0 -101 42.5 -157.5
t117.5 -56.5zM580 755q23 0 37.5 -16.5t14.5 -39.5q0 -51 -21.5 -86t-67.5 -57l-13 27q24 14 36.5 26.5t12.5 32.5l-1 13q-22 2 -35 16t-13 37q0 20 15 33.5t35 13.5z" />
    <glyph glyph-name="Dcroat" unicode="&#x110;" horiz-adv-x="767" 
d="M410 380v-50h-181v-276h87q66 0 121.5 18.5t96 56.5t63 98.5t22.5 139.5q0 76 -20 132.5t-58.5 92t-95 52.5t-129.5 17h-87v-281h181zM345 715q77 0 143.5 -19.5t115 -59.5t76 -104t27.5 -148q0 -95 -26 -168.5t-74 -121t-115 -71t-147 -23.5h-275v35l79 22v273h-79v50
h79v278l-79 22v35h275z" />
    <glyph glyph-name="dcroat" unicode="&#x111;" horiz-adv-x="587" 
d="M557 624v-50h-84v-510l84 -17v-30l-158 -27v60q-64 -55 -143 -55q-45 0 -83 17t-65.5 50t-42.5 82t-15 109q0 59 17.5 109.5t50 86t78.5 55t101 19.5q51 0 102 -16v67h-152v50h152v52l-84 17v30l158 27v-126h84zM284 57q67 0 115 44v351q-52 23 -102 23q-79 0 -126 -55
t-47 -149q0 -101 42.5 -157.5t117.5 -56.5z" />
    <glyph glyph-name="Emacron" unicode="&#x112;" horiz-adv-x="646" 
d="M567 715v-162h-48l-32 112h-258v-281h172l20 72h38v-194h-38l-20 72h-172v-284h282l32 112h48v-162h-521v35l79 22v601l-79 22v35h497zM492 872v-48h-310v48h310z" />
    <glyph glyph-name="emacron" unicode="&#x113;" 
d="M283 523q87 0 138 -56.5t51 -157.5q0 -32 -4 -52h-342q2 -94 52 -148.5t140 -54.5q88 0 140 29v-48q-27 -21 -72 -33t-94 -12q-57 0 -102.5 18t-76.5 52t-47 81.5t-16 104.5q0 129 63.5 203t169.5 74zM279 471q-137 0 -152 -166h273v19q0 69 -33 108t-88 39zM433 672v-48
h-310v48h310z" />
    <glyph glyph-name="Ebreve" unicode="&#x114;" horiz-adv-x="646" 
d="M567 715v-162h-48l-32 112h-258v-281h172l20 72h38v-194h-38l-20 72h-172v-284h282l32 112h48v-162h-521v35l79 22v601l-79 22v35h497zM338 778q-42 0 -77 17t-59.5 51t-37.5 86l45 12q35 -108 129 -108t129 108l45 -12q-13 -52 -37.5 -86t-59.5 -51t-77 -17z" />
    <glyph glyph-name="ebreve" unicode="&#x115;" 
d="M283 523q87 0 138 -56.5t51 -157.5q0 -32 -4 -52h-342q2 -94 52 -148.5t140 -54.5q88 0 140 29v-48q-27 -21 -72 -33t-94 -12q-57 0 -102.5 18t-76.5 52t-47 81.5t-16 104.5q0 129 63.5 203t169.5 74zM279 471q-137 0 -152 -166h273v19q0 69 -33 108t-88 39zM279 578
q-42 0 -77 17t-59.5 51t-37.5 86l45 12q35 -108 129 -108t129 108l45 -12q-13 -52 -37.5 -86t-59.5 -51t-77 -17z" />
    <glyph glyph-name="Edotaccent" unicode="&#x116;" horiz-adv-x="646" 
d="M567 715v-162h-48l-32 112h-258v-281h172l20 72h38v-194h-38l-20 72h-172v-284h282l32 112h48v-162h-521v35l79 22v601l-79 22v35h497zM333 905q22 0 37.5 -16t15.5 -40t-15.5 -40t-37.5 -16t-37.5 16t-15.5 40t15.5 40t37.5 16z" />
    <glyph glyph-name="edotaccent" unicode="&#x117;" 
d="M283 523q87 0 138 -56.5t51 -157.5q0 -32 -4 -52h-342q2 -94 52 -148.5t140 -54.5q88 0 140 29v-48q-27 -21 -72 -33t-94 -12q-57 0 -102.5 18t-76.5 52t-47 81.5t-16 104.5q0 129 63.5 203t169.5 74zM279 471q-137 0 -152 -166h273v19q0 69 -33 108t-88 39zM274 705
q22 0 37.5 -16t15.5 -40t-15.5 -40t-37.5 -16t-37.5 16t-15.5 40t15.5 40t37.5 16z" />
    <glyph glyph-name="Eogonek" unicode="&#x118;" horiz-adv-x="646" 
d="M567 715v-162h-48l-32 112h-258v-281h172l20 72h38v-194h-38l-20 72h-172v-284h282l32 112h48v-162q-43 -10 -76 -27.5t-51 -41t-18 -54.5q0 -26 15 -40t42 -14q33 0 72 17l16 -31q-18 -12 -44.5 -20.5t-51.5 -8.5q-19 0 -43.5 6.5t-39.5 23t-18.5 31t-3.5 25.5
q0 33 17.5 61.5t41.5 46t45 26.5h-424v35l79 22v601l-79 22v35h497z" />
    <glyph glyph-name="eogonek" unicode="&#x119;" 
d="M283 523q87 0 138 -56.5t51 -157.5q0 -32 -4 -52h-342q2 -94 52 -148.5t140 -54.5q88 0 140 29v-48q-12 -9 -28 -17q-77 -39 -103.5 -72.5t-26.5 -68.5q0 -26 15 -40t42 -14q33 0 72 17l16 -31q-18 -12 -44.5 -20.5t-51.5 -8.5q-19 0 -43.5 6.5t-39.5 23t-18.5 31
t-3.5 25.5q0 36 22.5 69.5t57.5 55.5l-32 -1q-57 0 -102.5 18t-76.5 52t-47 81.5t-16 104.5q0 129 63.5 203t169.5 74zM279 471q-137 0 -152 -166h273v19q0 69 -33 108t-88 39z" />
    <glyph glyph-name="Ecaron" unicode="&#x11a;" horiz-adv-x="646" 
d="M567 715v-162h-48l-32 112h-258v-281h172l20 72h38v-194h-38l-20 72h-172v-284h282l32 112h48v-162h-521v35l79 22v601l-79 22v35h497zM338 836l135 130l31 -26l-137 -162h-58l-137 162l31 26z" />
    <glyph glyph-name="ecaron" unicode="&#x11b;" 
d="M283 523q87 0 138 -56.5t51 -157.5q0 -32 -4 -52h-342q2 -94 52 -148.5t140 -54.5q88 0 140 29v-48q-27 -21 -72 -33t-94 -12q-57 0 -102.5 18t-76.5 52t-47 81.5t-16 104.5q0 129 63.5 203t169.5 74zM279 471q-137 0 -152 -166h273v19q0 69 -33 108t-88 39zM279 636
l135 130l31 -26l-137 -162h-58l-137 162l31 26z" />
    <glyph glyph-name="Gcircumflex" unicode="&#x11c;" horiz-adv-x="704" 
d="M395 723q45 0 99 -9t93 -24v-144h-48l-36 103q-54 14 -101 14q-59 0 -106 -18.5t-80 -56.5t-50 -96t-17 -133q0 -153 65 -231t191 -78q69 0 116 22v214l-88 22v35h226v-35l-58 -22v-244q-90 -52 -206 -52q-71 0 -123.5 17.5t-90 45t-64.5 70t-42 101t-15 130.5
q0 84 23.5 153.5t67 117.5t106 73t138.5 25zM372 908l-135 -130l-31 26l137 162h58l137 -162l-31 -26z" />
    <glyph glyph-name="gcircumflex" unicode="&#x11d;" horiz-adv-x="531" 
d="M256 523q57 0 99 -21l170 24v-66l-120 5q42 -48 42 -120q0 -81 -51.5 -129t-139.5 -48q-53 0 -94 18q-12 -11 -19.5 -24.5t-7.5 -23.5q0 -21 22.5 -31.5t82.5 -10.5h91q91 0 129 -32t38 -93q0 -34 -14.5 -69t-47.5 -64t-82.5 -48t-110.5 -19q-33 0 -68 8t-62 25
t-42.5 43.5t-15.5 60.5q0 40 25.5 72t70.5 51q-36 6 -59 25t-23 48q0 64 59 103q-30 22 -46.5 58.5t-16.5 80.5q0 81 51.5 129t139.5 48zM256 475q-23 0 -49.5 -12t-45 -43t-18.5 -72q0 -26 11 -57.5t39 -53t63 -21.5q23 0 49.5 12t45 43t18.5 72q0 26 -11 57.5t-39 53
t-63 21.5zM249 -179q48 0 88.5 16t63 45.5t22.5 69.5q0 21 -9 39.5t-33 27.5t-59 9h-98q-46 -14 -73 -42.5t-27 -66.5q0 -50 35 -74t90 -24zM251 708l-135 -130l-31 26l137 162h58l137 -162l-31 -26z" />
    <glyph glyph-name="Gbreve" unicode="&#x11e;" horiz-adv-x="704" 
d="M395 723q45 0 99 -9t93 -24v-144h-48l-36 103q-54 14 -101 14q-59 0 -106 -18.5t-80 -56.5t-50 -96t-17 -133q0 -153 65 -231t191 -78q69 0 116 22v214l-88 22v35h226v-35l-58 -22v-244q-90 -52 -206 -52q-71 0 -123.5 17.5t-90 45t-64.5 70t-42 101t-15 130.5
q0 84 23.5 153.5t67 117.5t106 73t138.5 25zM362 778q-42 0 -77 17t-59.5 51t-37.5 86l45 12q35 -108 129 -108t129 108l45 -12q-13 -52 -37.5 -86t-59.5 -51t-77 -17z" />
    <glyph glyph-name="gbreve" unicode="&#x11f;" horiz-adv-x="531" 
d="M256 523q57 0 99 -21l170 24v-66l-120 5q42 -48 42 -120q0 -81 -51.5 -129t-139.5 -48q-53 0 -94 18q-12 -11 -19.5 -24.5t-7.5 -23.5q0 -21 22.5 -31.5t82.5 -10.5h91q91 0 129 -32t38 -93q0 -34 -14.5 -69t-47.5 -64t-82.5 -48t-110.5 -19q-33 0 -68 8t-62 25
t-42.5 43.5t-15.5 60.5q0 40 25.5 72t70.5 51q-36 6 -59 25t-23 48q0 64 59 103q-30 22 -46.5 58.5t-16.5 80.5q0 81 51.5 129t139.5 48zM256 475q-23 0 -49.5 -12t-45 -43t-18.5 -72q0 -26 11 -57.5t39 -53t63 -21.5q23 0 49.5 12t45 43t18.5 72q0 26 -11 57.5t-39 53
t-63 21.5zM249 -179q48 0 88.5 16t63 45.5t22.5 69.5q0 21 -9 39.5t-33 27.5t-59 9h-98q-46 -14 -73 -42.5t-27 -66.5q0 -50 35 -74t90 -24zM251 578q-42 0 -77 17t-59.5 51t-37.5 86l45 12q35 -108 129 -108t129 108l45 -12q-13 -52 -37.5 -86t-59.5 -51t-77 -17z" />
    <glyph glyph-name="Gdotaccent" unicode="&#x120;" horiz-adv-x="704" 
d="M395 723q45 0 99 -9t93 -24v-144h-48l-36 103q-54 14 -101 14q-59 0 -106 -18.5t-80 -56.5t-50 -96t-17 -133q0 -153 65 -231t191 -78q69 0 116 22v214l-88 22v35h226v-35l-58 -22v-244q-90 -52 -206 -52q-71 0 -123.5 17.5t-90 45t-64.5 70t-42 101t-15 130.5
q0 84 23.5 153.5t67 117.5t106 73t138.5 25zM362 905q22 0 37.5 -16t15.5 -40t-15.5 -40t-37.5 -16t-37.5 16t-15.5 40t15.5 40t37.5 16z" />
    <glyph glyph-name="gdotaccent" unicode="&#x121;" horiz-adv-x="531" 
d="M256 523q57 0 99 -21l170 24v-66l-120 5q42 -48 42 -120q0 -81 -51.5 -129t-139.5 -48q-53 0 -94 18q-12 -11 -19.5 -24.5t-7.5 -23.5q0 -21 22.5 -31.5t82.5 -10.5h91q91 0 129 -32t38 -93q0 -34 -14.5 -69t-47.5 -64t-82.5 -48t-110.5 -19q-33 0 -68 8t-62 25
t-42.5 43.5t-15.5 60.5q0 40 25.5 72t70.5 51q-36 6 -59 25t-23 48q0 64 59 103q-30 22 -46.5 58.5t-16.5 80.5q0 81 51.5 129t139.5 48zM256 475q-23 0 -49.5 -12t-45 -43t-18.5 -72q0 -26 11 -57.5t39 -53t63 -21.5q23 0 49.5 12t45 43t18.5 72q0 26 -11 57.5t-39 53
t-63 21.5zM249 -179q48 0 88.5 16t63 45.5t22.5 69.5q0 21 -9 39.5t-33 27.5t-59 9h-98q-46 -14 -73 -42.5t-27 -66.5q0 -50 35 -74t90 -24zM241 705q22 0 37.5 -16t15.5 -40t-15.5 -40t-37.5 -16t-37.5 16t-15.5 40t15.5 40t37.5 16z" />
    <glyph glyph-name="Gcommaaccent" unicode="&#x122;" horiz-adv-x="704" 
d="M395 723q45 0 99 -9t93 -24v-144h-48l-36 103q-54 14 -101 14q-59 0 -106 -18.5t-80 -56.5t-50 -96t-17 -133q0 -153 65 -231t191 -78q69 0 116 22v214l-88 22v35h226v-35l-58 -22v-244q-90 -52 -206 -52q-71 0 -123.5 17.5t-90 45t-64.5 70t-42 101t-15 130.5
q0 84 23.5 153.5t67 117.5t106 73t138.5 25zM366 -48q23 0 37.5 -16.5t14.5 -39.5q0 -51 -21.5 -86t-67.5 -57l-13 27q24 14 36.5 26.5t12.5 32.5l-1 13q-22 2 -35 16t-13 37q0 20 15 33.5t35 13.5z" />
    <glyph glyph-name="gcommaaccent" unicode="&#x123;" horiz-adv-x="531" 
d="M256 523q57 0 99 -21l170 24v-66l-120 5q42 -48 42 -120q0 -81 -51.5 -129t-139.5 -48q-53 0 -94 18q-12 -11 -19.5 -24.5t-7.5 -23.5q0 -21 22.5 -31.5t82.5 -10.5h91q91 0 129 -32t38 -93q0 -34 -14.5 -69t-47.5 -64t-82.5 -48t-110.5 -19q-33 0 -68 8t-62 25
t-42.5 43.5t-15.5 60.5q0 40 25.5 72t70.5 51q-36 6 -59 25t-23 48q0 64 59 103q-30 22 -46.5 58.5t-16.5 80.5q0 81 51.5 129t139.5 48zM256 475q-23 0 -49.5 -12t-45 -43t-18.5 -72q0 -26 11 -57.5t39 -53t63 -21.5q23 0 49.5 12t45 43t18.5 72q0 26 -11 57.5t-39 53
t-63 21.5zM249 -179q48 0 88.5 16t63 45.5t22.5 69.5q0 21 -9 39.5t-33 27.5t-59 9h-98q-46 -14 -73 -42.5t-27 -66.5q0 -50 35 -74t90 -24zM247 578q-23 0 -37.5 16.5t-14.5 39.5q0 51 21.5 86t67.5 57l13 -27q-24 -14 -36.5 -26.5t-12.5 -32.5l1 -13q22 -2 35 -16t13 -37
q0 -20 -15 -33.5t-35 -13.5z" />
    <glyph glyph-name="Hcircumflex" unicode="&#x124;" horiz-adv-x="806" 
d="M308 715v-35l-79 -22v-268h348v268l-79 22v35h238v-35l-79 -22v-601l79 -22v-35h-238v35l79 22v283h-348v-283l79 -22v-35h-238v35l79 22v601l-79 22v35h238zM403 908l-135 -130l-31 26l137 162h58l137 -162l-31 -26z" />
    <glyph glyph-name="hcircumflex" unicode="&#x125;" horiz-adv-x="616" 
d="M188 750v-293q40 31 87 48.5t92 17.5q150 0 150 -166v-302l74 -25v-30h-212v30l64 25v290q0 114 -109 114q-31 0 -70 -15t-76 -41v-348l64 -25v-30h-212v30l74 25v621l-84 17v30zM308 928l-135 -130l-31 26l137 162h58l137 -162l-31 -26z" />
    <glyph glyph-name="Hbar" unicode="&#x126;" horiz-adv-x="806" 
d="M736 550v-50h-79v-443l79 -22v-35h-238v35l79 22v283h-348v-283l79 -22v-35h-238v35l79 22v443h-79v50h79v108l-79 22v35h238v-35l-79 -22v-108h348v108l-79 22v35h238v-35l-79 -22v-108h79zM577 390v110h-348v-110h348z" />
    <glyph glyph-name="hbar" unicode="&#x127;" horiz-adv-x="616" 
d="M340 624v-50h-152v-117q40 31 87 48.5t92 17.5q150 0 150 -166v-302l74 -25v-30h-212v30l64 25v290q0 114 -109 114q-31 0 -70 -15t-76 -41v-348l64 -25v-30h-212v30l74 25v519h-84v50h84v52l-84 17v30l158 27v-126h152z" />
    <glyph glyph-name="Itilde" unicode="&#x128;" horiz-adv-x="378" 
d="M308 715v-35l-79 -22v-601l79 -22v-35h-238v35l79 22v601l-79 22v35h238zM273 845q16 0 32.5 11t31.5 51l32 -10q-10 -51 -27.5 -74t-35.5 -29.5t-36 -6.5q-15 0 -36 7t-66.5 35t-63.5 28q-16 0 -32.5 -11t-31.5 -51l-32 10q10 51 27.5 74t35.5 29.5t36 6.5q15 0 36 -7
t66.5 -35t63.5 -28z" />
    <glyph glyph-name="itilde" unicode="&#x129;" horiz-adv-x="302" 
d="M198 517v-462l74 -25v-30h-222v30l74 25v388l-84 17v30zM230 645q16 0 32.5 11t31.5 51l32 -10q-10 -51 -27.5 -74t-35.5 -29.5t-36 -6.5q-15 0 -36 7t-66.5 35t-63.5 28q-16 0 -32.5 -11t-31.5 -51l-32 10q10 51 27.5 74t35.5 29.5t36 6.5q15 0 36 -7t66.5 -35t63.5 -28
z" />
    <glyph glyph-name="Imacron" unicode="&#x12a;" horiz-adv-x="378" 
d="M308 715v-35l-79 -22v-601l79 -22v-35h-238v35l79 22v601l-79 22v35h238zM343 872v-48h-310v48h310z" />
    <glyph glyph-name="imacron" unicode="&#x12b;" horiz-adv-x="302" 
d="M198 517v-462l74 -25v-30h-222v30l74 25v388l-84 17v30zM300 672v-48h-310v48h310z" />
    <glyph glyph-name="Ibreve" unicode="&#x12c;" horiz-adv-x="378" 
d="M308 715v-35l-79 -22v-601l79 -22v-35h-238v35l79 22v601l-79 22v35h238zM189 778q-42 0 -77 17t-59.5 51t-37.5 86l45 12q35 -108 129 -108t129 108l45 -12q-13 -52 -37.5 -86t-59.5 -51t-77 -17z" />
    <glyph glyph-name="ibreve" unicode="&#x12d;" horiz-adv-x="302" 
d="M198 517v-462l74 -25v-30h-222v30l74 25v388l-84 17v30zM146 578q-42 0 -77 17t-59.5 51t-37.5 86l45 12q35 -108 129 -108t129 108l45 -12q-13 -52 -37.5 -86t-59.5 -51t-77 -17z" />
    <glyph glyph-name="Iogonek" unicode="&#x12e;" horiz-adv-x="378" 
d="M308 715v-35l-79 -22v-601l79 -22v-35q-43 -10 -76 -27.5t-51 -41t-18 -54.5q0 -26 15 -40t42 -14q33 0 72 17l16 -31q-18 -12 -44.5 -20.5t-51.5 -8.5q-19 0 -43.5 6.5t-39.5 23t-18.5 31t-3.5 25.5q0 33 17.5 61.5t41.5 46t45 26.5h-141v35l79 22v601l-79 22v35h238z
" />
    <glyph glyph-name="iogonek" unicode="&#x12f;" horiz-adv-x="302" 
d="M198 517v-462l74 -25v-30q-43 -10 -76 -27.5t-51 -41t-18 -54.5q0 -26 15 -40t42 -14q33 0 72 17l16 -31q-18 -12 -44.5 -20.5t-51.5 -8.5q-19 0 -43.5 6.5t-39.5 23t-18.5 31t-3.5 25.5q0 33 17.5 61.5t41.5 46t45 26.5h-125v30l74 25v388l-84 17v30zM153 723
q23 0 39.5 -16.5t16.5 -39.5t-16.5 -39.5t-39.5 -16.5t-39.5 16.5t-16.5 39.5t16.5 39.5t39.5 16.5z" />
    <glyph glyph-name="Idotaccent" unicode="&#x130;" horiz-adv-x="378" 
d="M308 715v-35l-79 -22v-601l79 -22v-35h-238v35l79 22v601l-79 22v35h238zM189 905q22 0 37.5 -16t15.5 -40t-15.5 -40t-37.5 -16t-37.5 16t-15.5 40t15.5 40t37.5 16z" />
    <glyph glyph-name="dotlessi" unicode="&#x131;" horiz-adv-x="302" 
d="M198 517v-462l74 -25v-30h-222v30l74 25v388l-84 17v30z" />
    <glyph glyph-name="IJ" unicode="&#x132;" horiz-adv-x="739" 
d="M308 715v-35l-79 -22v-601l79 -22v-35h-238v35l79 22v601l-79 22v35h238zM684 715v-35l-79 -22v-498q0 -79 -7.5 -140t-34.5 -113q-34 -63 -140 -136l-25 31q78 72 102.5 138t24.5 163v555l-79 22v35h238z" />
    <glyph glyph-name="ij" unicode="&#x133;" horiz-adv-x="595" 
d="M198 517v-462l74 -25v-30h-222v30l74 25v388l-84 17v30zM153 723q23 0 39.5 -16.5t16.5 -39.5t-16.5 -39.5t-39.5 -16.5t-39.5 16.5t-16.5 39.5t16.5 39.5t39.5 16.5zM499 517v-379q0 -75 -6.5 -132t-31.5 -104q-35 -65 -128 -129l-26 31q72 66 95 128t23 153v358l-84 17
v30zM454 723q23 0 39.5 -16.5t16.5 -39.5t-16.5 -39.5t-39.5 -16.5t-39.5 16.5t-16.5 39.5t16.5 39.5t39.5 16.5z" />
    <glyph glyph-name="Jcircumflex" unicode="&#x134;" horiz-adv-x="361" 
d="M306 715v-35l-79 -22v-498q0 -79 -7.5 -140t-34.5 -113q-34 -63 -140 -136l-25 31q78 72 102.5 138t24.5 163v555l-79 22v35h238zM187 908l-135 -130l-31 26l137 162h58l137 -162l-31 -26z" />
    <glyph glyph-name="jcircumflex" unicode="&#x135;" horiz-adv-x="292" 
d="M197 517v-379q0 -75 -6.5 -132t-31.5 -104q-35 -65 -128 -129l-26 31q72 66 95 128t23 153v358l-84 17v30zM150 708l-135 -130l-31 26l137 162h58l137 -162l-31 -26z" />
    <glyph glyph-name="Kcommaaccent" unicode="&#x136;" horiz-adv-x="662" 
d="M308 715v-35l-79 -22v-601l79 -22v-35h-238v35l79 22v601l-79 22v35h238zM625 715v-35l-59 -22l-204 -273l216 -328l69 -22v-35h-131l-237 367l216 291l-59 22v35h189zM375 -48q23 0 37.5 -16.5t14.5 -39.5q0 -51 -21.5 -86t-67.5 -57l-13 27q24 14 36.5 26.5t12.5 32.5
l-1 13q-22 2 -35 16t-13 37q0 20 15 33.5t35 13.5z" />
    <glyph glyph-name="kcommaaccent" unicode="&#x137;" horiz-adv-x="545" 
d="M188 750v-695l64 -25v-30h-212v30l74 25v621l-84 17v30zM522 515v-30l-59 -22l-147 -163l167 -246l57 -24v-30h-122l-180 276l164 187l-57 22v30h177zM307 -48q23 0 37.5 -16.5t14.5 -39.5q0 -51 -21.5 -86t-67.5 -57l-13 27q24 14 36.5 26.5t12.5 32.5l-1 13
q-22 2 -35 16t-13 37q0 20 15 33.5t35 13.5z" />
    <glyph glyph-name="Lacute" unicode="&#x139;" horiz-adv-x="623" 
d="M318 715v-35l-89 -22v-608h243l48 152h48v-202h-498v35l79 22v601l-79 22v35h248zM234 972l64 -48l-126 -146l-33 24z" />
    <glyph glyph-name="lacute" unicode="&#x13a;" horiz-adv-x="302" 
d="M188 750v-695l74 -25v-30h-222v30l74 25v621l-84 17v30zM201 992l64 -48l-126 -146l-33 24z" />
    <glyph glyph-name="Lcommaaccent" unicode="&#x13b;" horiz-adv-x="623" 
d="M318 715v-35l-89 -22v-608h243l48 152h48v-202h-498v35l79 22v601l-79 22v35h248zM331 -48q23 0 37.5 -16.5t14.5 -39.5q0 -51 -21.5 -86t-67.5 -57l-13 27q24 14 36.5 26.5t12.5 32.5l-1 13q-22 2 -35 16t-13 37q0 20 15 33.5t35 13.5z" />
    <glyph glyph-name="lcommaaccent" unicode="&#x13c;" horiz-adv-x="302" 
d="M188 750v-695l74 -25v-30h-222v30l74 25v621l-84 17v30zM150 -48q23 0 37.5 -16.5t14.5 -39.5q0 -51 -21.5 -86t-67.5 -57l-13 27q24 14 36.5 26.5t12.5 32.5l-1 13q-22 2 -35 16t-13 37q0 20 15 33.5t35 13.5z" />
    <glyph glyph-name="Lcaron" unicode="&#x13d;" horiz-adv-x="623" 
d="M318 715v-35l-89 -22v-608h243l48 152h48v-202h-498v35l79 22v601l-79 22v35h248zM416 723q23 0 37.5 -16.5t14.5 -39.5q0 -51 -21.5 -86t-67.5 -57l-13 27q24 14 36.5 26.5t12.5 32.5l-1 13q-22 2 -35 16t-13 37q0 20 15 33.5t35 13.5z" />
    <glyph glyph-name="lcaron" unicode="&#x13e;" horiz-adv-x="302" 
d="M188 750v-695l74 -25v-30h-222v30l74 25v621l-84 17v30zM295 755q23 0 37.5 -16.5t14.5 -39.5q0 -51 -21.5 -86t-67.5 -57l-13 27q24 14 36.5 26.5t12.5 32.5l-1 13q-22 2 -35 16t-13 37q0 20 15 33.5t35 13.5z" />
    <glyph glyph-name="Ldot" unicode="&#x13f;" horiz-adv-x="623" 
d="M318 715v-35l-89 -22v-608h243l48 152h48v-202h-498v35l79 22v601l-79 22v35h248zM503 450q24 0 43.5 -19.5t19.5 -43.5q0 -26 -19 -46.5t-44 -20.5q-27 0 -47 20t-20 47q0 25 20.5 44t46.5 19z" />
    <glyph glyph-name="ldot" unicode="&#x140;" horiz-adv-x="302" 
d="M188 750v-695l74 -25v-30h-222v30l74 25v621l-84 17v30zM304 450q24 0 43.5 -19.5t19.5 -43.5q0 -26 -19 -46.5t-44 -20.5q-27 0 -47 20t-20 47q0 25 20.5 44t46.5 19z" />
    <glyph glyph-name="Lslash" unicode="&#x141;" horiz-adv-x="623" 
d="M395 522l27 -43l-193 -121v-308h243l48 152h48v-202h-498v35l79 22v251l-84 -53l-27 43l111 70v290l-79 22v35h248v-35l-89 -22v-240z" />
    <glyph glyph-name="lslash" unicode="&#x142;" horiz-adv-x="302" 
d="M262 480l27 -43l-101 -64v-318l74 -25v-30h-222v30l74 25v272l-76 -48l-27 43l103 65v289l-84 17v30l158 27v-317z" />
    <glyph glyph-name="Nacute" unicode="&#x143;" horiz-adv-x="808" 
d="M758 715v-35l-79 -22v-658l-54 -10l-421 608v-541l79 -22v-35h-213v35l79 22v601l-79 22v35h146l409 -587v530l-79 22v35h212zM464 972l64 -48l-126 -146l-33 24z" />
    <glyph glyph-name="nacute" unicode="&#x144;" horiz-adv-x="626" 
d="M198 522v-65q40 31 87 48.5t92 17.5q150 0 150 -166v-302l74 -25v-30h-212v30l64 25v290q0 114 -109 114q-31 0 -70 -15t-76 -41v-348l64 -25v-30h-212v30l74 25v388l-84 17v30zM363 772l64 -48l-126 -146l-33 24z" />
    <glyph glyph-name="Ncommaaccent" unicode="&#x145;" horiz-adv-x="808" 
d="M758 715v-35l-79 -22v-658l-54 -10l-421 608v-541l79 -22v-35h-213v35l79 22v601l-79 22v35h146l409 -587v530l-79 22v35h212zM423 -48q23 0 37.5 -16.5t14.5 -39.5q0 -51 -21.5 -86t-67.5 -57l-13 27q24 14 36.5 26.5t12.5 32.5l-1 13q-22 2 -35 16t-13 37q0 20 15 33.5
t35 13.5z" />
    <glyph glyph-name="ncommaaccent" unicode="&#x146;" horiz-adv-x="626" 
d="M198 522v-65q40 31 87 48.5t92 17.5q150 0 150 -166v-302l74 -25v-30h-212v30l64 25v290q0 114 -109 114q-31 0 -70 -15t-76 -41v-348l64 -25v-30h-212v30l74 25v388l-84 17v30zM317 -48q23 0 37.5 -16.5t14.5 -39.5q0 -51 -21.5 -86t-67.5 -57l-13 27q24 14 36.5 26.5
t12.5 32.5l-1 13q-22 2 -35 16t-13 37q0 20 15 33.5t35 13.5z" />
    <glyph glyph-name="Ncaron" unicode="&#x147;" horiz-adv-x="808" 
d="M758 715v-35l-79 -22v-658l-54 -10l-421 608v-541l79 -22v-35h-213v35l79 22v601l-79 22v35h146l409 -587v530l-79 22v35h212zM409 836l135 130l31 -26l-137 -162h-58l-137 162l31 26z" />
    <glyph glyph-name="ncaron" unicode="&#x148;" horiz-adv-x="626" 
d="M198 522v-65q40 31 87 48.5t92 17.5q150 0 150 -166v-302l74 -25v-30h-212v30l64 25v290q0 114 -109 114q-31 0 -70 -15t-76 -41v-348l64 -25v-30h-212v30l74 25v388l-84 17v30zM328 636l135 130l31 -26l-137 -162h-58l-137 162l31 26z" />
    <glyph glyph-name="Omacron" unicode="&#x14c;" horiz-adv-x="742" 
d="M385 723q67 0 122.5 -25t94.5 -73t59.5 -116t20.5 -151q0 -85 -22 -154t-64 -116.5t-103 -72.5t-136 -25q-67 0 -122.5 25t-94.5 73t-59.5 116t-20.5 151q0 85 22 154t64 116.5t103 72.5t136 25zM359 663q-102 0 -157.5 -79.5t-55.5 -226.5q0 -307 237 -307
q102 0 157.5 79.5t55.5 226.5q0 307 -237 307zM525 872v-48h-310v48h310z" />
    <glyph glyph-name="omacron" unicode="&#x14d;" horiz-adv-x="552" 
d="M283 523q43 0 83 -17t70.5 -50.5t48 -84.5t17.5 -114q0 -64 -18 -114.5t-50 -84t-74.5 -50.5t-90.5 -17q-43 0 -83 17t-70.5 50.5t-48 84.5t-17.5 114q0 64 18 114.5t50 84t74.5 50.5t90.5 17zM268 475q-36 0 -69.5 -23.5t-52 -72t-18.5 -106.5q0 -116 42 -175t114 -59
q36 0 69.5 23.5t52 72t18.5 106.5q0 116 -42 175t-114 59zM430 672v-48h-310v48h310z" />
    <glyph glyph-name="Obreve" unicode="&#x14e;" horiz-adv-x="742" 
d="M385 723q67 0 122.5 -25t94.5 -73t59.5 -116t20.5 -151q0 -85 -22 -154t-64 -116.5t-103 -72.5t-136 -25q-67 0 -122.5 25t-94.5 73t-59.5 116t-20.5 151q0 85 22 154t64 116.5t103 72.5t136 25zM359 663q-102 0 -157.5 -79.5t-55.5 -226.5q0 -307 237 -307
q102 0 157.5 79.5t55.5 226.5q0 307 -237 307zM371 778q-42 0 -77 17t-59.5 51t-37.5 86l45 12q35 -108 129 -108t129 108l45 -12q-13 -52 -37.5 -86t-59.5 -51t-77 -17z" />
    <glyph glyph-name="obreve" unicode="&#x14f;" horiz-adv-x="552" 
d="M283 523q43 0 83 -17t70.5 -50.5t48 -84.5t17.5 -114q0 -64 -18 -114.5t-50 -84t-74.5 -50.5t-90.5 -17q-43 0 -83 17t-70.5 50.5t-48 84.5t-17.5 114q0 64 18 114.5t50 84t74.5 50.5t90.5 17zM268 475q-36 0 -69.5 -23.5t-52 -72t-18.5 -106.5q0 -116 42 -175t114 -59
q36 0 69.5 23.5t52 72t18.5 106.5q0 116 -42 175t-114 59zM276 578q-42 0 -77 17t-59.5 51t-37.5 86l45 12q35 -108 129 -108t129 108l45 -12q-13 -52 -37.5 -86t-59.5 -51t-77 -17z" />
    <glyph glyph-name="Ohungarumlaut" unicode="&#x150;" horiz-adv-x="742" 
d="M385 723q67 0 122.5 -25t94.5 -73t59.5 -116t20.5 -151q0 -85 -22 -154t-64 -116.5t-103 -72.5t-136 -25q-67 0 -122.5 25t-94.5 73t-59.5 116t-20.5 151q0 85 22 154t64 116.5t103 72.5t136 25zM359 663q-102 0 -157.5 -79.5t-55.5 -226.5q0 -307 237 -307
q102 0 157.5 79.5t55.5 226.5q0 307 -237 307zM341 972l64 -48l-126 -146l-33 24zM482 972l64 -48l-126 -146l-33 24z" />
    <glyph glyph-name="ohungarumlaut" unicode="&#x151;" horiz-adv-x="552" 
d="M283 523q43 0 83 -17t70.5 -50.5t48 -84.5t17.5 -114q0 -64 -18 -114.5t-50 -84t-74.5 -50.5t-90.5 -17q-43 0 -83 17t-70.5 50.5t-48 84.5t-17.5 114q0 64 18 114.5t50 84t74.5 50.5t90.5 17zM268 475q-36 0 -69.5 -23.5t-52 -72t-18.5 -106.5q0 -116 42 -175t114 -59
q36 0 69.5 23.5t52 72t18.5 106.5q0 116 -42 175t-114 59zM251 772l64 -48l-126 -146l-33 24zM392 772l64 -48l-126 -146l-33 24z" />
    <glyph glyph-name="OE" unicode="&#x152;" horiz-adv-x="976" 
d="M371 719q33 0 57 -4h469v-162h-48l-32 112h-258v-281h172l20 72h38v-194h-38l-20 72h-172v-284h282l32 112h48v-162h-461q-39 -10 -89 -10q-76 0 -135 25.5t-98 73t-58.5 115t-19.5 149.5q0 83 19.5 151t58.5 116t98 73.5t135 25.5zM371 667q-116 0 -170.5 -79.5
t-54.5 -232.5q0 -75 12.5 -133t39.5 -98t70.5 -61t102.5 -21q63 0 108 24v577q-48 24 -108 24z" />
    <glyph glyph-name="oe" unicode="&#x153;" horiz-adv-x="883" 
d="M278 523q54 0 101.5 -27.5t75.5 -78.5q29 50 78.5 78t109.5 28q85 0 135 -56.5t50 -157.5q0 -32 -4 -52h-332q2 -94 50.5 -148.5t135.5 -54.5q85 0 136 29v-38q-29 -26 -71.5 -40.5t-90.5 -14.5q-33 0 -71.5 9t-72.5 34t-56 61q-30 -50 -79.5 -76.5t-108.5 -26.5
q-42 0 -81 17t-69 50.5t-47 84.5t-17 114q0 64 17.5 114.5t49 84t73 50.5t88.5 17zM639 475q-65 0 -102 -43.5t-44 -126.5h263v19q0 70 -32 110.5t-85 40.5zM263 475q-20 0 -42.5 -9t-43 -32t-35 -63t-14.5 -98q0 -116 41 -175t110 -59q20 0 42.5 9t43 32t35 63t14.5 98
q0 116 -41 175t-110 59z" />
    <glyph glyph-name="Racute" unicode="&#x154;" horiz-adv-x="662" 
d="M320 715q82 0 136 -23.5t81.5 -64.5t27.5 -101q0 -30 -12 -66.5t-45.5 -69t-80.5 -49.5l146 -286l64 -22v-33h-137l-155 324l-32 -1h-87v-266l79 -22v-35h-235v35l79 22v601l-79 22v35h250zM285 665h-59v-292h96q159 0 159 145q0 147 -196 147zM366 972l64 -48l-126 -146
l-33 24z" />
    <glyph glyph-name="racute" unicode="&#x155;" horiz-adv-x="425" 
d="M371 523q25 0 49 -7l-14 -83q-24 6 -56 6q-38 0 -78.5 -23t-73.5 -62v-299l94 -25v-30h-242v30l74 25v388l-84 17v30l158 32v-121q39 63 83 92.5t90 29.5zM267 772l64 -48l-126 -146l-33 24z" />
    <glyph glyph-name="Rcommaaccent" unicode="&#x156;" horiz-adv-x="662" 
d="M320 715q82 0 136 -23.5t81.5 -64.5t27.5 -101q0 -30 -12 -66.5t-45.5 -69t-80.5 -49.5l146 -286l64 -22v-33h-137l-155 324l-32 -1h-87v-266l79 -22v-35h-235v35l79 22v601l-79 22v35h250zM285 665h-59v-292h96q159 0 159 145q0 147 -196 147zM355 -48q23 0 37.5 -16.5
t14.5 -39.5q0 -51 -21.5 -86t-67.5 -57l-13 27q24 14 36.5 26.5t12.5 32.5l-1 13q-22 2 -35 16t-13 37q0 20 15 33.5t35 13.5z" />
    <glyph glyph-name="rcommaaccent" unicode="&#x157;" horiz-adv-x="425" 
d="M371 523q25 0 49 -7l-14 -83q-24 6 -56 6q-38 0 -78.5 -23t-73.5 -62v-299l94 -25v-30h-242v30l74 25v388l-84 17v30l158 32v-121q39 63 83 92.5t90 29.5zM160 -48q23 0 37.5 -16.5t14.5 -39.5q0 -51 -21.5 -86t-67.5 -57l-13 27q24 14 36.5 26.5t12.5 32.5l-1 13
q-22 2 -35 16t-13 37q0 20 15 33.5t35 13.5z" />
    <glyph glyph-name="Rcaron" unicode="&#x158;" horiz-adv-x="662" 
d="M320 715q82 0 136 -23.5t81.5 -64.5t27.5 -101q0 -30 -12 -66.5t-45.5 -69t-80.5 -49.5l146 -286l64 -22v-33h-137l-155 324l-32 -1h-87v-266l79 -22v-35h-235v35l79 22v601l-79 22v35h250zM285 665h-59v-292h96q159 0 159 145q0 147 -196 147zM326 836l135 130l31 -26
l-137 -162h-58l-137 162l31 26z" />
    <glyph glyph-name="rcaron" unicode="&#x159;" horiz-adv-x="425" 
d="M371 523q25 0 49 -7l-14 -83q-24 6 -56 6q-38 0 -78.5 -23t-73.5 -62v-299l94 -25v-30h-242v30l74 25v388l-84 17v30l158 32v-121q39 63 83 92.5t90 29.5zM237 636l135 130l31 -26l-137 -162h-58l-137 162l31 26z" />
    <glyph glyph-name="Sacute" unicode="&#x15a;" horiz-adv-x="582" 
d="M303 723q42 0 98 -10t90 -25v-153h-48l-37 113q-49 15 -105 15q-66 0 -104 -28t-38 -77q0 -43 30.5 -76t117.5 -78q116 -59 163 -108t47 -110q0 -87 -65 -141.5t-170 -54.5q-47 0 -103.5 12.5t-108.5 36.5v159h48l37 -123q30 -11 65.5 -18t58.5 -7q33 0 70.5 10.5
t62.5 37.5t25 64q0 34 -13 58.5t-50 51t-126 71.5t-128 91t-39 106q0 84 60 133.5t162 49.5zM361 972l64 -48l-126 -146l-33 24z" />
    <glyph glyph-name="sacute" unicode="&#x15b;" horiz-adv-x="449" 
d="M231 523q63 0 147 -30v-114h-48l-27 88q-12 5 -36 8.5t-42 3.5q-43 0 -71 -20.5t-28 -51.5q0 -19 8 -38t35.5 -36.5t87.5 -40.5q72 -27 104.5 -63t32.5 -92q0 -38 -21 -70.5t-62 -54.5t-98 -22q-38 0 -79 9.5t-76 26.5v116h48l26 -83q14 -8 38.5 -14.5t43.5 -6.5
q49 0 77.5 22.5t28.5 61.5q0 36 -29 62.5t-100 53.5q-81 32 -108.5 64t-27.5 86q0 22 8.5 45t29.5 43t55.5 33.5t82.5 13.5zM274 772l64 -48l-126 -146l-33 24z" />
    <glyph glyph-name="Scircumflex" unicode="&#x15c;" horiz-adv-x="582" 
d="M303 723q42 0 98 -10t90 -25v-153h-48l-37 113q-49 15 -105 15q-66 0 -104 -28t-38 -77q0 -43 30.5 -76t117.5 -78q116 -59 163 -108t47 -110q0 -87 -65 -141.5t-170 -54.5q-47 0 -103.5 12.5t-108.5 36.5v159h48l37 -123q30 -11 65.5 -18t58.5 -7q33 0 70.5 10.5
t62.5 37.5t25 64q0 34 -13 58.5t-50 51t-126 71.5t-128 91t-39 106q0 84 60 133.5t162 49.5zM291 908l-135 -130l-31 26l137 162h58l137 -162l-31 -26z" />
    <glyph glyph-name="scircumflex" unicode="&#x15d;" horiz-adv-x="449" 
d="M231 523q63 0 147 -30v-114h-48l-27 88q-12 5 -36 8.5t-42 3.5q-43 0 -71 -20.5t-28 -51.5q0 -19 8 -38t35.5 -36.5t87.5 -40.5q72 -27 104.5 -63t32.5 -92q0 -38 -21 -70.5t-62 -54.5t-98 -22q-38 0 -79 9.5t-76 26.5v116h48l26 -83q14 -8 38.5 -14.5t43.5 -6.5
q49 0 77.5 22.5t28.5 61.5q0 36 -29 62.5t-100 53.5q-81 32 -108.5 64t-27.5 86q0 22 8.5 45t29.5 43t55.5 33.5t82.5 13.5zM229 708l-135 -130l-31 26l137 162h58l137 -162l-31 -26z" />
    <glyph glyph-name="Scedilla" unicode="&#x15e;" horiz-adv-x="582" 
d="M280 -220q-21 0 -48 8.5t-45 20.5l16 31q14 -6 35 -11.5t36 -5.5q26 0 45 10.5t19 31.5q0 20 -15 29t-35.5 14t-42.5 9l21 73q-47 2 -99.5 15.5t-96.5 33.5v159h48l37 -123q30 -11 65.5 -18t58.5 -7q33 0 70.5 10.5t62.5 37.5t25 64q0 34 -13 58.5t-50 51t-126 71.5
t-128 91t-39 106q0 84 60 133.5t162 49.5q42 0 98 -10t90 -25v-153h-48l-37 113q-49 15 -105 15q-66 0 -104 -28t-38 -77q0 -43 30.5 -76t117.5 -78q116 -59 163 -108t47 -110q0 -30 -10 -62t-35 -60t-66 -48.5t-99 -24.5l-11 -40q51 -11 74.5 -31t23.5 -53
q0 -18 -10.5 -38.5t-38.5 -34.5t-65 -14z" />
    <glyph glyph-name="scedilla" unicode="&#x15f;" horiz-adv-x="449" 
d="M206 -220q-21 0 -48 8.5t-45 20.5l16 31q14 -6 35 -11.5t36 -5.5q26 0 45 10.5t19 31.5q0 20 -15 29t-35.5 14t-42.5 9l21 74q-67 3 -134 35v116h48l26 -83q14 -8 38.5 -14.5t43.5 -6.5q49 0 77.5 22.5t28.5 61.5q0 36 -29 62.5t-100 53.5q-81 32 -108.5 64t-27.5 86
q0 22 8.5 45t29.5 43t55.5 33.5t82.5 13.5q63 0 147 -30v-114h-48l-27 88q-12 5 -36 8.5t-42 3.5q-43 0 -71 -20.5t-28 -51.5q0 -19 8 -38t35.5 -36.5t87.5 -40.5q72 -27 104.5 -63t32.5 -92q0 -58 -45.5 -99.5t-115.5 -46.5l-11 -40q51 -11 74.5 -31t23.5 -53
q0 -18 -10.5 -38.5t-38.5 -34.5t-65 -14z" />
    <glyph glyph-name="Scaron" unicode="&#x160;" horiz-adv-x="582" 
d="M303 723q42 0 98 -10t90 -25v-153h-48l-37 113q-49 15 -105 15q-66 0 -104 -28t-38 -77q0 -43 30.5 -76t117.5 -78q116 -59 163 -108t47 -110q0 -87 -65 -141.5t-170 -54.5q-47 0 -103.5 12.5t-108.5 36.5v159h48l37 -123q30 -11 65.5 -18t58.5 -7q33 0 70.5 10.5
t62.5 37.5t25 64q0 34 -13 58.5t-50 51t-126 71.5t-128 91t-39 106q0 84 60 133.5t162 49.5zM296 836l135 130l31 -26l-137 -162h-58l-137 162l31 26z" />
    <glyph glyph-name="scaron" unicode="&#x161;" horiz-adv-x="449" 
d="M231 523q63 0 147 -30v-114h-48l-27 88q-12 5 -36 8.5t-42 3.5q-43 0 -71 -20.5t-28 -51.5q0 -19 8 -38t35.5 -36.5t87.5 -40.5q72 -27 104.5 -63t32.5 -92q0 -38 -21 -70.5t-62 -54.5t-98 -22q-38 0 -79 9.5t-76 26.5v116h48l26 -83q14 -8 38.5 -14.5t43.5 -6.5
q49 0 77.5 22.5t28.5 61.5q0 36 -29 62.5t-100 53.5q-81 32 -108.5 64t-27.5 86q0 22 8.5 45t29.5 43t55.5 33.5t82.5 13.5zM219 636l135 130l31 -26l-137 -162h-58l-137 162l31 26z" />
    <glyph glyph-name="Tcommaaccent" unicode="&#x162;" horiz-adv-x="654" 
d="M309 -220q-21 0 -48 8.5t-45 20.5l16 31q14 -6 35 -11.5t36 -5.5q26 0 45 10.5t19 31.5q0 20 -15 29t-35.5 14t-42.5 9l24 83h-100v35l89 22v608h-185l-29 -115h-48v165h604v-165h-48l-29 115h-185v-608l89 -22v-35h-117l-14 -49q51 -11 74.5 -31t23.5 -53
q0 -18 -10.5 -38.5t-38.5 -34.5t-65 -14z" />
    <glyph glyph-name="tcommaaccent" unicode="&#x163;" horiz-adv-x="327" 
d="M169 -220q-21 0 -48 8.5t-45 20.5l16 31q14 -6 35 -11.5t36 -5.5q26 0 45 10.5t19 31.5q0 20 -15 29t-35.5 14t-42.5 9l24 81q-28 11 -43 38.5t-15 67.5v361h-80v50h80v112l74 16v-128h130v-50h-130v-344q0 -35 16.5 -51t49.5 -16q45 0 82 11v-42q-27 -14 -60 -23.5
t-58 -9.5h-8l-11 -39q51 -11 74.5 -31t23.5 -53q0 -18 -10.5 -38.5t-38.5 -34.5t-65 -14z" />
    <glyph glyph-name="Tcaron" unicode="&#x164;" horiz-adv-x="654" 
d="M629 715v-165h-48l-29 115h-185v-608l89 -22v-35h-258v35l89 22v608h-185l-29 -115h-48v165h604zM327 836l135 130l31 -26l-137 -162h-58l-137 162l31 26z" />
    <glyph glyph-name="tcaron" unicode="&#x165;" horiz-adv-x="327" 
d="M174 643v-128h130v-50h-130v-344q0 -35 16.5 -51t49.5 -16q45 0 82 11v-42q-27 -14 -60 -23.5t-58 -9.5q-50 0 -77 30t-27 84v361h-80v50h80v112zM281 755q23 0 37.5 -16.5t14.5 -39.5q0 -51 -21.5 -86t-67.5 -57l-13 27q24 14 36.5 26.5t12.5 32.5l-1 13q-22 2 -35 16
t-13 37q0 20 15 33.5t35 13.5z" />
    <glyph glyph-name="Tbar" unicode="&#x166;" horiz-adv-x="654" 
d="M497 370v-50h-130v-263l89 -22v-35h-258v35l89 22v263h-130v50h130v295h-185l-29 -115h-48v165h604v-165h-48l-29 115h-185v-295h130z" />
    <glyph glyph-name="tbar" unicode="&#x167;" horiz-adv-x="327" 
d="M304 365v-50h-130v-194q0 -35 16.5 -51t49.5 -16q45 0 82 11v-42q-27 -14 -60 -23.5t-58 -9.5q-50 0 -77 30t-27 84v211h-80v50h80v100h-80v50h80v112l74 16v-128h130v-50h-130v-100h130z" />
    <glyph glyph-name="Utilde" unicode="&#x168;" horiz-adv-x="729" 
d="M689 715v-35l-79 -22v-406q0 -64 -18 -114t-51 -83t-78 -49t-98 -16q-51 0 -96 16t-78.5 48t-52.5 80.5t-19 110.5v413l-79 22v35h238v-35l-79 -22v-404q0 -102 44.5 -154t140.5 -52q50 0 87.5 23t59 66.5t21.5 109.5v411l-79 22v35h216zM459 845q16 0 32.5 11t31.5 51
l32 -10q-10 -51 -27.5 -74t-35.5 -29.5t-36 -6.5q-15 0 -36 7t-66.5 35t-63.5 28q-16 0 -32.5 -11t-31.5 -51l-32 10q10 51 27.5 74t35.5 29.5t36 6.5q15 0 36 -7t66.5 -35t63.5 -28z" />
    <glyph glyph-name="utilde" unicode="&#x169;" horiz-adv-x="601" 
d="M173 521v-348q0 -114 109 -114q32 0 73 20t73 51v320l-74 15v30l148 26v-457l84 -17v-30l-158 -27v91q-35 -40 -84 -63t-101 -23q-69 0 -106.5 43t-37.5 123v289l-74 15v30zM376 645q16 0 32.5 11t31.5 51l32 -10q-10 -51 -27.5 -74t-35.5 -29.5t-36 -6.5q-15 0 -36 7
t-66.5 35t-63.5 28q-16 0 -32.5 -11t-31.5 -51l-32 10q10 51 27.5 74t35.5 29.5t36 6.5q15 0 36 -7t66.5 -35t63.5 -28z" />
    <glyph glyph-name="Umacron" unicode="&#x16a;" horiz-adv-x="729" 
d="M689 715v-35l-79 -22v-406q0 -64 -18 -114t-51 -83t-78 -49t-98 -16q-51 0 -96 16t-78.5 48t-52.5 80.5t-19 110.5v413l-79 22v35h238v-35l-79 -22v-404q0 -102 44.5 -154t140.5 -52q50 0 87.5 23t59 66.5t21.5 109.5v411l-79 22v35h216zM529 872v-48h-310v48h310z" />
    <glyph glyph-name="umacron" unicode="&#x16b;" horiz-adv-x="601" 
d="M173 521v-348q0 -114 109 -114q32 0 73 20t73 51v320l-74 15v30l148 26v-457l84 -17v-30l-158 -27v91q-35 -40 -84 -63t-101 -23q-69 0 -106.5 43t-37.5 123v289l-74 15v30zM445 672v-48h-310v48h310z" />
    <glyph glyph-name="Ubreve" unicode="&#x16c;" horiz-adv-x="729" 
d="M689 715v-35l-79 -22v-406q0 -64 -18 -114t-51 -83t-78 -49t-98 -16q-51 0 -96 16t-78.5 48t-52.5 80.5t-19 110.5v413l-79 22v35h238v-35l-79 -22v-404q0 -102 44.5 -154t140.5 -52q50 0 87.5 23t59 66.5t21.5 109.5v411l-79 22v35h216zM370 778q-42 0 -77 17t-59.5 51
t-37.5 86l45 12q35 -108 129 -108t129 108l45 -12q-13 -52 -37.5 -86t-59.5 -51t-77 -17z" />
    <glyph glyph-name="ubreve" unicode="&#x16d;" horiz-adv-x="601" 
d="M173 521v-348q0 -114 109 -114q32 0 73 20t73 51v320l-74 15v30l148 26v-457l84 -17v-30l-158 -27v91q-35 -40 -84 -63t-101 -23q-69 0 -106.5 43t-37.5 123v289l-74 15v30zM281 578q-42 0 -77 17t-59.5 51t-37.5 86l45 12q35 -108 129 -108t129 108l45 -12
q-13 -52 -37.5 -86t-59.5 -51t-77 -17z" />
    <glyph glyph-name="Uring" unicode="&#x16e;" horiz-adv-x="729" 
d="M689 715v-35l-79 -22v-406q0 -64 -18 -114t-51 -83t-78 -49t-98 -16q-51 0 -96 16t-78.5 48t-52.5 80.5t-19 110.5v413l-79 22v35h238v-35l-79 -22v-404q0 -102 44.5 -154t140.5 -52q50 0 87.5 23t59 66.5t21.5 109.5v411l-79 22v35h216zM366 983q43 0 72.5 -29.5
t29.5 -72.5q0 -20 -10 -44t-35.5 -41.5t-56.5 -17.5q-20 0 -44 10t-41.5 36t-17.5 57t17.5 56.5t41.5 35.5t44 10zM366 939q-25 0 -41 -17.5t-16 -40.5q0 -24 16 -41.5t41 -17.5q24 0 40 17.5t16 41.5q0 23 -16 40.5t-40 17.5z" />
    <glyph glyph-name="uring" unicode="&#x16f;" horiz-adv-x="601" 
d="M173 521v-348q0 -114 109 -114q32 0 73 20t73 51v320l-74 15v30l148 26v-457l84 -17v-30l-158 -27v91q-35 -40 -84 -63t-101 -23q-69 0 -106.5 43t-37.5 123v289l-74 15v30zM297 783q43 0 72.5 -29.5t29.5 -72.5q0 -20 -10 -44t-35.5 -41.5t-56.5 -17.5q-20 0 -44 10
t-41.5 36t-17.5 57t17.5 56.5t41.5 35.5t44 10zM297 739q-25 0 -41 -17.5t-16 -40.5q0 -24 16 -41.5t41 -17.5q24 0 40 17.5t16 41.5q0 23 -16 40.5t-40 17.5z" />
    <glyph glyph-name="Uhungarumlaut" unicode="&#x170;" horiz-adv-x="729" 
d="M689 715v-35l-79 -22v-406q0 -64 -18 -114t-51 -83t-78 -49t-98 -16q-51 0 -96 16t-78.5 48t-52.5 80.5t-19 110.5v413l-79 22v35h238v-35l-79 -22v-404q0 -102 44.5 -154t140.5 -52q50 0 87.5 23t59 66.5t21.5 109.5v411l-79 22v35h216zM370 972l64 -48l-126 -146
l-33 24zM511 972l64 -48l-126 -146l-33 24z" />
    <glyph glyph-name="uhungarumlaut" unicode="&#x171;" horiz-adv-x="601" 
d="M173 521v-348q0 -114 109 -114q32 0 73 20t73 51v320l-74 15v30l148 26v-457l84 -17v-30l-158 -27v91q-35 -40 -84 -63t-101 -23q-69 0 -106.5 43t-37.5 123v289l-74 15v30zM276 772l64 -48l-126 -146l-33 24zM417 772l64 -48l-126 -146l-33 24z" />
    <glyph glyph-name="Uogonek" unicode="&#x172;" horiz-adv-x="729" 
d="M689 715v-35l-79 -22v-406q0 -153 -98 -221q-40 -28 -66.5 -52t-38.5 -51t-12 -51q0 -26 15 -40t42 -14q33 0 72 17l16 -31q-18 -12 -44.5 -20.5t-51.5 -8.5q-19 0 -43.5 6.5t-39.5 23t-18.5 31t-3.5 25.5q0 34 19 68t48 58l-41 -2q-51 0 -96 16t-78.5 48t-52.5 80.5
t-19 110.5v413l-79 22v35h238v-35l-79 -22v-404q0 -102 44.5 -154t140.5 -52q50 0 87.5 23t59 66.5t21.5 109.5v411l-79 22v35h216z" />
    <glyph glyph-name="uogonek" unicode="&#x173;" horiz-adv-x="601" 
d="M429 -220q-19 0 -43.5 6.5t-39.5 23t-18.5 31t-3.5 25.5q0 33 17.5 61.5t41.5 46t45 26.5v81q-35 -40 -84 -63t-101 -23q-69 0 -106.5 43t-37.5 123v289l-74 15v30l148 26v-348q0 -114 109 -114q32 0 73 20t73 51v320l-74 15v30l148 26v-457l84 -17v-30l-64 -17
q-142 -39 -142 -123q0 -26 15 -40t42 -14q33 0 72 17l16 -31q-18 -12 -44.5 -20.5t-51.5 -8.5z" />
    <glyph glyph-name="Wcircumflex" unicode="&#x174;" horiz-adv-x="1035" 
d="M1020 715v-35l-80 -22l-199 -658h-70l-162 531l-153 -531h-70l-192 658l-79 22v35h253v-35l-89 -22l152 -533l148 519h80l158 -526l154 540l-89 22v35h238zM518 908l-135 -130l-31 26l137 162h58l137 -162l-31 -26z" />
    <glyph glyph-name="wcircumflex" unicode="&#x175;" horiz-adv-x="760" 
d="M770 515v-30l-64 -25l-141 -460h-58l-118 348l-121 -348h-58l-159 460l-56 25v30h201v-31l-64 -25l120 -357l127 372h44l117 -368l106 354l-66 25v30h190zM395 708l-135 -130l-31 26l137 162h58l137 -162l-31 -26z" />
    <glyph glyph-name="Ycircumflex" unicode="&#x176;" horiz-adv-x="633" 
d="M618 715v-35l-69 -22l-176 -356v-245l79 -22v-35h-238v35l79 22v250l-199 351l-79 22v35h249v-35l-79 -22l163 -295l138 298l-59 19v35h191zM332 908l-135 -130l-31 26l137 162h58l137 -162l-31 -26z" />
    <glyph glyph-name="ycircumflex" unicode="&#x177;" horiz-adv-x="502" 
d="M512 515v-30l-54 -25l-172 -422q-51 -126 -115 -194.5t-138 -68.5q-38 0 -65 12l17 66q24 -10 51 -10q55 0 101.5 44.5t91.5 141.5h-19l-161 431l-54 25v30h206v-30l-74 -26l133 -371l138 372l-64 25v30h178zM261 708l-135 -130l-31 26l137 162h58l137 -162l-31 -26z" />
    <glyph glyph-name="Ydieresis" unicode="&#x178;" horiz-adv-x="633" 
d="M618 715v-35l-69 -22l-176 -356v-245l79 -22v-35h-238v35l79 22v250l-199 351l-79 22v35h249v-35l-79 -22l163 -295l138 298l-59 19v35h191zM242 915q21 0 36.5 -15.5t15.5 -36.5t-15.5 -36t-36.5 -15t-36 15t-15 36t15 36.5t36 15.5zM421 915q21 0 36.5 -15.5
t15.5 -36.5t-15.5 -36t-36.5 -15t-36 15t-15 36t15 36.5t36 15.5z" />
    <glyph glyph-name="Zacute" unicode="&#x179;" horiz-adv-x="653" 
d="M584 715l9 -50l-435 -604h351l31 108h48v-169h-526l-7 48l438 606h-325l-31 -106h-48v167h495zM387 972l64 -48l-126 -146l-33 24z" />
    <glyph glyph-name="zacute" unicode="&#x17a;" horiz-adv-x="488" 
d="M435 515l8 -40l-304 -425h235l26 70h48v-120h-395l-8 40l306 425h-212l-30 -82h-48v132h374zM294 772l64 -48l-126 -146l-33 24z" />
    <glyph glyph-name="Zdotaccent" unicode="&#x17b;" horiz-adv-x="653" 
d="M584 715l9 -50l-435 -604h351l31 108h48v-169h-526l-7 48l438 606h-325l-31 -106h-48v167h495zM342 905q22 0 37.5 -16t15.5 -40t-15.5 -40t-37.5 -16t-37.5 16t-15.5 40t15.5 40t37.5 16z" />
    <glyph glyph-name="zdotaccent" unicode="&#x17c;" horiz-adv-x="488" 
d="M435 515l8 -40l-304 -425h235l26 70h48v-120h-395l-8 40l306 425h-212l-30 -82h-48v132h374zM249 705q22 0 37.5 -16t15.5 -40t-15.5 -40t-37.5 -16t-37.5 16t-15.5 40t15.5 40t37.5 16z" />
    <glyph glyph-name="Zcaron" unicode="&#x17d;" horiz-adv-x="653" 
d="M584 715l9 -50l-435 -604h351l31 108h48v-169h-526l-7 48l438 606h-325l-31 -106h-48v167h495zM337 836l135 130l31 -26l-137 -162h-58l-137 162l31 26z" />
    <glyph glyph-name="zcaron" unicode="&#x17e;" horiz-adv-x="488" 
d="M435 515l8 -40l-304 -425h235l26 70h48v-120h-395l-8 40l306 425h-212l-30 -82h-48v132h374zM259 636l135 130l31 -26l-137 -162h-58l-137 162l31 26z" />
    <glyph glyph-name="florin" unicode="&#x192;" horiz-adv-x="542" 
d="M449 392v-50h-171l-25 -309q-7 -83 -33 -138.5t-67 -84.5t-98 -29q-46 0 -100 22l6 106h42l21 -69q15 -3 29 -3q23 0 49.5 10.5t46 44.5t24.5 93l29 357h-107v50h111l10 118q8 102 60 156t133 54q53 0 113 -24l-4 -104h-42l-18 62q-35 10 -57 10q-49 0 -76 -36t-33 -111
l-10 -125h167z" />
    <glyph glyph-name="Scommaaccent" unicode="&#x218;" horiz-adv-x="582" 
d="M303 723q42 0 98 -10t90 -25v-153h-48l-37 113q-49 15 -105 15q-66 0 -104 -28t-38 -77q0 -43 30.5 -76t117.5 -78q116 -59 163 -108t47 -110q0 -87 -65 -141.5t-170 -54.5q-47 0 -103.5 12.5t-108.5 36.5v159h48l37 -123q30 -11 65.5 -18t58.5 -7q33 0 70.5 10.5
t62.5 37.5t25 64q0 34 -13 58.5t-50 51t-126 71.5t-128 91t-39 106q0 84 60 133.5t162 49.5zM295 -48q23 0 37.5 -16.5t14.5 -39.5q0 -51 -21.5 -86t-67.5 -57l-13 27q24 14 36.5 26.5t12.5 32.5l-1 13q-22 2 -35 16t-13 37q0 20 15 33.5t35 13.5z" />
    <glyph glyph-name="scommaaccent" unicode="&#x219;" horiz-adv-x="449" 
d="M231 523q63 0 147 -30v-114h-48l-27 88q-12 5 -36 8.5t-42 3.5q-43 0 -71 -20.5t-28 -51.5q0 -19 8 -38t35.5 -36.5t87.5 -40.5q72 -27 104.5 -63t32.5 -92q0 -38 -21 -70.5t-62 -54.5t-98 -22q-38 0 -79 9.5t-76 26.5v116h48l26 -83q14 -8 38.5 -14.5t43.5 -6.5
q49 0 77.5 22.5t28.5 61.5q0 36 -29 62.5t-100 53.5q-81 32 -108.5 64t-27.5 86q0 22 8.5 45t29.5 43t55.5 33.5t82.5 13.5zM223 -48q23 0 37.5 -16.5t14.5 -39.5q0 -51 -21.5 -86t-67.5 -57l-13 27q24 14 36.5 26.5t12.5 32.5l-1 13q-22 2 -35 16t-13 37q0 20 15 33.5
t35 13.5z" />
    <glyph glyph-name="uni021A" unicode="&#x21a;" horiz-adv-x="654" 
d="M629 715v-165h-48l-29 115h-185v-608l89 -22v-35h-258v35l89 22v608h-185l-29 -115h-48v165h604zM326 -48q23 0 37.5 -16.5t14.5 -39.5q0 -51 -21.5 -86t-67.5 -57l-13 27q24 14 36.5 26.5t12.5 32.5l-1 13q-22 2 -35 16t-13 37q0 20 15 33.5t35 13.5z" />
    <glyph glyph-name="uni021B" unicode="&#x21b;" horiz-adv-x="327" 
d="M174 643v-128h130v-50h-130v-344q0 -35 16.5 -51t49.5 -16q45 0 82 11v-42q-27 -14 -60 -23.5t-58 -9.5q-50 0 -77 30t-27 84v361h-80v50h80v112zM187 -48q23 0 37.5 -16.5t14.5 -39.5q0 -51 -21.5 -86t-67.5 -57l-13 27q24 14 36.5 26.5t12.5 32.5l-1 13q-22 2 -35 16
t-13 37q0 20 15 33.5t35 13.5z" />
    <glyph glyph-name="uni0237" unicode="&#x237;" horiz-adv-x="292" 
d="M197 517v-379q0 -75 -6.5 -132t-31.5 -104q-35 -65 -128 -129l-26 31q72 66 95 128t23 153v358l-84 17v30z" />
    <glyph glyph-name="circumflex" unicode="&#x2c6;" horiz-adv-x="500" 
d="M250 708l-135 -130l-31 26l137 162h58l137 -162l-31 -26z" />
    <glyph glyph-name="caron" unicode="&#x2c7;" horiz-adv-x="500" 
d="M250 636l135 130l31 -26l-137 -162h-58l-137 162l31 26z" />
    <glyph glyph-name="breve" unicode="&#x2d8;" horiz-adv-x="500" 
d="M250 578q-42 0 -77 17t-59.5 51t-37.5 86l45 12q35 -108 129 -108t129 108l45 -12q-13 -52 -37.5 -86t-59.5 -51t-77 -17z" />
    <glyph glyph-name="dotaccent" unicode="&#x2d9;" horiz-adv-x="500" 
d="M250 705q22 0 37.5 -16t15.5 -40t-15.5 -40t-37.5 -16t-37.5 16t-15.5 40t15.5 40t37.5 16z" />
    <glyph glyph-name="ring" unicode="&#x2da;" horiz-adv-x="500" 
d="M251 783q43 0 72.5 -29.5t29.5 -72.5q0 -20 -10 -44t-35.5 -41.5t-56.5 -17.5q-20 0 -44 10t-41.5 36t-17.5 57t17.5 56.5t41.5 35.5t44 10zM251 739q-25 0 -41 -17.5t-16 -40.5q0 -24 16 -41.5t41 -17.5q24 0 40 17.5t16 41.5q0 23 -16 40.5t-40 17.5z" />
    <glyph glyph-name="ogonek" unicode="&#x2db;" horiz-adv-x="500" 
d="M255 -220q-19 0 -43.5 6.5t-39.5 23t-18.5 31t-3.5 25.5q0 74 89 134h59q-43 -26 -67.5 -58.5t-24.5 -65.5q0 -27 15.5 -40t41.5 -13q33 0 72 17l16 -31q-18 -12 -44.5 -20.5t-51.5 -8.5z" />
    <glyph glyph-name="tilde" unicode="&#x2dc;" horiz-adv-x="500" 
d="M334 645q16 0 32.5 11t31.5 51l32 -10q-10 -51 -27.5 -74t-35.5 -29.5t-36 -6.5q-15 0 -36 7t-66.5 35t-63.5 28q-16 0 -32.5 -11t-31.5 -51l-32 10q10 51 27.5 74t35.5 29.5t36 6.5q15 0 36 -7t66.5 -35t63.5 -28z" />
    <glyph glyph-name="hungarumlaut" unicode="&#x2dd;" horiz-adv-x="500" 
d="M195 772l64 -48l-126 -146l-33 24zM336 772l64 -48l-126 -146l-33 24z" />
    <glyph glyph-name="uni0326" unicode="&#x326;" horiz-adv-x="0" 
d="M-1 -48q23 0 37.5 -16.5t14.5 -39.5q0 -51 -21.5 -86t-67.5 -57l-13 27q24 14 36.5 26.5t12.5 32.5l-1 13q-22 2 -35 16t-13 37q0 20 15 33.5t35 13.5z" />
    <glyph glyph-name="pi" unicode="&#x3c0;" horiz-adv-x="750" 
d="M640 515v-60h-94v-366q0 -16 7.5 -28t35.5 -12q17 0 41 4v-46q-53 -17 -84 -17q-74 0 -74 87v378h-200v-455h-74v455h-12q-58 0 -93 -19l-23 55q45 24 107 24h463z" />
    <glyph glyph-name="Wgrave" unicode="&#x1e80;" horiz-adv-x="1035" 
d="M1020 715v-35l-80 -22l-199 -658h-70l-162 531l-153 -531h-70l-192 658l-79 22v35h253v-35l-89 -22l152 -533l148 519h80l158 -526l154 540l-89 22v35h238zM483 972l95 -170l-33 -24l-126 146z" />
    <glyph glyph-name="wgrave" unicode="&#x1e81;" horiz-adv-x="760" 
d="M770 515v-30l-64 -25l-141 -460h-58l-118 348l-121 -348h-58l-159 460l-56 25v30h201v-31l-64 -25l120 -357l127 372h44l117 -368l106 354l-66 25v30h190zM360 772l95 -170l-33 -24l-126 146z" />
    <glyph glyph-name="Wacute" unicode="&#x1e82;" horiz-adv-x="1035" 
d="M1020 715v-35l-80 -22l-199 -658h-70l-162 531l-153 -531h-70l-192 658l-79 22v35h253v-35l-89 -22l152 -533l148 519h80l158 -526l154 540l-89 22v35h238zM563 972l64 -48l-126 -146l-33 24z" />
    <glyph glyph-name="wacute" unicode="&#x1e83;" horiz-adv-x="760" 
d="M770 515v-30l-64 -25l-141 -460h-58l-118 348l-121 -348h-58l-159 460l-56 25v30h201v-31l-64 -25l120 -357l127 372h44l117 -368l106 354l-66 25v30h190zM455 772l64 -48l-126 -146l-33 24z" />
    <glyph glyph-name="Wdieresis" unicode="&#x1e84;" horiz-adv-x="1035" 
d="M1020 715v-35l-80 -22l-199 -658h-70l-162 531l-153 -531h-70l-192 658l-79 22v35h253v-35l-89 -22l152 -533l148 519h80l158 -526l154 540l-89 22v35h238zM428 915q21 0 36.5 -15.5t15.5 -36.5t-15.5 -36t-36.5 -15t-36 15t-15 36t15 36.5t36 15.5zM607 915
q21 0 36.5 -15.5t15.5 -36.5t-15.5 -36t-36.5 -15t-36 15t-15 36t15 36.5t36 15.5z" />
    <glyph glyph-name="wdieresis" unicode="&#x1e85;" horiz-adv-x="760" 
d="M770 515v-30l-64 -25l-141 -460h-58l-118 348l-121 -348h-58l-159 460l-56 25v30h201v-31l-64 -25l120 -357l127 372h44l117 -368l106 354l-66 25v30h190zM305 715q21 0 36.5 -15.5t15.5 -36.5t-15.5 -36t-36.5 -15t-36 15t-15 36t15 36.5t36 15.5zM484 715
q21 0 36.5 -15.5t15.5 -36.5t-15.5 -36t-36.5 -15t-36 15t-15 36t15 36.5t36 15.5z" />
    <glyph glyph-name="Ygrave" unicode="&#x1ef2;" horiz-adv-x="633" 
d="M618 715v-35l-69 -22l-176 -356v-245l79 -22v-35h-238v35l79 22v250l-199 351l-79 22v35h249v-35l-79 -22l163 -295l138 298l-59 19v35h191zM302 972l95 -170l-33 -24l-126 146z" />
    <glyph glyph-name="ygrave" unicode="&#x1ef3;" horiz-adv-x="502" 
d="M512 515v-30l-54 -25l-172 -422q-51 -126 -115 -194.5t-138 -68.5q-38 0 -65 12l17 66q24 -10 51 -10q55 0 101.5 44.5t91.5 141.5h-19l-161 431l-54 25v30h206v-30l-74 -26l133 -371l138 372l-64 25v30h178zM216 772l95 -170l-33 -24l-126 146z" />
    <glyph glyph-name="endash" unicode="&#x2013;" horiz-adv-x="500" 
d="M500 334v-50h-500v50h500z" />
    <glyph glyph-name="emdash" unicode="&#x2014;" horiz-adv-x="1000" 
d="M1000 334v-50h-1000v50h1000z" />
    <glyph glyph-name="quoteleft" unicode="&#x2018;" horiz-adv-x="240" 
d="M107 467q-30 0 -46 16.5t-16 45.5q0 30 18 68t47.5 70.5t58.5 55.5l26 -28q-62 -62 -83 -109q27 -3 42 -19t15 -43q0 -28 -18 -42.5t-44 -14.5z" />
    <glyph glyph-name="quoteright" unicode="&#x2019;" horiz-adv-x="240" 
d="M133 723q30 0 46 -16.5t16 -45.5q0 -30 -18 -68t-47.5 -70.5t-58.5 -55.5l-26 28q62 62 83 109q-27 3 -42 19t-15 43q0 28 18 42.5t44 14.5z" />
    <glyph glyph-name="quotesinglbase" unicode="&#x201a;" horiz-adv-x="240" 
d="M133 110q30 0 46 -16.5t16 -45.5q0 -30 -18 -68t-47.5 -70.5t-58.5 -55.5l-26 28q62 62 83 109q-27 3 -42 19t-15 43q0 28 18 42.5t44 14.5z" />
    <glyph glyph-name="quotedblleft" unicode="&#x201c;" horiz-adv-x="420" 
d="M107 467q-30 0 -46 16.5t-16 45.5q0 30 18 68t47.5 70.5t58.5 55.5l26 -28q-62 -62 -83 -109q27 -3 42 -19t15 -43q0 -28 -18 -42.5t-44 -14.5zM287 467q-30 0 -46 16.5t-16 45.5q0 30 18 68t47.5 70.5t58.5 55.5l26 -28q-62 -62 -83 -109q27 -3 42 -19t15 -43
q0 -28 -18 -42.5t-44 -14.5z" />
    <glyph glyph-name="quotedblright" unicode="&#x201d;" horiz-adv-x="420" 
d="M133 723q30 0 46 -16.5t16 -45.5q0 -30 -18 -68t-47.5 -70.5t-58.5 -55.5l-26 28q62 62 83 109q-27 3 -42 19t-15 43q0 28 18 42.5t44 14.5zM313 723q30 0 46 -16.5t16 -45.5q0 -30 -18 -68t-47.5 -70.5t-58.5 -55.5l-26 28q62 62 83 109q-27 3 -42 19t-15 43
q0 28 18 42.5t44 14.5z" />
    <glyph glyph-name="quotedblbase" unicode="&#x201e;" horiz-adv-x="420" 
d="M133 115q30 0 46 -16.5t16 -45.5q0 -30 -18 -68t-47.5 -70.5t-58.5 -55.5l-26 28q62 62 83 109q-27 3 -42 19t-15 43q0 28 18 42.5t44 14.5zM313 115q30 0 46 -16.5t16 -45.5q0 -30 -18 -68t-47.5 -70.5t-58.5 -55.5l-26 28q62 62 83 109q-27 3 -42 19t-15 43
q0 28 18 42.5t44 14.5z" />
    <glyph glyph-name="dagger" unicode="&#x2020;" horiz-adv-x="470" 
d="M267 717l-5 -215l173 13v-52l-173 3l5 -596h-64l5 596l-173 -3v52l173 -13l-5 215h64z" />
    <glyph glyph-name="daggerdbl" unicode="&#x2021;" horiz-adv-x="471" 
d="M208 316l1 150l-173 -3v52l173 -13l-5 215h64l-5 -215l173 13v-52l-173 3l1 -150l171 3v-52l-170 13l3 -410h-64l3 410l-172 -13v52z" />
    <glyph glyph-name="bullet" unicode="&#x2022;" horiz-adv-x="366" 
d="M183 406q25 0 53.5 -12t49 -42.5t20.5 -68.5q0 -25 -12 -53.5t-42.5 -49t-68.5 -20.5q-25 0 -53.5 12t-49 42.5t-20.5 68.5q0 24 12 53t43 49.5t68 20.5z" />
    <glyph glyph-name="ellipsis" unicode="&#x2026;" horiz-adv-x="673" 
d="M120 99q22 0 38 -16t16 -38t-16 -38.5t-38 -16.5t-38.5 16.5t-16.5 38.5t16.5 38t38.5 16zM337 99q22 0 38 -16t16 -38t-16 -38.5t-38 -16.5t-38.5 16.5t-16.5 38.5t16.5 38t38.5 16zM554 99q22 0 38 -16t16 -38t-16 -38.5t-38 -16.5t-38.5 16.5t-16.5 38.5t16.5 38
t38.5 16z" />
    <glyph glyph-name="perthousand" unicode="&#x2030;" horiz-adv-x="1325" 
d="M221 722q80 0 125.5 -53t45.5 -149q0 -97 -45.5 -149t-125.5 -52t-125.5 52t-45.5 149q0 96 45.5 149t125.5 53zM221 678q-28 0 -49.5 -17t-34.5 -53t-13 -88q0 -34 8.5 -72t32 -61.5t56.5 -23.5q28 0 49.5 17t34.5 52.5t13 87.5q0 73 -26.5 115.5t-70.5 42.5zM702 395
q80 0 125.5 -53t45.5 -149q0 -97 -45.5 -149t-125.5 -52t-125.5 52t-45.5 149q0 96 45.5 149t125.5 53zM702 351q-28 0 -49.5 -17t-34.5 -53t-13 -88q0 -34 8.5 -72t32 -61.5t56.5 -23.5q28 0 49.5 17t34.5 52.5t13 87.5q0 73 -26.5 115.5t-70.5 42.5zM1104 395
q80 0 125.5 -53t45.5 -149q0 -97 -45.5 -149t-125.5 -52t-125.5 52t-45.5 149q0 96 45.5 149t125.5 53zM1104 351q-28 0 -49.5 -17t-34.5 -53t-13 -88q0 -34 8.5 -72t32 -61.5t56.5 -23.5q28 0 49.5 17t34.5 52.5t13 87.5q0 73 -26.5 115.5t-70.5 42.5zM669 715l-350 -715
h-64l350 715h64z" />
    <glyph glyph-name="guilsinglleft" unicode="&#x2039;" horiz-adv-x="304" 
d="M232 446l32 -29l-144 -165l144 -165l-32 -29l-182 170v48z" />
    <glyph glyph-name="guilsinglright" unicode="&#x203a;" horiz-adv-x="304" 
d="M72 58l-32 29l144 165l-144 165l32 29l182 -170v-48z" />
    <glyph glyph-name="fraction" unicode="&#x2044;" horiz-adv-x="120" 
d="M267 715l-350 -715h-64l350 715h64z" />
    <glyph glyph-name="uni2070" unicode="&#x2070;" horiz-adv-x="468" 
d="M234 723q54 0 91.5 -26.5t58.5 -76.5t21 -122t-21 -122t-58.5 -76.5t-91.5 -26.5t-91.5 26.5t-58.5 76.5t-21 122t21 122t58.5 76.5t91.5 26.5zM234 679q-27 0 -50 -20t-35 -66t-12 -95t10.5 -90.5t32 -66t54.5 -24.5q27 0 50 20t35 66t12 95t-10.5 90.5t-32 66
t-54.5 24.5z" />
    <glyph glyph-name="uni2074" unicode="&#x2074;" horiz-adv-x="468" 
d="M329 720v-274h80v-56h-80v-113h-66v113h-210v49l211 281h65zM263 446v195l-146 -195h146z" />
    <glyph glyph-name="Euro" unicode="&#x20ac;" horiz-adv-x="628" 
d="M378 723q37 0 83 -9.5t79 -23.5v-144h-58l-39 113q-35 8 -71 8q-151 0 -172 -225h231l-10 -48h-224l-1 -35l1 -49h206l-10 -48h-193q12 -114 55 -165t120 -51q55 0 91 23l24 109h58v-130q-76 -58 -191 -58q-213 0 -242 272h-74l10 48h61l-1 44l1 40h-77l10 48h71
q15 135 81.5 208t180.5 73z" />
    <glyph glyph-name="uni20B9" unicode="&#x20b9;" horiz-adv-x="550" 
d="M495 715v-50h-154q59 -39 68 -116h86v-50h-85q-8 -78 -68 -129.5t-150 -58.5l219 -256l64 -22v-33h-131l-268 323v38h60q51 0 95 17t68 50t27 71h-250v50h248q-11 58 -57 87t-123 29h-68v50h419z" />
    <glyph glyph-name="afii61289" unicode="&#x2113;" horiz-adv-x="406" 
d="M236 750q54 0 85 -35.5t31 -92.5q0 -127 -169 -313v-177q0 -80 54 -80q22 0 51 20t63 64l30 -26q-23 -33 -55 -63t-62 -43.5t-52 -13.5q-50 0 -76.5 31.5t-26.5 84.5v126l-51 -50l-23 33l74 74v306q0 30 10.5 67t40.5 62.5t76 25.5zM183 610v-237q109 138 109 238
q0 27 -7 48t-21 30t-28 9q-53 0 -53 -88z" />
    <glyph glyph-name="trademark" unicode="&#x2122;" horiz-adv-x="629" 
d="M246 715v-39h-84v-259h-48v259h-84v39h216zM574 715v-298h-44v203l-79 -138h-28l-76 134v-199h-44v298h38l96 -177l99 177h38z" />
    <glyph glyph-name="uni2126" unicode="&#x2126;" horiz-adv-x="750" 
d="M375 723q70 0 128 -21.5t98.5 -61.5t62.5 -98t22 -127q0 -60 -25 -126.5t-72.5 -123.5t-99.5 -95h124l49 108h48l-20 -178h-255v80q72 49 118 131t46 174q0 58 -13.5 109t-41 89t-70.5 59t-99 21q-42 0 -82.5 -14t-75.5 -52.5t-50.5 -96t-15.5 -115.5q0 -92 46 -174
t118 -131v-80h-255l-20 178h48l49 -108h124q-52 38 -99.5 95t-72.5 123.5t-25 126.5q0 69 22 127t62.5 98t98.5 61.5t128 21.5z" />
    <glyph glyph-name="estimated" unicode="&#x212e;" horiz-adv-x="753" 
d="M90 244q0 54 23.5 102t64 83t92.5 54.5t106 19.5q28 0 63.5 -7t72.5 -25.5t71.5 -50.5t57 -79t22.5 -97v-7h-465l-3 -2v-141q0 -10 6 -17q32 -35 78.5 -54.5t97.5 -19.5q53 0 101.5 21.5t83.5 61.5h41q-29 -33 -70.5 -57t-83 -33t-73.5 -9q-41 0 -82 11t-75.5 31.5
t-66 54t-47 77t-15.5 83.5zM551 414q-36 34 -81 53.5t-93 19.5q-45 0 -88 -17q-32 -13 -63 -36t-31 -41v-138q0 -3 3 -4h357q3 1 3 4v141q0 6 -7 18z" />
    <glyph glyph-name="partialdiff" unicode="&#x2202;" horiz-adv-x="550" 
d="M229 748q59 0 106 -26t78 -70.5t46.5 -102t15.5 -119.5q0 -67 -14 -143.5t-43 -144t-75.5 -110t-105.5 -42.5q-53 0 -91.5 25t-62 72.5t-23.5 114.5q0 49 14 93.5t41.5 79t66.5 54t86 19.5q35 0 68 -12t59 -30l2 60q0 220 -135 220q-28 0 -66 -10.5t-66 -24.5l-33 66
q27 12 65.5 21.5t66.5 9.5zM232 38q59 0 100.5 83.5t57.5 230.5q-16 16 -36 27.5t-38.5 16t-31.5 4.5q-35 0 -63 -19t-47 -51.5t-27.5 -72.5t-8.5 -75q0 -43 11 -76t31 -50.5t52 -17.5z" />
    <glyph glyph-name="uni2206" unicode="&#x2206;" horiz-adv-x="750" 
d="M411 715l275 -671v-44h-622v44l283 671h64zM588 70l-223 544l-229 -544h452z" />
    <glyph glyph-name="product" unicode="&#x220f;" horiz-adv-x="750" 
d="M62 780h626v-35l-79 -22v-786l79 -22v-35h-238v35l79 22v793h-308v-793l79 -22v-35h-238v35l79 22v786l-79 22v35z" />
    <glyph glyph-name="summation" unicode="&#x2211;" horiz-adv-x="750" 
d="M617 780v-162h-48l-31 106h-318l231 -363l-263 -411h370l31 108h48v-178h-524v58l257 401l-253 397v44h500z" />
    <glyph glyph-name="minus" unicode="&#x2212;" horiz-adv-x="550" 
d="M480 356v-48h-410v48h410z" />
    <glyph glyph-name="uni2215" unicode="&#x2215;" horiz-adv-x="120" 
d="M267 715l-350 -715h-64l350 715h64z" />
    <glyph glyph-name="radical" unicode="&#x221a;" horiz-adv-x="650" 
d="M780 840v-50h-129l-291 -910h-64l-147 439l-73 -25l-16 48l149 50l131 -390l268 838h172z" />
    <glyph glyph-name="infinity" unicode="&#x221e;" horiz-adv-x="842" 
d="M609 523q29 0 60 -9t61.5 -33t46 -61.5t15.5 -76.5q0 -29 -9 -59.5t-34 -60.5t-63 -45t-77 -15q-104 0 -188 126q-84 -126 -188 -126q-29 0 -60 9t-61.5 33t-46 61.5t-15.5 76.5q0 29 9 59.5t34 60.5t63 45t77 15q104 0 188 -126q84 126 188 126zM602 223q23 0 49 11.5
t42.5 41t16.5 67.5t-16.5 67.5t-42.5 41t-49 11.5q-35 0 -69.5 -24.5t-79.5 -97.5q45 -70 80.5 -94t68.5 -24zM240 223q35 0 69.5 24.5t79.5 97.5q-45 70 -80.5 94t-68.5 24q-23 0 -49 -11.5t-42.5 -41t-16.5 -67.5t16.5 -67.5t42.5 -41t49 -11.5z" />
    <glyph glyph-name="integral" unicode="&#x222b;" horiz-adv-x="380" 
d="M89 -228q-55 0 -129 39l24 53q19 -8 43.5 -14t41.5 -6q40 0 60.5 26t20.5 69v742q0 44 16 84t49.5 61.5t75.5 21.5q55 0 129 -39l-24 -53q-19 8 -43.5 14t-41.5 6q-40 0 -60.5 -26t-20.5 -69v-742q0 -44 -16 -84t-49.5 -61.5t-75.5 -21.5z" />
    <glyph glyph-name="approxequal" unicode="&#x2248;" horiz-adv-x="550" 
d="M450 499l46 -16q-16 -59 -49.5 -96t-82.5 -37q-38 0 -93 42t-69.5 47.5t-23.5 5.5q-23 0 -41.5 -17.5t-36.5 -73.5l-46 16q16 59 49.5 96t82.5 37q38 0 93 -42t69.5 -47.5t23.5 -5.5q23 0 41.5 17.5t36.5 73.5zM450 310l46 -16q-16 -59 -49.5 -96t-82.5 -37q-38 0 -93 42
t-69.5 47.5t-23.5 5.5q-23 0 -41.5 -17.5t-36.5 -73.5l-46 16q16 59 49.5 96t82.5 37q38 0 93 -42t69.5 -47.5t23.5 -5.5q23 0 41.5 17.5t36.5 73.5z" />
    <glyph glyph-name="notequal" unicode="&#x2260;" horiz-adv-x="550" 
d="M365 582l44 -20l-50 -107h121v-48h-143l-70 -150h213v-48h-236l-59 -127l-44 20l50 107h-121v48h143l70 150h-213v48h236z" />
    <glyph glyph-name="lessequal" unicode="&#x2264;" horiz-adv-x="550" 
d="M460 48v-48h-380v48h380zM447 545l22 -42l-340 -171l340 -171l-22 -42l-367 185v56z" />
    <glyph glyph-name="greaterequal" unicode="&#x2265;" horiz-adv-x="550" 
d="M470 48v-48h-380v48h380zM103 119l-22 42l340 171l-340 171l22 42l367 -185v-56z" />
    <glyph glyph-name="lozenge" unicode="&#x25ca;" horiz-adv-x="750" 
d="M400 715l215 -357l-215 -358h-50l-215 358l215 357h50zM375 67l175 291l-175 290l-175 -290z" />
    <glyph glyph-name="glyph379" horiz-adv-x="1752" 
d="M100 0v715h221v-715h-221zM366 506v209h221v-209h-221zM633 0v715h221v-715h-221zM899 506v209h221v-209h-221zM1164 0v715h221v-715h-221zM1431 506v209h221v-209h-221zM1431 253v208h221v-208h-221z" />
    <glyph glyph-name="glyph380" horiz-adv-x="500" 
d="M249 755q23 0 37.5 -16.5t14.5 -39.5q0 -51 -21.5 -86t-67.5 -57l-13 27q24 14 36.5 26.5t12.5 32.5l-1 13q-22 2 -35 16t-13 37q0 20 15 33.5t35 13.5z" />
    <glyph glyph-name="glyph381" horiz-adv-x="0" 
d="M1 578q-23 0 -37.5 16.5t-14.5 39.5q0 51 21.5 86t67.5 57l13 -27q-24 -14 -36.5 -26.5t-12.5 -32.5l1 -13q22 -2 35 -16t13 -37q0 -20 -15 -33.5t-35 -13.5z" />
    </font>
</defs>
</svg>
