<svg id="Layer_1" data-name="Layer 1" xmlns="http://www.w3.org/2000/svg" viewBox="0 0 401 386"><defs><style>.cls-1{fill:#002a1e;}</style></defs><path class="cls-1" d="M256.47,347h-98.9a94.61,94.61,0,0,1-94.5-94.5v-114A94.61,94.61,0,0,1,157.57,44h98.9a94.28,94.28,0,0,1,11.71.73A97.38,97.38,0,0,0,241.4,41H142.5A97.5,97.5,0,0,0,45,138.51v114A97.5,97.5,0,0,0,142.5,350h98.9a97.38,97.38,0,0,0,26.78-3.73A94.28,94.28,0,0,1,256.47,347Z"/><path class="cls-1" d="M121.85,192.72c0-67.43,53.36-122.48,119.56-124.11a125.86,125.86,0,1,0-22.33,249.72,127.44,127.44,0,0,0,20-1.59C174,313.92,121.85,259.37,121.85,192.72Z"/><path class="cls-1" d="M347,266.15A91.65,91.65,0,0,1,256.47,344h-98.9a91.61,91.61,0,0,1-91.5-91.5v-114A91.61,91.61,0,0,1,157.57,47h98.9a91.66,91.66,0,0,1,89,70.2,126.69,126.69,0,0,1,8.12,12.62A97.5,97.5,0,0,0,256.47,41h-98.9a97.5,97.5,0,0,0-97.5,97.5v114a97.5,97.5,0,0,0,97.5,97.5h98.9a97.51,97.51,0,0,0,97.47-95A126.22,126.22,0,0,1,347,266.15Z"/><path class="cls-1" d="M247,71.26a118,118,0,0,1,84.53,35.45,122.3,122.3,0,0,1,0,171.38,118.51,118.51,0,0,1-169.06,0,122.3,122.3,0,0,1,0-171.38A118,118,0,0,1,247,71.26m0-6c-69.35,0-125.57,56.92-125.57,127.14S177.65,319.54,247,319.54,372.57,262.62,372.57,192.4,316.35,65.26,247,65.26Z"/></svg>