<svg id="Layer_1" data-name="Layer 1" xmlns="http://www.w3.org/2000/svg" viewBox="0 0 312 526"><defs><style>.cls-1{fill:none;}.cls-2{fill:#002a1e;}</style></defs><path class="cls-1" d="M126.5,46.37l101.81.53a5.28,5.28,0,0,1,5.1,4l13.24,54-107,.48Z"/><path class="cls-2" d="M129,48.38l99.31.52a3.28,3.28,0,0,1,3.17,2.5l12.63,51.48-102.89.46L129,48.38m-5-4,14,63,111.2-.5-13.85-56.4a7.28,7.28,0,0,0-7-5.55L124,44.35Z"/><path class="cls-2" d="M249.2,106.85l-112.41-.5a3,3,0,0,1-.14.73l-30.79,93.3a7.53,7.53,0,0,0-.24,3.71c4.69,24.5,7.16,52.6,7.16,81.26,0,77.29-18,143.85-41.94,156.08L65,437.68V133l5.76-3.79a32.56,32.56,0,0,1,10.27,9A7.42,7.42,0,0,0,94,135.6l2.93-10.25H71a8,8,0,0,0-8,8v304a8,8,0,0,0,8,8H173.41c25.73,0,46.59-71.63,46.59-160,0-30.32-2.46-58.67-6.72-82.84Z"/><path class="cls-2" d="M122.31,48a1.34,1.34,0,0,1,1.42,1.15L135,105.73a1.4,1.4,0,0,1,0,.73l-30.86,93.3a9.41,9.41,0,0,0-.31,4.71c4.67,24.37,7.14,52.34,7.14,80.88,0,38.37-4.46,75.35-12.57,104.14-7.25,25.73-17.14,43.59-27.38,49.62L69,437.88l-2-1.3V134.1l2-1.31,1.86-1.23a32.17,32.17,0,0,1,8.63,7.89A9.45,9.45,0,0,0,96,136.16L121,49a1.3,1.3,0,0,1,1.36-1m0-4a5.31,5.31,0,0,0-5.22,3.93l-25,87.12A5.42,5.42,0,0,1,86.84,139a5.29,5.29,0,0,1-4.2-2c-3.81-4.77-7.83-8.17-12-10l-7.62,5V438.77l7.72,5c25-11.14,44.18-77.8,44.18-158.37,0-29.82-2.63-57.73-7.21-81.63a5.41,5.41,0,0,1,.18-2.71l30.86-93.3a5.5,5.5,0,0,0,.17-2.76L127.66,48.37A5.32,5.32,0,0,0,122.31,44Z"/></svg>