<svg id="Layer_1" data-name="Layer 1" xmlns="http://www.w3.org/2000/svg" viewBox="0 0 312 526"><defs><style>.cls-1{fill:#002a1e;}</style></defs><path class="cls-1" d="M212.28,286.84C216.54,262.68,219,234.32,219,204c0-88.37-20.86-160-46.59-160H70a8,8,0,0,0-8,8V356a8,8,0,0,0,8,8H95.89L93,353.75a7.41,7.41,0,0,0-7.18-5.39A7.33,7.33,0,0,0,80,351.15a32.52,32.52,0,0,1-10.27,9L64,356.33V51.68l5.84-3.76c24,12.24,41.94,78.79,41.94,156.08,0,28.67-2.47,56.77-7.16,81.26a7.52,7.52,0,0,0,.24,3.71l30.79,93.3a3.06,3.06,0,0,1,.15.73h1l-7.54,33.93-4.69,23.67a3.37,3.37,0,0,1-1,1.84L123,445l103.68-.55a8.1,8.1,0,0,0,7.83-6.17L248.2,382.5Z"/><path class="cls-1" d="M69.92,50.25c10.22,6,20.09,23.88,27.32,49.61,8.09,28.79,12.54,65.77,12.54,104.14,0,28.55-2.46,56.52-7.12,80.89a9.53,9.53,0,0,0,.3,4.71l30.79,93.3a1.36,1.36,0,0,1,.05.72L122.59,440.2a1.34,1.34,0,0,1-1.42,1.15,1.28,1.28,0,0,1-1.35-1L94.88,353.2a9.42,9.42,0,0,0-16.42-3.3,32.08,32.08,0,0,1-8.6,7.89L68,356.57l-2-1.32V52.77l2.62-1.69,1.3-.83m-.22-4.61-7.7,5V357.41l7.6,5c4.18-1.85,8.2-5.25,12-10a5.33,5.33,0,0,1,4.19-2A5.42,5.42,0,0,1,91,354.3L116,441.42a5.43,5.43,0,0,0,10.54-.44l11.21-56.58a5.39,5.39,0,0,0-.17-2.76l-30.79-93.3a5.38,5.38,0,0,1-.17-2.7c4.57-23.9,7.19-51.82,7.19-81.64,0-80.57-19.15-147.23-44.08-158.36Z"/></svg>