<svg id="Layer_1" data-name="Layer 1" xmlns="http://www.w3.org/2000/svg" viewBox="0 0 290 290"><defs><style>.cls-1{fill:#002a1e;}</style></defs><path class="cls-1" d="M195.3,42a8.71,8.71,0,0,1,8.7,8.7V238.3a8.71,8.71,0,0,1-8.7,8.7H94.7a8.71,8.71,0,0,1-8.7-8.7V50.7A8.71,8.71,0,0,1,94.7,42H195.3m0-6H94.7A14.7,14.7,0,0,0,80,50.7V238.3A14.7,14.7,0,0,0,94.7,253H195.3A14.7,14.7,0,0,0,210,238.3V50.7A14.7,14.7,0,0,0,195.3,36Z"/><path class="cls-1" d="M171,103.5a26.5,26.5,0,1,0-34,25.42V204.5a7.5,7.5,0,0,0,15,0V128.92A26.52,26.52,0,0,0,171,103.5Z"/></svg>