<svg id="Layer_1" data-name="Layer 1" xmlns="http://www.w3.org/2000/svg" viewBox="0 0 427 290"><defs><style>.cls-1{fill:#002a1e;}</style></defs><path class="cls-1" d="M147,134.7V256.3a8.71,8.71,0,0,1-8.7,8.7H37.7a8.71,8.71,0,0,1-8.7-8.7V68.7A8.71,8.71,0,0,1,37.7,60H138.3a8.71,8.71,0,0,1,8.7,8.7v34h6v-34A14.7,14.7,0,0,0,138.3,54H37.7A14.7,14.7,0,0,0,23,68.7V256.3A14.7,14.7,0,0,0,37.7,271H138.3A14.7,14.7,0,0,0,153,256.3V134.7Z"/><path class="cls-1" d="M312.7,24c1.37,0,2.75,0,4.12.09A95.5,95.5,0,0,1,380,187.28,95.52,95.52,0,0,1,218.62,136l-.86-5H78.5a11.5,11.5,0,0,1,0-23H217.76l.86-5A95.51,95.51,0,0,1,312.7,24m2,165a70.5,70.5,0,1,0-70.5-70.5A70.58,70.58,0,0,0,314.7,189m-2-171a101.52,101.52,0,0,0-100,84H78.5a17.5,17.5,0,0,0,0,35H212.71A101.51,101.51,0,0,0,414.2,120.31c.42-54.45-42.72-99.93-97.13-102.22-1.46-.06-2.92-.09-4.37-.09Zm2,165a64.5,64.5,0,1,1,64.5-64.5A64.5,64.5,0,0,1,314.7,183Z"/><path class="cls-1" d="M78.29,137A17.49,17.49,0,0,1,61,122.31a26.52,26.52,0,0,0,19,24.61V222.5a7.5,7.5,0,0,0,15,0V146.92A26.56,26.56,0,0,0,109,137Z"/><path class="cls-1" d="M78.29,102h27.15a26.5,26.5,0,0,0-41.74,7.84A17.5,17.5,0,0,1,78.29,102Z"/><path class="cls-1" d="M63.7,109.84A18,18,0,0,0,61,122.31a30.85,30.85,0,0,0,6,13.84l17.57,3.45L87,135l-13.06-3.2L70,129l-4.8-4.28L65,115l6-9,11-3-2-3-7,1-6,4.4Z"/></svg>