<svg id="Layer_1" data-name="Layer 1" xmlns="http://www.w3.org/2000/svg" viewBox="0 0 609 290"><defs><style>.cls-1{fill:none;stroke:#002a1e;stroke-miterlimit:10;stroke-width:6px;}.cls-2{fill:#002a1e;}</style></defs><path class="cls-1" d="M144.7,157.85v54.3A19.85,19.85,0,0,1,124.85,232h0A19.85,19.85,0,0,1,105,212.15v-54.3"/><path class="cls-1" d="M200,157.85v54.3A19.85,19.85,0,0,1,180.15,232h0a19.85,19.85,0,0,1-19.85-19.85v-54.3"/><path class="cls-2" d="M457.5,49a95.49,95.49,0,1,1-94.08,112l-.86-5H98.5a11.5,11.5,0,0,1,0-23H362.56l.86-5A95.54,95.54,0,0,1,457.5,49m2,165A70.5,70.5,0,1,0,389,143.5,70.58,70.58,0,0,0,459.5,214m-2-171a101.52,101.52,0,0,0-100,84H98.5a17.5,17.5,0,0,0,0,35h259a101.5,101.5,0,1,0,100-119Zm2,165A64.5,64.5,0,1,1,524,143.5,64.5,64.5,0,0,1,459.5,208Z"/></svg>