<svg id="Layer_1" data-name="Layer 1" xmlns="http://www.w3.org/2000/svg" viewBox="0 0 290 290"><defs><style>.cls-1{fill:#002a1e;}</style></defs><path class="cls-1" d="M98.7,207A11.72,11.72,0,0,1,87,195.3V94.7A11.72,11.72,0,0,1,98.7,83h98.47a14.61,14.61,0,0,0-8.87-3H87.7A14.7,14.7,0,0,0,73,94.7V195.3A14.7,14.7,0,0,0,87.7,210H188.3a14.61,14.61,0,0,0,8.87-3Z"/><path class="cls-1" d="M199.3,86a8.71,8.71,0,0,1,8.7,8.7V195.3a8.71,8.71,0,0,1-8.7,8.7H98.7a8.71,8.71,0,0,1-8.7-8.7V94.7A8.71,8.71,0,0,1,98.7,86H199.3m0-6H98.7A14.7,14.7,0,0,0,84,94.7V195.3A14.7,14.7,0,0,0,98.7,210H199.3A14.7,14.7,0,0,0,214,195.3V94.7A14.7,14.7,0,0,0,199.3,80Z"/><rect class="cls-1" x="147" y="104" width="5" height="43" rx="2.5"/><path class="cls-1" d="M161.6,120.09v1.77a2,2,0,0,0,.93,1.73,25.55,25.55,0,1,1-27.08,0,2.08,2.08,0,0,0,1-1.77v-1.74a1.1,1.1,0,0,0-1.62-1,29.75,29.75,0,1,0,28.45,0A1.1,1.1,0,0,0,161.6,120.09Z"/></svg>