<svg id="Layer_1" data-name="Layer 1" xmlns="http://www.w3.org/2000/svg" viewBox="0 0 290 290"><defs><style>.cls-1{fill:#002a1e;}</style></defs><path class="cls-1" d="M202.3,80H93v3h95.3A11.72,11.72,0,0,1,200,94.7V195.3A11.72,11.72,0,0,1,188.3,207H93v3H202.3A14.7,14.7,0,0,0,217,195.3V94.7A14.7,14.7,0,0,0,202.3,80Z"/><path class="cls-1" d="M188.3,86a8.71,8.71,0,0,1,8.7,8.7V195.3a8.71,8.71,0,0,1-8.7,8.7H85V86H188.3m0-6H79V210H188.3A14.7,14.7,0,0,0,203,195.3V94.7A14.7,14.7,0,0,0,188.3,80Z"/><rect class="cls-1" x="136" y="104" width="5" height="43" rx="2.5"/><path class="cls-1" d="M150.6,120.09v1.77a2,2,0,0,0,.93,1.73,25.55,25.55,0,1,1-27.08,0,2.08,2.08,0,0,0,1-1.77v-1.74a1.1,1.1,0,0,0-1.62-1,29.75,29.75,0,1,0,28.45,0A1.1,1.1,0,0,0,150.6,120.09Z"/></svg>