<svg id="Layer_1" data-name="Layer 1" xmlns="http://www.w3.org/2000/svg" viewBox="0 0 200 200"><defs><style>.cls-1{fill:#a2ff8f;}.cls-1,.cls-3{stroke:#000;stroke-miterlimit:10;stroke-width:3px;}.cls-2{fill:#fff;}.cls-3{fill:none;}</style></defs><circle cx="101.85" cy="103.41" r="77.26" transform="translate(-32.67 157.93) rotate(-67.5)"/><path d="M101.85,27.66a75.74,75.74,0,0,1,75.75,75.75h0a75.75,75.75,0,0,1-75.75,75.76h0a75.76,75.76,0,0,1-75.76-75.76h0a75.75,75.75,0,0,1,75.76-75.75h0m0-3a78.76,78.76,0,1,0,78.75,78.75,78.85,78.85,0,0,0-78.75-78.75Z"/><rect class="cls-1" x="22.4" y="22.96" width="151.51" height="151.51" rx="75.76"/><rect x="75.53" y="68.97" width="50.79" height="71.01"/><path d="M124.82,70.47v68H77v-68h47.79m3-3H74v74h53.79v-74Z"/><rect class="cls-2" x="72.29" y="65.81" width="50.79" height="71.01"/><path d="M121.59,67.31v68H73.79v-68h47.8m3-3H70.79v74h53.8v-74Z"/><rect class="cls-2" x="67.93" y="61.45" width="50.79" height="71.01"/><path d="M117.22,63v68H69.43V63h47.79m3-3H66.43v74h53.79V60Z"/><line class="cls-3" x1="77.27" y1="81" x2="109.38" y2="81"/><line class="cls-3" x1="77.27" y1="85.67" x2="109.38" y2="85.67"/><line class="cls-3" x1="77.27" y1="90.34" x2="109.38" y2="90.34"/><line class="cls-3" x1="77.27" y1="95.01" x2="109.38" y2="95.01"/><line class="cls-3" x1="77.27" y1="99.68" x2="109.38" y2="99.68"/><line class="cls-3" x1="77.27" y1="104.35" x2="109.38" y2="104.35"/><line class="cls-3" x1="77.27" y1="109.02" x2="109.38" y2="109.02"/><line class="cls-3" x1="77.27" y1="113.69" x2="109.38" y2="113.69"/><line class="cls-3" x1="77.27" y1="118.36" x2="109.38" y2="118.36"/><line class="cls-3" x1="77.27" y1="123.03" x2="109.38" y2="123.03"/></svg>