<svg id="Layer_1" data-name="Layer 1" xmlns="http://www.w3.org/2000/svg" viewBox="0 0 893.92 251.63"><defs><style>.cls-1,.cls-2{stroke:#000;stroke-miterlimit:10;stroke-width:3px;}.cls-2{fill:#80364d;}</style></defs><path class="cls-1" d="M143.08,219.09V221a9.76,9.76,0,0,1-9.76,9.76H43.44A9.76,9.76,0,0,1,33.67,221v-2a9.78,9.78,0,0,1,7.64-9.53c12.13-2.72,14.13-6.3,14.13-16.58V67.08c0-10.27-1.9-13.95-14.08-16.62a9.78,9.78,0,0,1-7.69-9.54V39a9.77,9.77,0,0,1,9.77-9.77h89.88A9.77,9.77,0,0,1,143.08,39v2a9.8,9.8,0,0,1-7.41,9.54c-10.52,2.58-12.26,6-12.26,15.55V106.3a9.77,9.77,0,0,0,9.76,9.77H175.6a9.77,9.77,0,0,0,9.77-9.77V66c0-9.84-1.73-13.24-12.09-15.55a9.74,9.74,0,0,1-7.59-9.52V39a9.77,9.77,0,0,1,9.77-9.77h89.88A9.77,9.77,0,0,1,275.1,39v1.76a9.78,9.78,0,0,1-7.85,9.58c-12,2.44-13.92,6-13.92,16.71V193c0,10.7,1.89,14.27,13.92,16.72a9.77,9.77,0,0,1,7.85,9.57V221a9.76,9.76,0,0,1-9.76,9.76H175.46a9.76,9.76,0,0,1-9.77-9.76v-1.87a9.74,9.74,0,0,1,7.59-9.52c10.36-2.31,12.09-5.72,12.09-15.55V150a9.76,9.76,0,0,0-9.77-9.77H133.17a9.76,9.76,0,0,0-9.76,9.77v44.1c0,9.42,1.64,12.93,12.21,15.45A9.8,9.8,0,0,1,143.08,219.09Z"/><path class="cls-1" d="M448.8,89.41h-1.62a9.8,9.8,0,0,1-9.37-7c-7.4-24.77-14.13-28.41-43.52-29.56l-15.45-.51a9.77,9.77,0,0,0-10.09,9.76v45a9.77,9.77,0,0,0,9.77,9.76h8.66c8.66,0,12.2-2.88,15.67-18.74a9.73,9.73,0,0,1,9.53-7.63h.06a9.76,9.76,0,0,1,9.76,9.77v56a9.76,9.76,0,0,1-9.76,9.77h0a9.8,9.8,0,0,1-9.56-7.75c-3.48-16.06-7.12-18.63-15.66-18.63h-8.66a9.78,9.78,0,0,0-9.77,9.77v48.44a9.78,9.78,0,0,0,10.17,9.76l20.26-.84c29.67-1.17,36.89-4.65,45.32-36.14a9.77,9.77,0,0,1,9.44-7.26h1.44a9.76,9.76,0,0,1,9.76,10l-.89,47.87a9.76,9.76,0,0,1-9.77,9.58H288.79A9.76,9.76,0,0,1,279,221v-1.9a9.78,9.78,0,0,1,7.69-9.54c12.18-2.66,14.08-6.34,14.08-16.62V67.08c0-10.27-1.9-13.95-14.08-16.62A9.78,9.78,0,0,1,279,40.92V39a9.77,9.77,0,0,1,9.77-9.77H448a9.77,9.77,0,0,1,9.76,9.57l.85,40.61A9.77,9.77,0,0,1,448.8,89.41Z"/><path class="cls-1" d="M646,125.56a9.73,9.73,0,0,0-4.65,13.1l19,39.23c10.09,20.51,15.09,28.26,20.36,31.79a9.85,9.85,0,0,1,4.48,8.14V221a9.76,9.76,0,0,1-9.77,9.76h-54a9.77,9.77,0,0,1-9-5.88l-31.74-73.22a9.76,9.76,0,0,0-9-5.89h-2.8a9.77,9.77,0,0,0-9.77,9.77v38.52c0,9.42,1.74,12.83,12.26,15.4A9.81,9.81,0,0,1,578.8,219v2a9.77,9.77,0,0,1-9.77,9.76H479.15a9.77,9.77,0,0,1-9.77-9.76v-1.9a9.78,9.78,0,0,1,7.7-9.54c12.18-2.66,14.08-6.34,14.08-16.62V67.08c0-10.27-1.9-13.95-14.08-16.62a9.78,9.78,0,0,1-7.7-9.54V39a9.78,9.78,0,0,1,9.77-9.77H585.91c60,0,87.51,21.49,87.79,53.73C673.81,104.35,661.43,118.49,646,125.56ZM569.73,52.29l-.59,0a9.77,9.77,0,0,0-10,9.77v51a9.75,9.75,0,0,0,10.14,9.76l.74,0c20.38-.56,37.27-12.84,37.27-35.31C607.27,66.11,593.59,53,569.73,52.29Z"/><path class="cls-1" d="M855.62,89.41H854a9.8,9.8,0,0,1-9.37-7c-7.4-24.77-14.13-28.41-43.52-29.56l-15.45-.51a9.77,9.77,0,0,0-10.09,9.76v45a9.76,9.76,0,0,0,9.77,9.76H794c8.67,0,12.21-2.88,15.67-18.74a9.75,9.75,0,0,1,9.53-7.63h.06A9.76,9.76,0,0,1,829,100.3v56a9.76,9.76,0,0,1-9.77,9.77h0a9.79,9.79,0,0,1-9.55-7.75c-3.49-16.06-7.12-18.63-15.67-18.63h-8.65a9.77,9.77,0,0,0-9.77,9.77v48.44a9.77,9.77,0,0,0,10.17,9.76l20.25-.84c29.68-1.17,36.9-4.65,45.32-36.14a9.78,9.78,0,0,1,9.44-7.26h1.44a9.77,9.77,0,0,1,9.77,10l-.89,47.87a9.77,9.77,0,0,1-9.77,9.58H695.61a9.76,9.76,0,0,1-9.76-9.76v-1.9a9.77,9.77,0,0,1,7.69-9.54c12.18-2.66,14.08-6.34,14.08-16.62V67.08c0-10.27-1.9-13.95-14.08-16.62a9.77,9.77,0,0,1-7.69-9.54V39a9.77,9.77,0,0,1,9.76-9.77H854.77a9.77,9.77,0,0,1,9.77,9.57l.85,40.61A9.77,9.77,0,0,1,855.62,89.41Z"/><path class="cls-2" d="M131.66,207.67v1.93a9.76,9.76,0,0,1-9.76,9.76H32a9.76,9.76,0,0,1-9.77-9.76v-1.95a9.78,9.78,0,0,1,7.64-9.53C42,195.4,44,191.82,44,181.54V55.66C44,45.39,42.12,41.71,29.94,39a9.78,9.78,0,0,1-7.69-9.54V27.61A9.77,9.77,0,0,1,32,17.84H121.9a9.77,9.77,0,0,1,9.76,9.77v2a9.82,9.82,0,0,1-7.41,9.55c-10.52,2.57-12.26,6-12.26,15.54V94.88a9.76,9.76,0,0,0,9.76,9.77h42.43A9.76,9.76,0,0,0,174,94.88V54.55c0-9.84-1.73-13.24-12.09-15.55a9.74,9.74,0,0,1-7.59-9.52V27.61A9.78,9.78,0,0,1,164,17.84h89.88a9.78,9.78,0,0,1,9.77,9.77v1.77A9.78,9.78,0,0,1,255.83,39c-12,2.45-13.92,6-13.92,16.71V181.54c0,10.71,1.89,14.27,13.92,16.72a9.78,9.78,0,0,1,7.86,9.57v1.77a9.77,9.77,0,0,1-9.77,9.76H164a9.77,9.77,0,0,1-9.77-9.76v-1.87a9.74,9.74,0,0,1,7.59-9.52c10.36-2.31,12.09-5.72,12.09-15.55v-44.1a9.76,9.76,0,0,0-9.77-9.77H121.75a9.76,9.76,0,0,0-9.76,9.77v44.1c0,9.42,1.64,12.93,12.21,15.45A9.8,9.8,0,0,1,131.66,207.67Z"/><path class="cls-2" d="M437.38,78h-1.62a9.78,9.78,0,0,1-9.37-7c-7.4-24.77-14.13-28.41-43.52-29.56l-15.45-.51a9.76,9.76,0,0,0-10.08,9.76v45a9.77,9.77,0,0,0,9.76,9.77h8.66c8.66,0,12.21-2.89,15.67-18.74A9.73,9.73,0,0,1,401,79.11H401a9.77,9.77,0,0,1,9.77,9.77v56a9.77,9.77,0,0,1-9.77,9.77h0a9.79,9.79,0,0,1-9.56-7.74c-3.48-16.07-7.12-18.64-15.66-18.64H367.1a9.77,9.77,0,0,0-9.76,9.77v48.44a9.77,9.77,0,0,0,10.17,9.76l20.25-.84c29.68-1.17,36.89-4.65,45.32-36.14a9.78,9.78,0,0,1,9.44-7.26H444a9.76,9.76,0,0,1,9.76,9.95l-.89,47.87a9.76,9.76,0,0,1-9.76,9.58H277.37a9.76,9.76,0,0,1-9.77-9.76v-1.89a9.79,9.79,0,0,1,7.69-9.55c12.18-2.66,14.08-6.34,14.08-16.62V55.66c0-10.27-1.9-13.95-14.08-16.62a9.78,9.78,0,0,1-7.69-9.54V27.61a9.77,9.77,0,0,1,9.77-9.77H436.53a9.77,9.77,0,0,1,9.76,9.57L447.14,68A9.76,9.76,0,0,1,437.38,78Z"/><path class="cls-2" d="M634.53,114.14a9.74,9.74,0,0,0-4.65,13.1l19,39.23C659,187,664,194.73,669.24,198.26a9.85,9.85,0,0,1,4.48,8.14v3.2a9.76,9.76,0,0,1-9.77,9.76h-54a9.77,9.77,0,0,1-9-5.88l-31.74-73.22a9.78,9.78,0,0,0-9-5.89h-2.8a9.77,9.77,0,0,0-9.77,9.77v38.52c0,9.42,1.75,12.83,12.26,15.4a9.81,9.81,0,0,1,7.42,9.55v2a9.76,9.76,0,0,1-9.77,9.76H467.73A9.76,9.76,0,0,1,458,209.6v-1.89a9.78,9.78,0,0,1,7.69-9.55c12.18-2.66,14.08-6.34,14.08-16.62V55.66c0-10.27-1.9-13.95-14.08-16.62A9.77,9.77,0,0,1,458,29.5V27.61a9.77,9.77,0,0,1,9.76-9.77H574.5c60,0,87.5,21.5,87.78,53.73C662.39,92.93,650,107.07,634.53,114.14ZM558.31,40.87h-.59a9.76,9.76,0,0,0-10,9.76v51a9.77,9.77,0,0,0,10.14,9.76l.75,0C579,110.79,595.85,98.51,595.85,76,595.85,54.69,582.17,41.57,558.31,40.87Z"/><path class="cls-2" d="M844.2,78h-1.61a9.78,9.78,0,0,1-9.37-7c-7.4-24.77-14.13-28.41-43.52-29.56l-15.45-.51a9.77,9.77,0,0,0-10.09,9.76v45a9.77,9.77,0,0,0,9.77,9.77h8.65c8.67,0,12.21-2.89,15.67-18.74a9.75,9.75,0,0,1,9.54-7.64h.06a9.76,9.76,0,0,1,9.76,9.77v56a9.76,9.76,0,0,1-9.76,9.77h0a9.79,9.79,0,0,1-9.56-7.74c-3.49-16.07-7.12-18.64-15.67-18.64h-8.65a9.77,9.77,0,0,0-9.77,9.77v48.44a9.77,9.77,0,0,0,10.17,9.76l20.26-.84c29.67-1.17,36.89-4.65,45.31-36.14a9.8,9.8,0,0,1,9.44-7.26h1.44a9.77,9.77,0,0,1,9.77,9.95l-.89,47.87a9.76,9.76,0,0,1-9.77,9.58H684.19a9.76,9.76,0,0,1-9.76-9.76v-1.89a9.78,9.78,0,0,1,7.69-9.55c12.18-2.66,14.08-6.34,14.08-16.62V55.66c0-10.27-1.9-13.95-14.08-16.62a9.77,9.77,0,0,1-7.69-9.54V27.61a9.77,9.77,0,0,1,9.76-9.77H843.36a9.77,9.77,0,0,1,9.76,9.57L854,68A9.76,9.76,0,0,1,844.2,78Z"/></svg>