<svg id="Layer_1" data-name="Layer 1" xmlns="http://www.w3.org/2000/svg" viewBox="0 0 200 200"><defs><style>.cls-1{fill:#71e2ff;}.cls-1,.cls-2{stroke:#000;stroke-miterlimit:10;stroke-width:3px;}.cls-3{fill:#fff;}</style></defs><circle cx="101.85" cy="103.41" r="77.26" transform="translate(-43.29 102.31) rotate(-45)"/><path d="M101.85,27.66a75.74,75.74,0,0,1,75.75,75.75h0a75.75,75.75,0,0,1-75.75,75.76h0a75.76,75.76,0,0,1-75.76-75.76h0a75.75,75.75,0,0,1,75.76-75.75h0m0-3a78.76,78.76,0,1,0,78.75,78.75,78.85,78.85,0,0,0-78.75-78.75Z"/><rect class="cls-1" x="22.4" y="22.96" width="151.51" height="151.51" rx="75.76"/><circle class="cls-2" cx="103.26" cy="90.92" r="23.05"/><path d="M88.7,144a5.29,5.29,0,0,1-1.63-.26,5.17,5.17,0,0,1-3.27-6.54L96,100.49A5.17,5.17,0,0,1,100.94,97a5.23,5.23,0,0,1,1.62.26,5.15,5.15,0,0,1,3,2.6,5.1,5.1,0,0,1,.28,3.94L93.61,140.46A5.18,5.18,0,0,1,88.7,144Z"/><path d="M100.94,98.45a3.55,3.55,0,0,1,1.15.19,3.68,3.68,0,0,1,2.32,4.64L92.19,140a3.69,3.69,0,0,1-3.49,2.51,3.9,3.9,0,0,1-1.16-.18,3.68,3.68,0,0,1-2.32-4.64L97.45,101a3.69,3.69,0,0,1,3.49-2.51m0-3h0A6.67,6.67,0,0,0,94.6,100L82.38,136.72a6.66,6.66,0,0,0,4.22,8.43,6.51,6.51,0,0,0,2.1.34A6.66,6.66,0,0,0,95,140.93l12.23-36.7A6.68,6.68,0,0,0,103,95.79a6.84,6.84,0,0,0-2.1-.34Z"/><path class="cls-3" d="M83.88,141.38a5,5,0,0,1-1.63-.27A5.16,5.16,0,0,1,79,134.58L91.2,97.87a5.18,5.18,0,0,1,4.92-3.53,5,5,0,0,1,1.62.26,5.17,5.17,0,0,1,3.27,6.54l-12.22,36.7A5.17,5.17,0,0,1,83.88,141.38Z"/><path d="M96.12,95.84a3.83,3.83,0,0,1,1.15.18h0a3.68,3.68,0,0,1,2.32,4.64L87.37,137.37a3.71,3.71,0,0,1-3.49,2.51,3.61,3.61,0,0,1-1.16-.19,3.68,3.68,0,0,1-2.32-4.64L92.63,98.34a3.68,3.68,0,0,1,3.49-2.5m0-3h0a6.67,6.67,0,0,0-6.34,4.56L77.56,134.1a6.67,6.67,0,0,0,4.22,8.44,6.79,6.79,0,0,0,2.1.34,6.66,6.66,0,0,0,6.33-4.56l12.23-36.71a6.68,6.68,0,0,0-4.22-8.43,6.55,6.55,0,0,0-2.1-.34Z"/><path class="cls-3" d="M99.73,111.93a24.55,24.55,0,1,1,24.54-24.55A24.57,24.57,0,0,1,99.73,111.93Z"/><path d="M99.73,64.33a23,23,0,1,1-23,23,23,23,0,0,1,23-23m0-3a26.05,26.05,0,1,0,26,26.05,26.08,26.08,0,0,0-26-26Z"/></svg>