<svg id="Layer_1" data-name="Layer 1" xmlns="http://www.w3.org/2000/svg" viewBox="0 0 200 200"><defs><style>.cls-1{fill:#ffe35a;}.cls-1,.cls-2,.cls-4{stroke:#000;stroke-miterlimit:10;stroke-width:3px;}.cls-2{fill:none;}.cls-3,.cls-4{fill:#fff;}</style></defs><circle cx="101.85" cy="103.41" r="77.26" transform="translate(-43.29 102.31) rotate(-45)"/><path d="M101.85,27.66a75.74,75.74,0,0,1,75.75,75.75h0a75.75,75.75,0,0,1-75.75,75.76h0a75.76,75.76,0,0,1-75.76-75.76h0a75.75,75.75,0,0,1,75.76-75.75h0m0-3a78.76,78.76,0,1,0,78.75,78.75,78.85,78.85,0,0,0-78.75-78.75Z"/><rect class="cls-1" x="22.4" y="22.96" width="151.51" height="151.51" rx="75.76"/><polygon points="70.16 80.24 74.2 109.83 133.62 110.39 138.27 80.24 70.16 80.24"/><polygon class="cls-2" points="70.16 80.24 74.2 109.83 133.62 110.39 138.27 80.24 70.16 80.24"/><path d="M77.65,138.07a7.29,7.29,0,1,1,7.29-7.29A7.3,7.3,0,0,1,77.65,138.07Z"/><path d="M77.65,125a5.79,5.79,0,1,1-5.79,5.79A5.79,5.79,0,0,1,77.65,125m0-3a8.79,8.79,0,1,0,8.79,8.79A8.8,8.8,0,0,0,77.65,122Z"/><path d="M130.18,138.07a7.29,7.29,0,1,1,7.29-7.29A7.3,7.3,0,0,1,130.18,138.07Z"/><path d="M130.18,125a5.79,5.79,0,1,1-5.79,5.79,5.79,5.79,0,0,1,5.79-5.79m0-3a8.79,8.79,0,1,0,8.79,8.79,8.8,8.8,0,0,0-8.79-8.79Z"/><polyline class="cls-2" points="133.11 121.09 75.56 121.09 68.48 69.68 63.17 62.86"/><polygon class="cls-3" points="67 77.08 71.04 106.67 130.46 107.23 135.11 77.08 67 77.08"/><polygon class="cls-4" points="67 77.08 71.04 106.67 130.46 107.23 135.11 77.08 67 77.08"/><circle class="cls-3" cx="74.49" cy="127.62" r="7.29"/><path d="M74.49,121.83a5.79,5.79,0,1,1-5.79,5.79,5.79,5.79,0,0,1,5.79-5.79m0-3a8.79,8.79,0,1,0,8.79,8.79,8.8,8.8,0,0,0-8.79-8.79Z"/><circle class="cls-3" cx="127.02" cy="127.62" r="7.29"/><path d="M127,121.83a5.79,5.79,0,1,1-5.79,5.79,5.79,5.79,0,0,1,5.79-5.79m0-3a8.79,8.79,0,1,0,8.79,8.79,8.8,8.8,0,0,0-8.79-8.79Z"/><polyline class="cls-2" points="129.95 117.93 72.4 117.93 65.32 66.52 60.01 59.7"/></svg>