<svg id="Layer_1" data-name="Layer 1" xmlns="http://www.w3.org/2000/svg" viewBox="0 0 200 200"><defs><style>.cls-1{fill:#ff5c4e;stroke:#000;stroke-miterlimit:10;stroke-width:3px;}.cls-2{fill:#fff;}.cls-3{font-size:26.93px;font-family:Frutiger-Cn, "Frutiger 57 Condensed";}</style></defs><circle cx="101.85" cy="103.41" r="77.26" transform="translate(-43.29 102.31) rotate(-45)"/><path d="M101.85,27.66a75.74,75.74,0,0,1,75.75,75.75h0a75.75,75.75,0,0,1-75.75,75.76h0a75.76,75.76,0,0,1-75.76-75.76h0a75.75,75.75,0,0,1,75.76-75.75h0m0-3a78.76,78.76,0,1,0,78.75,78.75,78.85,78.85,0,0,0-78.75-78.75Z"/><rect class="cls-1" x="22.4" y="22.96" width="151.51" height="151.51" rx="75.76"/><rect x="70.68" y="69.09" width="62.39" height="62.39"/><path d="M131.57,70.59V130H72.18V70.59h59.39m3-3H69.18V133h65.39V67.59Z"/><rect class="cls-2" x="66.96" y="65.96" width="62.39" height="62.39"/><path d="M127.85,67.46v59.39H68.46V67.46h59.39m3-3H65.46v65.39h65.39V64.46Z"/><text class="cls-3" transform="translate(71.99 92.72)">TUES</text><text class="cls-3" transform="translate(85.23 119.95)">24</text></svg>